<svg xmlns="http://www.w3.org/2000/svg" width="22" height="16" xmlns:xlink="http://www.w3.org/1999/xlink"><defs><rect id="a" width="22" height="16" rx="3"/><ellipse id="c" cx="4.595" cy="4.733" rx="3.929" ry="4"/></defs><g fill="none" fill-rule="evenodd"><mask id="b" fill="#fff"><use xlink:href="#a"/></mask><use fill="#FFF" xlink:href="#a"/><path fill="#52C162" d="M0 0h22v16H0z" mask="url(#b)"/><path fill="#F6D660" d="M2.28 8.368c-.304-.203-.303-.533 0-.736l8.168-5.445c.305-.203.8-.203 1.104 0l8.167 5.445c.305.203.304.533 0 .736l-8.167 5.445c-.305.203-.8.203-1.104 0L2.28 8.368z" mask="url(#b)"/><g transform="translate(6.333 3.267)" mask="url(#b)"><mask id="d" fill="#fff"><use xlink:href="#c"/></mask><use fill="#4758A9" xlink:href="#c"/><path stroke="#FFF" stroke-width="1.333" d="M.476 4.2c.524-.533 2.418-.284 4.19 0 1.774.284 3.674 1.073 4.191 1.6" stroke-linecap="square" mask="url(#d)" transform="rotate(6 4.667 4.843)"/></g></g></svg>