<svg xmlns="http://www.w3.org/2000/svg" width="22" height="16" xmlns:xlink="http://www.w3.org/1999/xlink"><defs><rect id="a" width="22" height="16" rx="3"/></defs><g fill="none" fill-rule="evenodd"><mask id="b" fill="#fff"><use xlink:href="#a"/></mask><use fill="#FFF" xlink:href="#a"/><path fill="#ED5565" d="M0 0h22v16H0z" mask="url(#b)"/><path fill="#F6D660" d="M10.7 4.657l-.658.405.014-.785-.405-.672.773.022.658-.405-.014.784.405.673-.773-.022zm-1.943-2.17l-.763-.125.526-.583.135-.773.57.523.762.126-.526.583-.135.773-.57-.523zm.39 6.965l-.644.428-.013-.785-.428-.658.773-.005.643-.428.013.785.428.658-.773.005zm1.322-2.118l-.768.089.345-.705-.083-.78.692.345.767-.089-.344.706.083.78-.692-.346zM5.1 6.61L3.182 8l.707-2.284L2 4.292l2.351-.022L5.098 2l.747 2.27 2.351.022-1.89 1.424L7.013 8" mask="url(#b)"/></g></svg>