<svg xmlns="http://www.w3.org/2000/svg" width="176" height="72" xmlns:xlink="http://www.w3.org/1999/xlink"><defs><path id="a" d="M21.752 22.15V.191H.152v21.96z"/></defs><g fill="none" fill-rule="evenodd"><path d="M0 0h176v72H0z"/><g transform="translate(154 9.81)"><mask id="b" fill="#fff"><use xlink:href="#a"/></mask><path fill="#3876A7" d="M16.28 19.775c1.728.504 3.526 1.295 5.472 2.375C17 14.303 8.504 5.735.152.191c2.158 2.16 5.688 6.84 6.552 11.88 3.456 2.448 6.624 5.04 9.575 7.704" mask="url(#b)"/></g><path fill="#5E8AB5" d="M170.208 29.584c-4.032-1.368-7.488-1.44-10.08-1.152.864-2.088 1.008-4.392.576-6.552-6.336-4.536-13.248-8.496-19.944-11.304 4.896 3.312 10.297 12.888 12.601 23.185 4.823-1.439 12.312-2.377 21.888.863a55.612 55.612 0 0 0-5.041-5.04"/><path fill="#005389" d="M160.704 21.88c.432 2.16.288 4.392-.576 6.552 2.592-.288 6.048-.216 10.151 1.152-2.951-2.664-6.119-5.256-9.575-7.704M65.952 33.833v2.16h.216c.144-.289.576-1.08 1.656-1.08h2.736V48.52h2.304s-.072-13.393-.072-13.607H75.6c1.08 0 1.44.504 1.656.862l.144-.071v-1.871H65.952zM2.664 32.825C1.008 34.551 0 36.927 0 39.375c0 2.664 1.08 5.113 3.096 6.84 1.872 1.656 4.392 2.591 7.056 2.591 1.368 0 4.176-.287 6.84-1.87l.36-3.6-.288-.073v.073c-2.016 4.248-5.256 4.248-6.408 4.248-5.4 0-7.848-4.465-7.848-8.569 0-2.23.72-4.175 2.016-5.617 1.44-1.584 3.456-2.446 5.832-2.446 1.656 0 4.68.575 6.264 4.176v.072l.288-.072-.36-3.744C14.4 30.302 12.384 29.8 10.44 29.8c-3.168 0-5.904 1.08-7.776 3.025m21.6 2.015c2.736.145 2.808 2.447 2.808 2.664 0 2.303-1.728 3.168-3.168 3.168-.432 0-.936-.072-1.152-.072v-5.688c.216-.072.792-.072 1.512-.072zm-4.176-1.007l-.072.144c.288.144.576.647.576 1.368V48.52h2.16v-6.84c.216 0 .72 0 1.296.072 1.008 0 1.44.719 1.944 1.584l.072.072.288.577c.576.863 1.296 2.087 2.016 3.238.576.793 1.224 1.224 2.016 1.368.576.072 1.8.072 2.232-.071l.288-.073-.288-.072c-.288-.072-.864-.287-1.512-1.08-.432-.504-1.08-1.512-2.016-3.096l-1.008-1.584c-.288-.431-.792-1.152-1.728-1.511 1.368-.289 3.024-1.513 3.024-3.601 0-.576-.144-1.512-1.008-2.377-.936-.862-2.376-1.295-4.248-1.295h-4.032v.002zm27.72 1.08c.144 0 1.44.071 1.44.071.36 0 1.296 0 1.944.071 4.32.648 4.824 4.32 4.824 5.904 0 1.224-.288 3.025-1.368 4.392-1.008 1.44-2.664 2.088-4.896 2.088h-1.944V34.913zm-2.736-1.08l-.072.141c.36.146.504.721.504 1.153v13.392h4.176c5.976 0 8.712-3.888 8.712-7.56 0-1.153-.36-2.879-1.44-4.32-1.512-1.872-3.816-2.807-6.912-2.807h-4.968v.001zm15.84 0v.144c.288.144.504.647.504 1.296V48.52h2.232V33.833h-2.736zm50.328 0v.144c.36.144.504.647.504 1.296V48.52h2.23V33.833h-2.734zm-77.76 0v.144c.288.144.504.72.504 1.368V48.52h8.136l.576-2.377-.216-.07-.072.07c-.72 1.152-1.44 1.297-3.816 1.297-.936 0-1.8-.072-2.304-.072h-.072v-6.479h4.248V39.88h-4.248v-5.04c.504 0 3.168.072 3.6.072.792 0 1.512.432 1.584.936l.288.072-.072-2.088H33.48v.001zm107.352 0l-.072.144c.36.144.576.72.576 1.368V48.52h8.137l.575-2.377-.216-.07-.072.07c-.72 1.152-1.44 1.297-3.815 1.297-.937 0-1.801-.072-2.377-.072h-.071v-6.479h4.248V39.88h-4.248v-5.04c.576 0 3.239.072 3.601.072.863 0 1.584.432 1.728 1.008h.216l-.072-2.088h-8.138v.001zm-55.944-2.88c-.864.646-1.872 1.728-1.872 3.671-.072 2.377 1.44 3.6 3.888 4.824l.936.504c2.16 1.08 3.671 1.873 3.671 4.032 0 .791-.287 1.871-1.08 2.662-.646.65-1.583 1.011-2.663.94-3.24 0-4.392-2.882-4.752-4.106v-.07l-.288.07.144 3.744c1.008.576 2.664 1.514 5.04 1.584 1.728 0 3.384-.646 4.536-1.87 1.08-1.009 1.584-2.233 1.584-3.673 0-3.096-2.232-4.248-4.608-5.545l-.432-.215c-2.592-1.297-3.744-2.088-3.744-3.672 0-1.152.864-2.953 3.096-2.88 2.521 0 3.888 1.941 4.175 3.095v.072h.29l-.145-3.24h-.072c-1.44-.936-3.168-1.08-3.888-1.08-1.368 0-2.808.432-3.816 1.152m33.408 6.48c-.071 2.017 1.152 3.096 3.168 4.03l.72.433c1.656.793 2.736 1.369 2.736 2.953 0 .287 0 1.226-.792 1.943-.504.504-1.224.793-2.088.793-2.448-.072-3.384-1.945-3.744-3.095v-.073h-.216l.072 2.952.071.072c.793.43 2.088 1.15 3.961 1.224 1.295 0 2.664-.576 3.6-1.441a4.074 4.074 0 0 0 1.224-2.951c0-2.52-1.8-3.457-3.672-4.465l-.359-.215c-2.088-1.008-2.881-1.512-2.809-2.736 0-.936.648-2.232 2.376-2.16 2.088 0 3.024 1.512 3.24 2.305v.144l.288-.07-.145-2.522-.071-.072c-1.081-.72-2.521-.791-3.097-.791-2.159-.073-4.463 1.295-4.463 3.742m11.231 0c0 2.017 1.225 3.096 3.168 4.03l.793.433c1.654.793 2.734 1.369 2.734 2.953 0 .287-.07 1.226-.79 1.943-.505.504-1.225.793-2.089.793-2.52-.072-3.457-1.945-3.744-3.095v-.073h-.289l.146 2.952v.072c.792.43 2.16 1.15 4.032 1.224 1.296 0 2.664-.576 3.527-1.441.864-.791 1.295-1.8 1.295-2.951 0-2.52-1.8-3.457-3.672-4.465l-.358-.215c-2.089-1.008-2.88-1.512-2.88-2.736 0-.936.647-2.232 2.447-2.16 2.088 0 3.024 1.512 3.168 2.305l.072.144.215-.07-.143-2.522v-.072c-1.152-.72-2.52-.791-3.097-.791-2.158-.073-4.535 1.295-4.535 3.742m-23.543-3.599v.144c.216.071.504.36.504 1.296v8.497c0 1.728-.649 3.815-3.672 3.815-2.81 0-3.457-1.729-3.457-4.248l.072-9.504h-2.88v.144c.216.144.576.433.576 1.368v7.992c0 4.824 3.24 5.399 5.616 5.399 1.151 0 4.968-.36 4.968-4.895V33.76l-1.727.073z"/></g></svg>