<svg xmlns="http://www.w3.org/2000/svg" width="180" height="130"><g fill="none" fill-rule="evenodd"><path fill="#000" d="M13.136 67.69c0 3.083-1.2 7.17-4.88 7.245-1.8-.076-2.926-1.002-2.926-2.928 0-3.62 5.18-4.316 7.806-4.316zm5.18 10.636V61.14c.074-5.547-3.53-7.474-8.483-7.474-4.88 0-8.932 2.158-8.932 7.63h5.33c0-2.39 1.28-3.7 3.61-3.7 2.704 0 3.304 2.003 3.304 4.392v2.39C7.808 64.53.078 65.3 0 72.544c.075 4.084 3.228 6.32 6.906 6.32 2.627 0 4.954-.924 6.08-3.314h.15v2.776h5.18zM34.53 62.45c0-2.464-.677-4.854-3.53-4.854-3.452 0-4.428 3.7-4.503 6.628.075 6.01 3.453 10.635 9.683 10.71 1.352-.075 2.628-.23 3.903-.616v3.39c-2.176.694-4.503 1.157-6.83 1.157-8.332 0-12.536-5.317-12.536-13.64 0-7.012 3.68-11.558 10.734-11.558 5.71 0 8.94 2.85 8.94 8.785h-5.86zm21.016 0c0-2.464-.675-4.854-3.528-4.854-3.453 0-4.504 3.7-4.504 6.628 0 6.01 3.454 10.635 9.61 10.71 1.35-.075 2.7-.23 3.977-.616v3.39c-2.17.694-4.5 1.157-6.83 1.157-8.33 0-12.53-5.317-12.53-13.64 0-7.012 3.68-11.558 10.737-11.558 5.705 0 8.857 2.85 8.857 8.785h-5.78zm21.394-1h-8.56c.3-2.466 2.102-4.162 4.43-4.162 2.55 0 4.127 1.54 4.127 4.16zm5.178 3.39v-1.387c0-5.935-2.927-9.786-8.932-9.786-6.98 0-9.984 4.47-10.06 11.327.076 7.937 3.53 13.87 11.862 13.87 2.25 0 4.428-.306 6.53-1V74.01c-1.35.464-3.002.85-4.503.925-5.255-.076-8.783-5.008-8.783-10.094h13.886zm16.214 13.486V64.53c0-1.155.075-4.237-.825-5.16-.375-.386-1.052-.464-1.577-.464-3.978 0-5.554 5.703-5.554 9.016v10.404h-5.48v-24.12h5.48v4.546h.074c1.277-3.083 3.68-5.086 6.98-5.086 4.505 0 6.38 3.777 6.38 7.937v16.723h-5.478zm16.815-20.19V69.54c0 2.774.3 5.32 3.677 5.395.9-.076 1.727-.232 2.552-.46v4.005c-1.5.23-3.002.385-4.503.385-4.73 0-7.132-1.62-7.206-6.627V58.136h-4.58v-3.93h4.58v-5.703l5.48-2.235v7.937h6.98v3.93h-6.98zm22.743 20.19V73.78h-.075c-1.202 3.005-3.603 5.085-6.98 5.085-4.43 0-6.307-3.852-6.307-7.936V54.2h5.48v13.793c0 1.158-.074 4.24.826 5.164.376.386 1.05.386 1.577.464 3.91-.073 5.48-5.78 5.48-8.94V54.2h5.48v24.12h-5.48zm14.412-10.556v10.556h-5.48v-24.12h5.48v4.47h.076c1.876-3.315 3.677-5.01 7.58-5.01v5.857c-5.555 0-7.656 2.543-7.656 8.246zm22.518-6.32h-8.557c.3-2.466 2.102-4.162 4.43-4.162 2.55 0 4.202 1.54 4.127 4.16zm5.18 3.39v-1.387c0-5.935-2.927-9.786-8.857-9.786-6.98 0-10.06 4.47-10.06 11.327 0 7.937 3.53 13.87 11.786 13.87 2.25 0 4.42-.306 6.53-1V74.01c-1.35.464-2.93.85-4.43.925-5.33-.076-8.78-5.008-8.86-10.094H180z"/><path fill="#AD1E33" d="M105.088 26v3.93s10.96 4.316 12.536 5.01c-1.577.616-12.536 4.93-12.536 4.93v3.932l17.038-7.09V33.09L105.088 26z"/></g></svg>