<svg xmlns="http://www.w3.org/2000/svg" width="190" height="72"><defs><linearGradient id="a" x1="40.644%" x2="50.369%" y1="34.884%" y2="58.776%"><stop stop-color="#FFF" offset="50%"/><stop stop-color="#F9F9F9" offset="60.75%"/><stop stop-color="#EDEEED" offset="70.84%"/><stop stop-color="#DBDEDC" offset="80.64%"/><stop stop-color="#CED2CF" offset="86.26%"/><stop stop-color="#CACFCD" offset="89.06%"/><stop stop-color="#C0C6C5" offset="91.3%"/><stop stop-color="#AFB7B9" offset="93.36%"/><stop stop-color="#98A3A7" offset="95.3%"/><stop stop-color="#7D8A90" offset="97.16%"/><stop stop-color="#5F6E76" offset="98.94%"/><stop stop-color="#495861" offset="100%"/></linearGradient><linearGradient id="b" x1="59.378%" x2="49.673%" y1="34.782%" y2="58.686%"><stop stop-color="#FFF" offset="31.71%"/><stop stop-color="#F8F9F9" offset="46.67%"/><stop stop-color="#EBEDED" offset="62.17%"/><stop stop-color="#D8DCDB" offset="77.86%"/><stop stop-color="#C9CECD" offset="87.36%"/><stop stop-color="#C6CBCB" offset="89.97%"/><stop stop-color="#BBC2C3" offset="92.07%"/><stop stop-color="#AAB3B6" offset="93.99%"/><stop stop-color="#949FA4" offset="95.8%"/><stop stop-color="#79868D" offset="97.54%"/><stop stop-color="#5B6A72" offset="99.19%"/><stop stop-color="#495861" offset="100%"/></linearGradient><linearGradient id="c" x1="3.266%" x2="103.897%" y1="49.787%" y2="50.003%"><stop stop-color="#FFF" offset="50%"/><stop stop-color="#F9F9F9" offset="61.08%"/><stop stop-color="#EDEEED" offset="71.48%"/><stop stop-color="#DBDEDC" offset="81.57%"/><stop stop-color="#CED2CF" offset="87.36%"/><stop stop-color="#CACFCD" offset="89.93%"/><stop stop-color="#C0C6C5" offset="92%"/><stop stop-color="#AFB7B9" offset="93.89%"/><stop stop-color="#98A3A7" offset="95.68%"/><stop stop-color="#7D8A90" offset="97.39%"/><stop stop-color="#5F6E76" offset="99.02%"/><stop stop-color="#495861" offset="100%"/></linearGradient><linearGradient id="d" x1="51.493%" x2="51.493%" y1="99.99%" y2="-.009%"><stop stop-color="#B4BBC0" offset="0%"/><stop stop-color="#99A3A9" offset="11.12%"/><stop stop-color="#818B92" offset="24.93%"/><stop stop-color="#727E85" offset="36.91%"/><stop stop-color="#6D7980" offset="45.6%"/><stop stop-color="#747F86" offset="100%"/></linearGradient><linearGradient id="e" x1="-.002%" x2="100.024%" y1="49.976%" y2="49.976%"><stop stop-color="#6D7980" offset="7.143%"/><stop stop-color="#6D7980" offset="52.77%"/><stop stop-color="#717D84" offset="62.26%"/><stop stop-color="#7D888F" offset="73.46%"/><stop stop-color="#919BA1" offset="85.52%"/><stop stop-color="#AFB6BB" offset="98.13%"/><stop stop-color="#B4BBC0" offset="100%"/></linearGradient><linearGradient id="f" x1="100.008%" x2=".012%" y1="49.984%" y2="49.984%"><stop stop-color="#8B969D" offset="0%"/><stop stop-color="#6D7980" offset="28.53%"/><stop stop-color="#6D7980" offset="59.03%"/><stop stop-color="#838D94" offset="74.04%"/><stop stop-color="#A8B0B5" offset="100%"/></linearGradient><linearGradient id="g" x1="14.645%" x2="85.36%" y1="14.645%" y2="85.359%"><stop stop-color="#15272F" offset="3%"/><stop stop-color="#505F68" offset="16.62%"/><stop stop-color="#B4BBC0" offset="50%"/><stop stop-color="#DADED9" offset="83.38%"/><stop stop-color="#F8F8F2" offset="97%"/></linearGradient><linearGradient id="h" x1="14.645%" x2="85.36%" y1="14.643%" y2="85.344%"><stop stop-color="#F8F8F2" offset="3%"/><stop stop-color="#EAEDE8" offset="16.62%"/><stop stop-color="#C3C8C7" offset="40%"/><stop stop-color="#43525A" offset="83.38%"/><stop stop-color="#56646C" offset="97%"/></linearGradient><linearGradient id="i" x1="50.017%" x2="50.017%" y1="0%" y2="99.987%"><stop stop-color="#EAEDE8" offset="3%"/><stop stop-color="#747F86" offset="16.62%"/><stop stop-color="#21353E" offset="50%"/><stop offset="83.38%"/><stop stop-color="#43525A" offset="97%"/></linearGradient><linearGradient id="j" x1="-35.618%" x2="123.213%" y1="-4.048%" y2="125.143%"><stop stop-color="#2B3D47" offset="16.62%"/><stop stop-color="#5D6A72" offset="45.89%"/><stop stop-color="#DEE2DE" offset="83.38%"/></linearGradient><linearGradient id="k" x1="49.989%" x2="49.989%" y1="-.005%" y2="99.999%"><stop stop-color="#EAEDE8" offset="3%"/><stop stop-color="#495861" offset="16.62%"/><stop offset="50%"/><stop stop-color="#061217" offset="56.32%"/><stop stop-color="#1B323D" offset="64.58%"/><stop stop-color="#3B4F59" offset="73.93%"/><stop stop-color="#636F76" offset="83.38%"/><stop stop-color="#747F86" offset="97%"/></linearGradient><linearGradient id="l" x1="49.983%" x2="49.983%" y1="0%" y2="100.003%"><stop stop-color="#56646C" offset="0%"/><stop stop-color="#495861" offset="16.62%"/><stop offset="50%"/><stop stop-color="#495861" offset="83.38%"/><stop stop-color="#DADED9" offset="97%"/></linearGradient><linearGradient id="m" x1="14.645%" x2="85.36%" y1="14.643%" y2="85.344%"><stop stop-color="#495861" offset="3%"/><stop stop-color="#54636C" offset="4.804%"/><stop stop-color="#6C7982" offset="9.633%"/><stop stop-color="#7D8991" offset="14.48%"/><stop stop-color="#88939A" offset="19.33%"/><stop stop-color="#8B969D" offset="24.18%"/><stop stop-color="#747F86" offset="50%"/><stop stop-color="#778289" offset="63.17%"/><stop stop-color="#808B92" offset="76.34%"/><stop stop-color="#909BA1" offset="89.48%"/><stop stop-color="#9DA7AD" offset="97%"/></linearGradient><linearGradient id="n" x1="90.049%" x2="10.049%" y1="90.049%" y2="10.049%"><stop stop-color="#495861" offset="3%"/><stop stop-color="#52616A" offset="8.384%"/><stop stop-color="#65727A" offset="22.24%"/><stop stop-color="#707C83" offset="36.12%"/><stop stop-color="#747F86" offset="50%"/><stop stop-color="#778289" offset="63.17%"/><stop stop-color="#808B92" offset="76.34%"/><stop stop-color="#909BA1" offset="89.48%"/><stop stop-color="#9DA7AD" offset="97%"/></linearGradient><radialGradient id="o" cx="49.991%" cy="67.704%" r="60.065%" fx="49.991%" fy="67.704%"><stop stop-color="#D8DCD7" offset="0%"/><stop stop-color="#C9CECD" offset="100%"/></radialGradient><linearGradient id="p" x1="-.739%" x2="100.81%" y1="94.888%" y2="5.482%"><stop stop-color="#5D6A72" offset="0%"/><stop stop-color="#647179" offset="26.9%"/><stop stop-color="#768289" offset="68.81%"/><stop stop-color="#889299" offset="100%"/></linearGradient><linearGradient id="q" x1="-.756%" x2="100.81%" y1="94.888%" y2="5.466%"><stop stop-color="#5D6A72" offset="0%"/><stop stop-color="#657179" offset="29.64%"/><stop stop-color="#7A858D" offset="79.07%"/><stop stop-color="#859097" offset="100%"/></linearGradient><linearGradient id="r" x1="-.774%" x2="100.81%" y1="94.887%" y2="5.451%"><stop stop-color="#5C6971" offset="0%"/><stop stop-color="#66737A" offset="34.02%"/><stop stop-color="#7F8B92" offset="94.67%"/><stop stop-color="#828D94" offset="100%"/></linearGradient><linearGradient id="s" x1="-.744%" x2="100.809%" y1="94.887%" y2="5.435%"><stop stop-color="#5C6971" offset="0%"/><stop stop-color="#68757C" offset="41.26%"/><stop stop-color="#7E8A92" offset="100%"/></linearGradient><linearGradient id="t" x1="-.761%" x2="100.808%" y1="94.893%" y2="5.528%"><stop stop-color="#5B6971" offset="0%"/><stop stop-color="#6B7880" offset="54.28%"/><stop stop-color="#7B878F" offset="100%"/></linearGradient><linearGradient id="u" x1="-.731%" x2="100.808%" y1="94.892%" y2="5.512%"><stop stop-color="#5B6870" offset="0%"/><stop stop-color="#737F87" offset="82.64%"/><stop stop-color="#78858C" offset="100%"/></linearGradient><linearGradient id="v" x1="-.749%" x2="100.807%" y1="94.892%" y2="5.497%"><stop stop-color="#5A6870" offset="0%"/><stop stop-color="#75828A" offset="100%"/></linearGradient><linearGradient id="w" x1="-.814%" x2="100.807%" y1="95%" y2="5.487%"><stop stop-color="#5A676F" offset="0%"/><stop stop-color="#727F87" offset="100%"/></linearGradient><linearGradient id="x" x1="-.736%" x2="100.806%" y1="94.999%" y2="5.472%"><stop stop-color="#59676F" offset="0%"/><stop stop-color="#6F7D85" offset="100%"/></linearGradient><linearGradient id="y" x1="-.754%" x2="100.806%" y1="94.999%" y2="5.456%"><stop stop-color="#59666F" offset="0%"/><stop stop-color="#6C7A82" offset="100%"/></linearGradient><linearGradient id="z" x1="-.771%" x2="100.806%" y1="94.89%" y2="5.435%"><stop stop-color="#58666E" offset="0%"/><stop stop-color="#5B6971" offset="12.82%"/><stop stop-color="#697780" offset="100%"/></linearGradient><linearGradient id="A" x1="-.741%" x2="100.805%" y1="94.998%" y2="5.425%"><stop stop-color="#58666E" offset="0%"/><stop stop-color="#5C6A72" offset="23.05%"/><stop stop-color="#66757D" offset="100%"/></linearGradient><linearGradient id="B" x1="-.759%" x2="100.804%" y1="94.895%" y2="5.512%"><stop stop-color="#57656D" offset="0%"/><stop stop-color="#5B6972" offset="26.52%"/><stop stop-color="#64727B" offset="100%"/></linearGradient><linearGradient id="C" x1="-.682%" x2="100.803%" y1="95.003%" y2="5.502%"><stop stop-color="#57656D" offset="0%"/><stop stop-color="#5A6871" offset="25.72%"/><stop stop-color="#616F78" offset="100%"/></linearGradient><linearGradient id="D" x1="-.699%" x2="100.803%" y1="94.895%" y2="5.481%"><stop stop-color="#56646D" offset="0%"/><stop stop-color="#58676F" offset="21.11%"/><stop stop-color="#5E6D75" offset="100%"/></linearGradient><linearGradient id="E" x1="-.764%" x2="100.803%" y1="94.894%" y2="5.465%"><stop stop-color="#56646C" offset="0%"/><stop stop-color="#57656D" offset="11.6%"/><stop stop-color="#5B6A73" offset="100%"/></linearGradient><linearGradient id="F" x1="-.687%" x2="100.802%" y1="94.894%" y2="5.45%"><stop stop-color="#55636C" offset="0%"/><stop stop-color="#586770" offset="100%"/></linearGradient><linearGradient id="G" x1="-.704%" x2="100.802%" y1="95.002%" y2="5.44%"><stop stop-color="#55636B" offset="0%"/><stop stop-color="#55656D" offset="100%"/></linearGradient><linearGradient id="H" x1="-.722%" x2="100.801%" y1="95.001%" y2="5.425%"><stop stop-color="#54636B" offset="0%"/><stop stop-color="#52626B" offset="100%"/></linearGradient><linearGradient id="I" x1="-.739%" x2="100.801%" y1="95.001%" y2="5.409%"><stop stop-color="#54626B" offset="0%"/><stop stop-color="#53626A" offset="8.218%"/><stop stop-color="#4F5F68" offset="100%"/></linearGradient><linearGradient id="J" x1="-.756%" x2="100.801%" y1="94.892%" y2="5.388%"><stop stop-color="#53626A" offset="0%"/><stop stop-color="#516068" offset="19.92%"/><stop stop-color="#4C5C65" offset="100%"/></linearGradient><linearGradient id="K" x1="-.727%" x2="100.8%" y1="95.006%" y2="5.486%"><stop stop-color="#53616A" offset="0%"/><stop stop-color="#4D5D65" offset="33.28%"/><stop stop-color="#495962" offset="100%"/></linearGradient><linearGradient id="L" x1="-.744%" x2="100.799%" y1="95.005%" y2="5.471%"><stop stop-color="#526169" offset="0%"/><stop stop-color="#4A5962" offset="41.64%"/><stop stop-color="#46565F" offset="100%"/></linearGradient><linearGradient id="M" x1="-.761%" x2="100.752%" y1="95.005%" y2="5.455%"><stop stop-color="#526069" offset="0%"/><stop stop-color="#505F68" offset="4.04%"/><stop stop-color="#46565F" offset="46.41%"/><stop stop-color="#43535C" offset="100%"/></linearGradient><linearGradient id="N" x1="-.732%" x2="100.798%" y1="94.897%" y2="5.434%"><stop stop-color="#516068" offset="0%"/><stop stop-color="#4C5B64" offset="12.24%"/><stop stop-color="#43535C" offset="49.11%"/><stop stop-color="#405059" offset="100%"/></linearGradient><linearGradient id="O" x1="-.749%" x2="100.798%" y1="95.004%" y2="5.424%"><stop stop-color="#505F68" offset="0%"/><stop stop-color="#485861" offset="17.71%"/><stop stop-color="#405059" offset="50.46%"/><stop stop-color="#3D4D56" offset="100%"/></linearGradient><linearGradient id="P" x1="-.719%" x2="100.797%" y1="94.896%" y2="5.403%"><stop stop-color="#505F68" offset="0%"/><stop stop-color="#44545D" offset="21.34%"/><stop stop-color="#3C4D56" offset="50.85%"/><stop stop-color="#3A4A53" offset="100%"/></linearGradient><linearGradient id="Q" x1="-.847%" x2="100.714%" y1="5.563%" y2="94.921%"><stop stop-color="#889299" offset="0%"/><stop stop-color="#9DA7AD" offset="36.81%"/><stop stop-color="#5D6A72" offset="100%"/></linearGradient><linearGradient id="R" x1="-.847%" x2="100.729%" y1="5.55%" y2="94.92%"><stop stop-color="#869097" offset="0%"/><stop stop-color="#9AA4AA" offset="36.81%"/><stop stop-color="#66737B" offset="89.01%"/><stop stop-color="#5C6971" offset="100%"/></linearGradient><linearGradient id="S" x1="-.847%" x2="100.744%" y1="5.536%" y2="94.92%"><stop stop-color="#838E95" offset="0%"/><stop stop-color="#96A0A7" offset="36.81%"/><stop stop-color="#65727A" offset="89.01%"/><stop stop-color="#5B6970" offset="100%"/></linearGradient><linearGradient id="T" x1="-.846%" x2="100.712%" y1="5.523%" y2="94.919%"><stop stop-color="#818C94" offset="0%"/><stop stop-color="#929DA4" offset="36.81%"/><stop stop-color="#637078" offset="89.01%"/><stop stop-color="#5A6870" offset="100%"/></linearGradient><linearGradient id="U" x1="-.846%" x2="100.727%" y1="5.51%" y2="94.919%"><stop stop-color="#7F8A92" offset="0%"/><stop stop-color="#8F9AA1" offset="36.81%"/><stop stop-color="#616F77" offset="89.01%"/><stop stop-color="#59676F" offset="100%"/></linearGradient><linearGradient id="V" x1="-.845%" x2="100.742%" y1="5.496%" y2="94.919%"><stop stop-color="#7D8890" offset="0%"/><stop stop-color="#8B979E" offset="36.81%"/><stop stop-color="#5F6D75" offset="89.01%"/><stop stop-color="#58666E" offset="100%"/></linearGradient><linearGradient id="W" x1="-.845%" x2="100.709%" y1="5.483%" y2="94.918%"><stop stop-color="#7A868E" offset="0%"/><stop stop-color="#88949B" offset="36.81%"/><stop stop-color="#5E6B74" offset="89.01%"/><stop stop-color="#57656D" offset="100%"/></linearGradient><linearGradient id="X" x1="-.844%" x2="100.725%" y1="5.47%" y2="94.918%"><stop stop-color="#78848C" offset="0%"/><stop stop-color="#849198" offset="36.81%"/><stop stop-color="#5C6A72" offset="89.01%"/><stop stop-color="#56646C" offset="100%"/></linearGradient><linearGradient id="Y" x1="-.844%" x2="100.74%" y1="5.456%" y2="94.918%"><stop stop-color="#76838A" offset="0%"/><stop stop-color="#818E95" offset="36.81%"/><stop stop-color="#5A6871" offset="89.01%"/><stop stop-color="#55636B" offset="100%"/></linearGradient><linearGradient id="Z" x1="-.843%" x2="100.707%" y1="5.443%" y2="94.917%"><stop stop-color="#748188" offset="0%"/><stop stop-color="#7E8B92" offset="36.81%"/><stop stop-color="#58676F" offset="89.01%"/><stop stop-color="#54626A" offset="100%"/></linearGradient><linearGradient id="aa" x1="-.843%" x2="100.722%" y1="5.537%" y2="94.923%"><stop stop-color="#727F86" offset="0%"/><stop stop-color="#7A8890" offset="36.81%"/><stop stop-color="#57656E" offset="89.01%"/><stop stop-color="#536169" offset="100%"/></linearGradient><linearGradient id="ab" x1="-.842%" x2="100.737%" y1="5.524%" y2="94.922%"><stop stop-color="#707D85" offset="0%"/><stop stop-color="#77858D" offset="36.81%"/><stop stop-color="#55646C" offset="89.01%"/><stop stop-color="#526068" offset="100%"/></linearGradient><linearGradient id="ac" x1="-.842%" x2="100.705%" y1="5.511%" y2="94.922%"><stop stop-color="#6D7B83" offset="0%"/><stop stop-color="#74828A" offset="36.81%"/><stop stop-color="#53626A" offset="89.01%"/><stop stop-color="#515F68" offset="100%"/></linearGradient><linearGradient id="ad" x1="-.841%" x2="100.72%" y1="5.497%" y2="94.921%"><stop stop-color="#6B7981" offset="0%"/><stop stop-color="#717F87" offset="36.81%"/><stop stop-color="#516069" offset="89.01%"/><stop stop-color="#505E67" offset="100%"/></linearGradient><linearGradient id="ae" x1="-.841%" x2="100.735%" y1="5.484%" y2="94.921%"><stop stop-color="#69777F" offset="0%"/><stop stop-color="#6D7C84" offset="36.81%"/><stop stop-color="#505F67" offset="89.01%"/><stop stop-color="#4F5D66" offset="100%"/></linearGradient><linearGradient id="af" x1="-.84%" x2="100.703%" y1="5.471%" y2="94.921%"><stop stop-color="#67757D" offset="0%"/><stop stop-color="#6A7981" offset="36.81%"/><stop stop-color="#4E5D66" offset="89.01%"/><stop stop-color="#4E5C65" offset="100%"/></linearGradient><linearGradient id="ag" x1="-.84%" x2="100.718%" y1="5.457%" y2="94.92%"><stop stop-color="#65737B" offset="0%"/><stop stop-color="#67767E" offset="36.81%"/><stop stop-color="#4C5B64" offset="89.01%"/><stop stop-color="#4D5C64" offset="100%"/></linearGradient><linearGradient id="ah" x1="-.84%" x2="100.733%" y1="5.45%" y2="95.028%"><stop stop-color="#637179" offset="0%"/><stop stop-color="#64737B" offset="36.81%"/><stop stop-color="#4A5A63" offset="89.01%"/><stop stop-color="#4C5B63" offset="100%"/></linearGradient><linearGradient id="ai" x1="-.839%" x2="100.7%" y1="5.437%" y2="95.028%"><stop stop-color="#616F77" offset="0%"/><stop stop-color="#617078" offset="36.81%"/><stop stop-color="#485861" offset="89.01%"/><stop stop-color="#4B5A62" offset="100%"/></linearGradient><linearGradient id="aj" x1="-.839%" x2="100.715%" y1="5.423%" y2="95.027%"><stop stop-color="#5F6D76" offset="0%"/><stop stop-color="#5E6D75" offset="36.81%"/><stop stop-color="#47565F" offset="89.01%"/><stop stop-color="#4A5961" offset="100%"/></linearGradient><linearGradient id="ak" x1="-.838%" x2="100.73%" y1="5.518%" y2="95.033%"><stop stop-color="#5D6B74" offset="0%"/><stop stop-color="#5A6A72" offset="36.81%"/><stop stop-color="#45555E" offset="89.01%"/><stop stop-color="#495860" offset="100%"/></linearGradient><linearGradient id="al" x1="-.838%" x2="100.698%" y1="5.505%" y2="95.032%"><stop stop-color="#5B6972" offset="0%"/><stop stop-color="#57676F" offset="36.81%"/><stop stop-color="#43535C" offset="89.01%"/><stop stop-color="#48575F" offset="100%"/></linearGradient><linearGradient id="am" x1="-.837%" x2="100.713%" y1="5.491%" y2="95.032%"><stop stop-color="#586770" offset="0%"/><stop stop-color="#54636C" offset="36.81%"/><stop stop-color="#41515A" offset="89.01%"/><stop stop-color="#47565E" offset="100%"/></linearGradient><linearGradient id="an" x1="-.837%" x2="100.728%" y1="5.478%" y2="95.031%"><stop stop-color="#56656E" offset="0%"/><stop stop-color="#516069" offset="36.81%"/><stop stop-color="#3F5059" offset="89.01%"/><stop stop-color="#46555D" offset="100%"/></linearGradient><linearGradient id="ao" x1="-.836%" x2="100.696%" y1="5.465%" y2="95.031%"><stop stop-color="#54636C" offset="0%"/><stop stop-color="#4E5D66" offset="36.81%"/><stop stop-color="#3E4E57" offset="89.01%"/><stop stop-color="#45545C" offset="100%"/></linearGradient><linearGradient id="ap" x1="-.836%" x2="100.711%" y1="5.451%" y2="95.031%"><stop stop-color="#52616A" offset="0%"/><stop stop-color="#4A5A63" offset="36.81%"/><stop stop-color="#3C4C55" offset="89.01%"/><stop stop-color="#44535B" offset="100%"/></linearGradient><linearGradient id="aq" x1="-.835%" x2="100.726%" y1="5.438%" y2="95.03%"><stop stop-color="#505F68" offset="0%"/><stop stop-color="#3A4A53" offset="89.01%"/><stop stop-color="#43525A" offset="100%"/></linearGradient><linearGradient id="ar" x1="1.951%" x2="98.396%" y1="-1.567%" y2="102.434%"><stop stop-color="#9DA7AD" offset="0%"/><stop stop-color="#68737A" offset="28.02%"/></linearGradient><linearGradient id="as" x1="2%" x2="98.446%" y1="-1.631%" y2="102.371%"><stop stop-color="#9BA5AB" offset="0%"/><stop stop-color="#68737A" offset="28.02%"/></linearGradient><linearGradient id="at" x1="1.938%" x2="98.387%" y1="-1.627%" y2="102.45%"><stop stop-color="#99A3A9" offset="0%"/><stop stop-color="#68737A" offset="28.02%"/></linearGradient><linearGradient id="au" x1="1.932%" x2="98.382%" y1="-1.692%" y2="102.387%"><stop stop-color="#97A1A7" offset="0%"/><stop stop-color="#68737A" offset="28.02%"/></linearGradient><linearGradient id="av" x1="1.926%" x2="98.377%" y1="-1.686%" y2="102.394%"><stop stop-color="#959FA5" offset="0%"/><stop stop-color="#68737A" offset="28.02%"/></linearGradient><linearGradient id="aw" x1="1.974%" x2="98.427%" y1="-1.683%" y2="102.546%"><stop stop-color="#929DA3" offset="0%"/><stop stop-color="#68737A" offset="28.02%"/></linearGradient><linearGradient id="ax" x1="1.913%" x2="98.368%" y1="-1.748%" y2="102.483%"><stop stop-color="#909BA1" offset="0%"/><stop stop-color="#68737A" offset="28.02%"/></linearGradient><linearGradient id="ay" x1="1.96%" x2="98.364%" y1="-1.742%" y2="102.49%"><stop stop-color="#8E989F" offset="0%"/><stop stop-color="#68737A" offset="28.02%"/></linearGradient><linearGradient id="az" x1="1.954%" x2="98.359%" y1="-1.807%" y2="102.427%"><stop stop-color="#8C969D" offset="0%"/><stop stop-color="#68737A" offset="28.02%"/></linearGradient><linearGradient id="aA" x1="1.947%" x2="98.354%" y1="-1.803%" y2="102.506%"><stop stop-color="#8A949B" offset="0%"/><stop stop-color="#68737A" offset="28.02%"/></linearGradient><linearGradient id="aB" x1="1.941%" x2="98.349%" y1="-1.868%" y2="102.443%"><stop stop-color="#889299" offset="0%"/><stop stop-color="#68737A" offset="28.02%"/></linearGradient><linearGradient id="aC" x1="1.935%" x2="98.345%" y1="-1.863%" y2="102.523%"><stop stop-color="#869097" offset="0%"/><stop stop-color="#68737A" offset="28.02%"/></linearGradient><linearGradient id="aD" x1="1.928%" x2="98.34%" y1="-1.93%" y2="102.532%"><stop stop-color="#848F95" offset="0%"/><stop stop-color="#68737A" offset="28.02%"/></linearGradient><linearGradient id="aE" x1="1.976%" x2="98.39%" y1="-1.924%" y2="102.539%"><stop stop-color="#828D93" offset="0%"/><stop stop-color="#68737A" offset="28.02%"/></linearGradient><linearGradient id="aF" x1="1.915%" x2="98.33%" y1="-1.989%" y2="102.476%"><stop stop-color="#808B91" offset="0%"/><stop stop-color="#68737A" offset="28.02%"/></linearGradient><linearGradient id="aG" x1="1.909%" x2="98.325%" y1="-1.983%" y2="102.483%"><stop stop-color="#7E8990" offset="0%"/><stop stop-color="#68737A" offset="28.02%"/></linearGradient><linearGradient id="aH" x1="1.956%" x2="98.322%" y1="-2.051%" y2="102.565%"><stop stop-color="#7C878E" offset="0%"/><stop stop-color="#68737A" offset="28.02%"/></linearGradient><linearGradient id="aI" x1="1.95%" x2="98.317%" y1="-2.046%" y2="102.572%"><stop stop-color="#7A858C" offset="0%"/><stop stop-color="#68737A" offset="28.02%"/></linearGradient><linearGradient id="aJ" x1="1.943%" x2="98.312%" y1="-2.111%" y2="102.509%"><stop stop-color="#78838A" offset="0%"/><stop stop-color="#68737A" offset="28.02%"/></linearGradient><linearGradient id="aK" x1="1.937%" x2="98.307%" y1="-2.107%" y2="102.589%"><stop stop-color="#768188" offset="0%"/><stop stop-color="#68737A" offset="28.02%"/></linearGradient><linearGradient id="aL" x1="1.931%" x2="98.303%" y1="-2.101%" y2="102.596%"><stop stop-color="#747F86" offset="0%"/><stop stop-color="#68737A" offset="28.02%"/></linearGradient><linearGradient id="aM" x1="1.979%" x2="98.352%" y1="-2.166%" y2="102.533%"><stop stop-color="#727D84" offset="0%"/><stop stop-color="#68737A" offset="28.02%"/></linearGradient><linearGradient id="aN" x1="1.973%" x2="98.348%" y1="-2.162%" y2="102.613%"><stop stop-color="#707B82" offset="0%"/><stop stop-color="#68737A" offset="28.02%"/></linearGradient><linearGradient id="aO" x1="1.912%" x2="98.288%" y1="-2.229%" y2="102.622%"><stop stop-color="#6E7980" offset="0%"/><stop stop-color="#68737A" offset="28.02%"/></linearGradient><linearGradient id="aP" x1="1.905%" x2="98.283%" y1="-2.223%" y2="102.629%"><stop stop-color="#6C777E" offset="0%"/><stop stop-color="#68737A" offset="28.02%"/></linearGradient><linearGradient id="aQ" x1="1.952%" x2="98.28%" y1="-2.289%" y2="102.566%"><stop stop-color="#6A757C" offset="0%"/><stop stop-color="#68737A" offset="28.02%"/></linearGradient><linearGradient id="aR" x1="-14.515%" x2="106.678%" y1=".373%" y2="99.596%"><stop stop-color="#747F86" offset="0%"/><stop stop-color="#889299" offset="100%"/></linearGradient><linearGradient id="aS" x1="-14.269%" x2="106.94%" y1=".365%" y2="99.6%"><stop stop-color="#747F86" offset="0%"/><stop stop-color="#768289" offset="18.68%"/><stop stop-color="#869197" offset="100%"/></linearGradient><linearGradient id="aT" x1="-14.371%" x2="107.223%" y1=".356%" y2="99.605%"><stop stop-color="#747F86" offset="0%"/><stop stop-color="#758188" offset="18.68%"/><stop stop-color="#848F96" offset="100%"/></linearGradient><linearGradient id="aU" x1="-14.43%" x2="107.181%" y1=".348%" y2="99.566%"><stop stop-color="#747F86" offset="0%"/><stop stop-color="#748087" offset="18.68%"/><stop stop-color="#828D94" offset="100%"/></linearGradient><linearGradient id="aV" x1="-14.532%" x2="107.466%" y1=".383%" y2="99.57%"><stop stop-color="#747F86" offset="0%"/><stop stop-color="#737F86" offset="18.68%"/><stop stop-color="#808B92" offset="100%"/></linearGradient><linearGradient id="aW" x1="-14.635%" x2="107.753%" y1=".375%" y2="99.575%"><stop stop-color="#747F86" offset="0%"/><stop stop-color="#727E85" offset="18.68%"/><stop stop-color="#7E8991" offset="100%"/></linearGradient><linearGradient id="aX" x1="-14.739%" x2="108.042%" y1=".366%" y2="99.579%"><stop stop-color="#747F86" offset="0%"/><stop stop-color="#717D84" offset="18.68%"/><stop stop-color="#7C888F" offset="100%"/></linearGradient><linearGradient id="aY" x1="-14.227%" x2="108.949%" y1=".358%" y2="99.584%"><stop stop-color="#747F86" offset="0%"/><stop stop-color="#707C83" offset="18.68%"/><stop stop-color="#7A868D" offset="100%"/></linearGradient><linearGradient id="aZ" x1="-14.285%" x2="108.906%" y1=".349%" y2="99.589%"><stop stop-color="#747F86" offset="0%"/><stop stop-color="#6F7B82" offset="18.68%"/><stop stop-color="#78848B" offset="100%"/></linearGradient><linearGradient id="ba" x1="-14.389%" x2="109.201%" y1=".341%" y2="99.593%"><stop stop-color="#747F86" offset="0%"/><stop stop-color="#6E7A82" offset="18.68%"/><stop stop-color="#76828A" offset="100%"/></linearGradient><linearGradient id="bb" x1="-14.493%" x2="109.496%" y1=".376%" y2="99.598%"><stop stop-color="#747F86" offset="0%"/><stop stop-color="#6D7981" offset="18.68%"/><stop stop-color="#748088" offset="100%"/></linearGradient><linearGradient id="bc" x1="-14.598%" x2="109.794%" y1=".368%" y2="99.602%"><stop stop-color="#747F86" offset="0%"/><stop stop-color="#6C7880" offset="18.68%"/><stop stop-color="#727F86" offset="100%"/></linearGradient><linearGradient id="bd" x1="-14.703%" x2="110.094%" y1=".403%" y2="99.607%"><stop stop-color="#747F86" offset="0%"/><stop stop-color="#6B777F" offset="18.68%"/><stop stop-color="#707D85" offset="100%"/></linearGradient><linearGradient id="be" x1="-14.809%" x2="110.395%" y1=".351%" y2="99.568%"><stop stop-color="#747F86" offset="0%"/><stop stop-color="#6A767E" offset="18.68%"/><stop stop-color="#6E7B83" offset="100%"/></linearGradient><linearGradient id="bf" x1="-14.601%" x2="111.013%" y1=".343%" y2="99.572%"><stop stop-color="#747F86" offset="0%"/><stop stop-color="#69767D" offset="18.68%"/><stop stop-color="#6C7981" offset="100%"/></linearGradient><linearGradient id="bg" x1="-14.708%" x2="111.319%" y1=".378%" y2="99.577%"><stop stop-color="#747F86" offset="0%"/><stop stop-color="#68757C" offset="18.68%"/><stop stop-color="#6B787F" offset="100%"/></linearGradient><linearGradient id="bh" x1="-14.768%" x2="111.275%" y1=".37%" y2="99.581%"><stop stop-color="#747F86" offset="0%"/><stop stop-color="#67747B" offset="18.68%"/><stop stop-color="#69767E" offset="100%"/></linearGradient><linearGradient id="bi" x1="-14.875%" x2="111.583%" y1=".361%" y2="99.586%"><stop stop-color="#747F86" offset="0%"/><stop stop-color="#66737A" offset="18.68%"/><stop stop-color="#67747C" offset="100%"/></linearGradient><linearGradient id="bj" x1="-14.983%" x2="111.893%" y1=".353%" y2="99.59%"><stop stop-color="#747F86" offset="0%"/><stop stop-color="#657279" offset="18.68%"/><stop stop-color="#65727A" offset="100%"/></linearGradient><linearGradient id="bk" x1="-15.41%" x2="111.887%" y1=".344%" y2="99.595%"><stop stop-color="#747F86" offset="0%"/><stop stop-color="#647179" offset="18.68%"/><stop stop-color="#637079" offset="100%"/></linearGradient><linearGradient id="bl" x1="-15.201%" x2="112.519%" y1=".38%" y2="99.6%"><stop stop-color="#747F86" offset="0%"/><stop stop-color="#637078" offset="18.68%"/><stop stop-color="#616F77" offset="100%"/></linearGradient><linearGradient id="bm" x1="-15.311%" x2="112.835%" y1=".415%" y2="99.604%"><stop stop-color="#747F86" offset="0%"/><stop stop-color="#626F77" offset="18.68%"/><stop stop-color="#5F6D75" offset="100%"/></linearGradient><linearGradient id="bn" x1="-15.372%" x2="112.79%" y1=".363%" y2="99.565%"><stop stop-color="#747F86" offset="0%"/><stop stop-color="#616E76" offset="18.68%"/><stop stop-color="#5D6B73" offset="100%"/></linearGradient><linearGradient id="bo" x1="-15.162%" x2="113.43%" y1=".354%" y2="99.57%"><stop stop-color="#747F86" offset="0%"/><stop stop-color="#606D75" offset="18.68%"/><stop stop-color="#5C6971" offset="100%"/></linearGradient><linearGradient id="bp" x1="-15.272%" x2="113.751%" y1=".346%" y2="99.574%"><stop stop-color="#747F86" offset="0%"/><stop stop-color="#5F6C74" offset="18.68%"/><stop stop-color="#5A6770" offset="100%"/></linearGradient><linearGradient id="bq" x1="-15.384%" x2="114.074%" y1=".338%" y2="99.579%"><stop stop-color="#747F86" offset="0%"/><stop stop-color="#5E6B73" offset="18.68%"/><stop stop-color="#58666E" offset="100%"/></linearGradient><linearGradient id="br" x1="-15.496%" x2="114.399%" y1=".373%" y2="99.583%"><stop stop-color="#747F86" offset="0%"/><stop stop-color="#5D6A72" offset="18.68%"/><stop stop-color="#56646C" offset="100%"/></linearGradient><linearGradient id="bs" x1="50.597%" x2="50.597%" y1="100.01%" y2=".1%"><stop stop-color="#8B969D" offset=".549%"/><stop stop-color="#495861" offset="4.945%"/><stop stop-color="#FFF" offset="76.12%"/></linearGradient><linearGradient id="bt" x1="77.864%" x2="19.539%" y1="28.874%" y2="77.191%"><stop stop-color="#9DA7AD" offset="0%"/><stop stop-color="#99A3A9" offset="20.02%"/><stop stop-color="#8E989F" offset="42.91%"/><stop stop-color="#7B868D" offset="67.13%"/><stop stop-color="#68737A" offset="87.36%"/></linearGradient><linearGradient id="bu" x1="-11.358%" x2="73.611%" y1="41.752%" y2="59.684%"><stop stop-color="#7E8990" offset="0%"/><stop stop-color="#5D6A72" offset="100%"/></linearGradient><linearGradient id="bv" x1="34.571%" x2="78.146%" y1="26.814%" y2="58.154%"><stop stop-color="#859097" offset="42.31%"/><stop stop-color="#748088" offset="60.64%"/><stop stop-color="#637078" offset="84.24%"/><stop stop-color="#5D6A72" offset="100%"/></linearGradient><linearGradient id="bw" x1="16.965%" x2="64.731%" y1="58.267%" y2="23.53%"><stop stop-color="#6D7980" offset="0%"/><stop stop-color="#8B969D" offset="100%"/></linearGradient><linearGradient id="bx" x1="44.097%" x2="51.181%" y1="82.408%" y2="-24.7%"><stop stop-color="#747F86" offset="0%"/><stop stop-color="#5D6A72" offset="100%"/></linearGradient></defs><g fill="none" fill-rule="evenodd"><path fill="#000" d="M140.474 42.836V41.64h4.866v1.196m-85.77-8.45l-.436 11.996v.208c0 1.015.282 1.224 1.81 1.342v.553c-1.11-.09-1.546-.118-2.152-.118-.606 0-1.04.027-2.177.118v-.553c1.52-.118 1.742-.3 1.785-1.55l.46-11.35v-.137c0-1.06-.307-1.296-1.81-1.387v-.58c.846.072 1.18.09 1.785.09.803 0 1.238-.027 2.066-.117l4.05 11.7 4.12-11.7c.98.09 1.44.12 2.09.12.55 0 .9-.02 1.72-.09v.58c-1.47.09-1.81.33-1.81 1.36v.17l.24 11.36c.03 1.25.22 1.43 1.79 1.55v.56c-1.37-.13-1.89-.18-2.72-.18-.82 0-1.35.05-2.72.18v-.55c1.48-.09 1.81-.34 1.81-1.43v-.12l-.2-11.97-3.6 10.3-.26.76-.3.85-.28.88-.24.76h-.32l-.24-.74-.3-.9-.31-.89-.26-.8-3.55-10.24zm19.184 13.528c-1.98 0-2.852-1.614-2.877-5.222h6.488c-.042-3.563-1.417-5.458-3.987-5.458-2.612 0-4.243 2.24-4.243 5.802 0 3.563 1.63 5.64 4.44 5.64 2.134 0 3.526-1.415 3.807-3.79h-.87c-.257 1.967-1.213 3.028-2.758 3.028zm-2.835-6.056c.22-2.657 1.04-4.026 2.44-4.026 1.41 0 2.13 1.297 2.26 4.026h-4.7zm7.74-3.772v-.417c1.24-.12 1.98-.26 2.87-.54.11.85.15 1.22.19 1.92v.25c.48-1.32 1.41-2.08 2.54-2.08 1.09 0 1.89.76 1.89 1.87 0 .67-.37 1.1-.92 1.1-.51 0-.9-.33-.9-.79 0-.05.02-.14.04-.23l.04-.24v-.21c0-.33-.27-.55-.66-.55-1.14 0-1.85 1.46-1.85 3.74v4.83c0 1 .22 1.18 1.54 1.25v.46c-1.2-.12-1.66-.14-2.42-.14-.79 0-1.24.02-2.44.13V48c1.33-.072 1.57-.253 1.57-1.25V39.2c-.03-1-.13-1.108-1.27-1.135h-.27zm15.83-1.06v3.816h-.48c-.4-2.012-1.2-2.982-2.53-2.982-1.63 0-2.59 1.876-2.59 5.176 0 3.237.84 4.878 2.52 4.878 1.35 0 2.15-1.016 2.41-3.056h.89c-.28 2.475-1.52 3.817-3.48 3.817-2.53 0-4.25-2.266-4.25-5.64 0-3.444 1.74-5.8 4.31-5.8.94 0 1.52.253 2.22.97l.59-1.18h.36zm6.4 10.888c-1.98 0-2.85-1.614-2.88-5.222h6.49c-.05-3.563-1.42-5.458-3.99-5.458-2.62 0-4.25 2.24-4.25 5.802 0 3.563 1.63 5.64 4.44 5.64 2.13 0 3.52-1.415 3.8-3.79h-.87c-.26 1.967-1.21 3.028-2.76 3.028zm-2.83-6.056c.22-2.657 1.04-4.026 2.44-4.026 1.41 0 2.13 1.297 2.26 4.026h-4.71zm16.56 4.232V32.747c-1.1.31-2.07.49-3.29.635v.39c1.37 0 1.54.164 1.54 1.36v4.044c-.81-1.387-1.44-1.804-2.62-1.804-2.33 0-3.96 2.34-3.96 5.666 0 3.327 1.65 5.666 4.03 5.666 1.24 0 2.09-.598 2.7-1.894.09.88.09.97.31 1.85.9-.3 1.26-.39 2.54-.554l.32-.045v-.39c-1.46-.05-1.59-.17-1.59-1.58zm-4.09 1.96c-1.57 0-2.39-1.732-2.39-5.04 0-3.355.76-4.996 2.33-4.996 1.61 0 2.44 1.76 2.44 5.158-.01 3.22-.82 4.878-2.38 4.878zm11.11-.136c-1.98 0-2.85-1.614-2.88-5.222h6.49c-.05-3.563-1.42-5.458-3.99-5.458-2.61 0-4.25 2.24-4.25 5.802 0 3.563 1.63 5.64 4.44 5.64 2.13 0 3.52-1.415 3.8-3.79h-.87c-.25 1.967-1.22 3.028-2.76 3.028zm-2.83-6.056c.21-2.657 1.04-4.026 2.44-4.026 1.41 0 2.13 1.297 2.26 4.026h-4.71zm8.29 6.844V44.84l.48-.027c.39 2.103 1.3 3.12 2.83 3.12 1.28 0 2.24-.9 2.24-2.077 0-.79-.41-1.315-1.48-1.823l-.83-.39-1-.49c-1.59-.788-2.09-1.43-2.09-2.773 0-1.822 1.35-3.073 3.26-3.073.842 0 1.48.208 2.22.743l.37-.952h.39v3.58h-.5c-.2-1.848-.91-2.728-2.29-2.728-1.15 0-2.05.834-2.05 1.922 0 .925.322 1.224 2.302 2.15l.91.416c1.652.76 2.24 1.505 2.24 2.865 0 1.94-1.46 3.327-3.51 3.327-1 0-1.783-.28-2.61-.97l-.52 1.042h-.386zm23.49-11.93c0-1.206-.48-2.267-1.31-2.938-.75-.58-1.59-.834-3.01-.834h-5.73v.58c1.57.09 1.78.282 1.78 1.524v11.214c0 1.25-.17 1.414-1.79 1.55v.553h5.5c1.61 0 2.48-.2 3.4-.8 1.09-.74 1.81-2.15 1.81-3.61 0-1.25-.51-2.38-1.35-3.07-.46-.37-.94-.58-1.72-.74 1.57-.61 2.39-1.79 2.39-3.41zm-6.42-3.046h1.85c1.82 0 2.63.952 2.63 3.1 0 1.06-.24 1.822-.72 2.43-.48.58-1.07.76-2.29.76h-1.47v-6.29h-.01zm2.07 6.998c1.15 0 1.81.21 2.3.744.5.535.78 1.523.78 2.638 0 2.312-1.1 3.608-3.03 3.608h-.79c-1.15 0-1.35-.18-1.35-1.206v-5.775h2.07v-.01zm11.4 7.19c-1.98 0-2.85-1.614-2.88-5.222h6.49c-.04-3.563-1.42-5.458-3.99-5.458-2.61 0-4.24 2.24-4.24 5.802 0 3.563 1.63 5.64 4.44 5.64 2.13 0 3.52-1.415 3.81-3.79h-.87c-.26 1.967-1.22 3.028-2.76 3.028zm-2.83-6.056c.22-2.657 1.04-4.026 2.44-4.026 1.41 0 2.13 1.297 2.26 4.026h-4.71zm7.59-3.672v-.39c1.26-.18 2-.372 2.87-.698.11.535.17 1.133.22 2.013.78-1.25 1.67-1.8 2.93-1.8 1.305 0 2.44.72 2.876 1.85.21.55.32 1.21.32 2.08v5.55c0 1 .223 1.18 1.55 1.26v.46c-1.156-.12-1.59-.13-2.377-.13-.8 0-1.24.03-2.37.14v-.46c1.175-.04 1.46-.28 1.46-1.2V41.2c0-2.01-.567-2.82-1.96-2.82-1.475 0-2.26 1-2.26 2.89v5.6c0 .924.283 1.16 1.42 1.205v.468c-1.138-.12-1.57-.135-2.35-.135-.76 0-1.22.028-2.35.137v-.46c1.33-.074 1.544-.255 1.544-1.25v-7.5c-.02-.95-.15-1.09-1.233-1.09-.082-.01-.193-.026-.304-.026zm11.63 10.234l5.9-10.307h-2.68c-1.42 0-1.77.327-2.55 2.403h-.44l.5-3h7.48l-5.93 10.307h2.54c1.48 0 2.094-.626 2.74-2.73h.464l-.56 3.328h-7.49z"/><path fill="#2B3D47" d="M22.42 18.096V39.54l3.347-2.006-2.54-18.723s-.252-.41-.806-.71z"/><path fill="#2C3E48" d="M22.42 18.096V39.53c.025-.015 3.323-2.03 3.315-2.136 0-.008-2.515-18.583-2.515-18.583s-.253-.41-.8-.71z"/><path fill="#2D3F49" d="M22.42 18.096v21.427c.05-.033 3.3-2.047 3.284-2.27 0-.015-2.492-18.442-2.492-18.45 0 0-.253-.42-.79-.707z"/><path fill="#2E404A" d="M22.42 18.096l.01 21.42c.078-.06 3.266-2.064 3.242-2.4 0-.026-2.46-18.305-2.46-18.313-.008-.01-.26-.42-.79-.707z"/><path fill="#2F414B" d="M22.42 18.096l.01 21.42c.102-.075 3.242-2.09 3.21-2.533 0-.04-2.436-18.172-2.436-18.18 0-.01-.26-.428-.783-.707z"/><path fill="#30424C" d="M22.42 18.096l.01 21.41c.126-.09 3.21-2.104 3.17-2.663 0-.05-2.404-18.032-2.41-18.04 0-.017-.255-.428-.77-.707z"/><path fill="#31434D" d="M22.42 18.096l.01 21.402c.15-.107 3.187-2.12 3.14-2.794-.01-.058-2.38-17.893-2.38-17.91-.01-.008-.262-.427-.77-.698z"/><path fill="#32444E" d="M22.42 18.096l.01 21.394c.173-.13 3.163-2.137 3.1-2.926-.008-.066-2.357-17.753-2.357-17.77 0-.016-.253-.427-.752-.698z"/><path fill="#33454F" d="M22.42 18.096l.01 21.386c.205-.148 3.13-2.162 3.068-3.05-.008-.082-2.325-17.62-2.333-17.638 0-.024-.253-.435-.744-.698z"/><path fill="#344650" d="M22.42 18.096l.017 21.378c.23-.165 3.108-2.178 3.03-3.18-.01-.083-2.302-17.483-2.302-17.5a1.941 1.941 0 0 0-.744-.698z"/><path fill="#354751" d="M22.42 18.096l.017 21.37c.253-.18 3.085-2.195 2.998-3.313-.008-.1-2.27-17.342-2.278-17.367a1.968 1.968 0 0 0-.736-.69z"/><path fill="#364851" d="M22.42 18.096l.017 21.36c.277-.204 3.053-2.21 2.958-3.443-.008-.106-2.246-17.202-2.246-17.227a2 2 0 0 0-.73-.69z"/><path fill="#374952" d="M22.42 18.096l.017 21.353c.3-.23 3.03-2.24 2.926-3.58-.007-.12-2.214-17.07-2.222-17.1 0-.03-.25-.43-.72-.68z"/><path fill="#384A53" d="M22.42 18.096l.017 21.345c.324-.23 2.998-2.25 2.887-3.7-.008-.12-2.19-16.93-2.2-16.95 0-.03-.244-.43-.703-.68z"/><path fill="#394B54" d="M22.42 18.096l.025 21.336c.356-.254 2.974-2.268 2.855-3.838-.008-.13-2.167-16.79-2.167-16.824-.016-.025-.26-.428-.712-.674z"/><path fill="#3A4C55" d="M22.42 18.096l.025 21.328c.38-.28 2.95-2.293 2.824-3.96-.01-.14-2.14-16.653-2.15-16.686-.01-.04-.26-.444-.71-.682z"/><path fill="#3B4D56" d="M22.42 18.096l.025 21.328c.403-.296 2.918-2.31 2.784-4.093-.01-.15-2.12-16.51-2.12-16.55-.01-.04-.26-.44-.7-.68z"/><path fill="#3C4E57" d="M22.42 18.096l.025 21.32c.427-.312 2.895-2.326 2.752-4.225-.015-.16-2.08-16.38-2.088-16.42-.01-.04-.27-.44-.69-.67z"/><path fill="#3D4E58" d="M22.42 18.096l.025 21.312c.45-.33 2.863-2.343 2.713-4.356-.016-.173-2.056-16.24-2.064-16.282 0-.05-.253-.444-.673-.674z"/><path fill="#3E4F59" d="M22.42 18.096l.033 21.304c.482-.354 2.84-2.367 2.68-4.488-.023-.18-2.04-16.1-2.04-16.15-.007-.04-.26-.444-.672-.666z"/><path fill="#3F505A" d="M22.42 18.096l.033 21.295c.506-.36 2.816-2.38 2.642-4.61-.016-.19-2-15.96-2.01-16.01-.007-.05-.26-.44-.664-.66z"/><path fill="#40515B" d="M22.42 18.096l.033 21.287c.53-.386 2.784-2.4 2.61-4.75-.016-.198-1.977-15.83-1.985-15.88-.008-.04-.26-.443-.657-.657z"/><path fill="#41525B" d="M22.42 18.096l.033 21.28c.554-.404 2.76-2.417 2.57-4.875-.015-.2-1.945-15.69-1.953-15.73-.008-.06-.26-.45-.65-.66z"/><path fill="#42535C" d="M22.42 18.096l.033 21.27c.577-.427 2.73-2.44 2.54-5.005-.017-.22-1.923-15.55-1.93-15.6-.01-.05-.262-.45-.642-.65z"/><path fill="#43545D" d="M22.42 18.096l.033 21.263c.61-.45 2.705-2.46 2.5-5.14-.017-.23-1.89-15.41-1.9-15.47-.007-.06-.26-.45-.632-.66z"/><path fill="#44555E" d="M22.42 18.096l.04 21.254c.634-.46 2.682-2.474 2.468-5.268-.015-.238-1.866-15.28-1.874-15.337-.016-.057-.26-.452-.633-.65z"/><path fill="#45565F" d="M22.42 18.096l.04 21.246c.657-.477 2.65-2.5 2.43-5.4-.017-.246-1.844-15.14-1.852-15.197-.008-.057-.253-.452-.617-.65z"/><path fill="#465660" d="M22.42 18.096l.04 21.238c.68-.5 2.627-2.515 2.397-5.532-.016-.254-1.81-15-1.82-15.065-.015-.058-.26-.452-.616-.64z"/><path fill="#475761" d="M22.42 18.096l.04 21.23c.705-.518 2.595-2.532 2.366-5.663-.024-.263-1.788-14.86-1.796-14.926-.015-.066-.26-.452-.61-.64z"/><path fill="#485862" d="M22.42 18.096l.04 21.23c.736-.535 2.57-2.548 2.326-5.795-.024-.27-1.756-14.72-1.77-14.79-.01-.06-.255-.46-.595-.64z"/><path fill="#495962" d="M22.42 18.096l.05 21.22c.758-.55 2.545-2.57 2.292-5.916-.023-.288-1.732-14.59-1.74-14.655-.023-.082-.268-.468-.6-.65z"/><path fill="#495A63" d="M22.42 18.096l.05 21.213c.782-.57 2.514-2.59 2.253-6.05-.024-.3-1.708-14.45-1.716-14.53-.016-.08-.26-.47-.586-.64z"/><path fill="#4A5B64" d="M22.42 18.096l.05 21.205c.806-.59 2.49-2.6 2.22-6.18-.023-.3-1.675-14.31-1.683-14.39-.016-.07-.27-.46-.586-.63z"/><path fill="#4B5C65" d="M22.42 18.096l.05 21.197c.83-.608 2.458-2.622 2.182-6.312-.024-.31-1.653-14.17-1.66-14.25-.01-.08-.262-.47-.57-.63z"/><path fill="#4C5D66" d="M22.42 18.096l.05 21.19c.853-.626 2.435-2.648 2.15-6.445-.024-.32-1.63-14.03-1.637-14.11-.008-.08-.26-.47-.562-.63z"/><path fill="#4D5D67" d="M22.42 18.096l.05 21.18c.885-.64 2.41-2.663 2.11-6.575-.023-.32-1.597-13.89-1.605-13.98-.008-.08-.26-.46-.554-.62z"/><path fill="#4E5E67" d="M22.42 18.096l.057 21.172c.91-.666 2.38-2.68 2.08-6.707-.024-.34-1.574-13.75-1.582-13.84-.016-.07-.27-.46-.554-.61z"/><path fill="#4F5F68" d="M22.42 18.096l.057 21.164c.933-.682 2.357-2.704 2.04-6.83-.024-.354-1.542-13.62-1.558-13.71-.01-.09-.27-.476-.54-.624z"/><path fill="#506069" d="M22.42 18.096l.057 21.156c.957-.7 2.333-2.72 2.01-6.962-.025-.36-1.52-13.487-1.528-13.578-.02-.09-.27-.468-.54-.616z"/><path fill="#51616A" d="M22.42 18.096l.057 21.147c.98-.715 2.3-2.736 1.97-7.093-.033-.37-1.488-13.347-1.504-13.438-.008-.09-.26-.476-.522-.616z"/><path fill="#52626B" d="M22.42 18.096l.057 21.14c1.012-.74 2.277-2.754 1.937-7.225-.03-.37-1.463-13.2-1.47-13.3-.016-.09-.27-.47-.523-.61z"/><path fill="#53636C" d="M22.42 18.096l.065 21.14c1.036-.757 2.246-2.78 1.906-7.357-.03-.39-1.43-13.07-1.44-13.17-.02-.1-.27-.48-.52-.62z"/><path fill="#54636C" d="M22.42 18.096l.065 21.13c1.06-.772 2.222-2.793 1.866-7.487-.03-.41-1.4-12.94-1.42-13.04-.01-.1-.26-.48-.5-.61z"/><path fill="#55646D" d="M22.42 18.096l.065 21.123c1.083-.79 2.198-2.82 1.834-7.62-.04-.41-1.39-12.8-1.4-12.9-.03-.11-.27-.48-.51-.61z"/><path fill="#56656E" d="M22.42 18.096l.065 21.115c1.107-.81 2.167-2.82 1.795-7.74-.032-.42-1.352-12.65-1.368-12.76-.016-.1-.26-.48-.49-.61z"/><path fill="#57666F" d="M22.42 18.096l.065 21.106c1.14-.83 2.143-2.852 1.763-7.873-.03-.43-1.328-12.52-1.344-12.63-.016-.12-.26-.49-.483-.61z"/><path fill="#586770" d="M22.42 18.096l.065 21.098c1.162-.846 2.11-2.868 1.724-8.005-.04-.44-1.3-12.39-1.32-12.5-.02-.11-.26-.49-.48-.6z"/><path fill="#596870" d="M22.42 18.096l.073 21.09c1.186-.863 2.087-2.885 1.692-8.137-.032-.45-1.273-12.25-1.29-12.36-.023-.12-.268-.49-.474-.6z"/><path fill="#5A6971" d="M22.42 18.096l.073 21.082c1.21-.888 2.064-2.91 1.652-8.27-.03-.46-1.25-12.105-1.257-12.22-.024-.115-.27-.485-.467-.592z"/><path fill="#5B6972" d="M22.42 18.096l.073 21.073c1.233-.91 2.032-2.93 1.62-8.4-.03-.47-1.217-11.97-1.233-12.09-.016-.11-.27-.48-.46-.59z"/><path fill="#5C6A73" d="M22.42 18.096l.073 21.065c1.265-.92 2.008-2.94 1.58-8.53-.038-.47-1.193-11.83-1.21-11.95-.007-.11-.26-.48-.442-.58z"/><path fill="#5C6B74" d="M22.42 18.096l.073 21.057c1.29-.937 1.977-2.96 1.55-8.663-.04-.485-1.163-11.696-1.18-11.82-.015-.106-.268-.476-.442-.574z"/><path fill="#5D6C74" d="M22.42 18.096l.08 21.05c1.313-.963 1.954-2.985 1.51-8.787-.04-.5-1.138-11.56-1.154-11.68-.015-.13-.27-.5-.435-.59z"/><path fill="#5E6D75" d="M22.42 18.096l.08 21.05c1.337-.98 1.93-3 1.48-8.92-.04-.5-1.108-11.415-1.132-11.547-.015-.14-.268-.5-.427-.59z"/><path fill="#5F6E76" d="M22.42 18.096l.08 21.04c1.36-.994 1.9-3.016 1.448-9.05-.04-.508-1.084-11.283-1.1-11.407-.023-.14-.276-.51-.427-.59z"/><path fill="#606E77" d="M22.42 18.096l.08 21.032c1.392-1.01 1.875-3.032 1.408-9.18-.04-.526-1.06-11.145-1.075-11.277-.016-.13-.27-.49-.412-.57z"/><path fill="#616F77" d="M22.42 18.096l.08 21.024c1.416-1.027 1.843-3.057 1.377-9.312-.04-.534-1.03-11.005-1.044-11.137-.024-.13-.277-.5-.412-.57z"/><path fill="#627078" d="M22.42 18.096l.08 21.016c1.44-1.052 1.82-3.074 1.337-9.444-.04-.542-1.004-10.865-1.02-11.005-.016-.132-.26-.493-.396-.567z"/><path fill="#637179" d="M22.42 18.096l.088 21.008c1.463-1.07 1.796-3.09 1.305-9.575-.04-.56-.972-10.74-.996-10.87-.024-.14-.27-.5-.396-.57z"/><path fill="#64727A" d="M22.42 18.096l.088 21c1.487-1.085 1.764-3.116 1.266-9.7-.04-.558-.95-10.593-.965-10.733-.03-.14-.27-.5-.39-.567z"/><path fill="#65727B" d="M22.42 18.096l.088 20.99c1.51-1.1 1.74-3.13 1.234-9.83-.04-.566-.925-10.453-.94-10.593-.025-.148-.27-.51-.38-.567z"/><path fill="#66737B" d="M22.42 18.096l.088 20.983c1.543-1.13 1.717-3.15 1.195-9.97-.048-.59-.894-10.32-.918-10.47-.016-.14-.26-.5-.364-.56z"/><path fill="#67747C" d="M22.42 18.096l.088 20.975c1.566-1.14 1.685-3.16 1.163-10.09-.04-.59-.87-10.17-.88-10.32-.02-.15-.27-.51-.36-.56z"/><path fill="#68757D" d="M22.42 18.096l.096 20.967c1.59-1.16 1.66-3.19 1.123-10.225-.05-.6-.84-10.044-.87-10.19-.03-.15-.27-.503-.36-.552z"/><path fill="#69767E" d="M22.42 18.096l.096 20.958c1.614-1.175 1.63-3.205 1.092-10.356-.048-.608-.815-9.904-.83-10.05-.032-.15-.278-.51-.357-.552z"/><path fill="#6A777E" d="M22.42 18.096l.096 20.958c1.637-1.2 1.606-3.22 1.052-10.487-.047-.617-.783-9.764-.807-9.92-.02-.157-.26-.51-.34-.55z"/><path fill="#6B777F" d="M22.42 18.096l.096 20.95c1.67-1.216 1.582-3.238 1.02-10.61-.047-.625-.76-9.625-.782-9.79-.016-.156-.27-.517-.333-.55z"/><path fill="#6C7880" d="M22.42 18.096l.096 20.942c1.693-1.233 1.55-3.263.99-10.742-.05-.64-.737-9.493-.752-9.65-.024-.164-.277-.517-.333-.55z"/><path fill="#6D7981" d="M22.42 18.096l.104 20.934c1.716-1.25 1.527-3.28.95-10.874-.048-.65-.705-9.353-.728-9.518-.024-.164-.277-.517-.325-.542z"/><path fill="#6E7A81" d="M22.42 18.096l.104 20.926c1.74-1.274 1.495-3.296.918-11.006-.048-.657-.68-9.213-.704-9.378-.024-.164-.277-.517-.317-.542z"/><path fill="#6F7B82" d="M22.42 18.096l.104 20.917c1.764-1.29 1.47-3.32.878-11.136-.047-.666-.648-9.074-.672-9.247-.024-.164-.277-.51-.31-.534z"/><path fill="#707C83" d="M22.42 18.096l.104 20.91c1.795-1.308 1.447-3.338.846-11.27-.047-.673-.624-8.942-.648-9.106-.024-.164-.277-.518-.3-.534z"/><path fill="#717C84" d="M22.42 18.096l.104 20.9c1.82-1.322 1.416-3.352.807-11.4-.05-.68-.6-8.802-.61-8.974-.02-.165-.27-.51-.29-.526z"/><path fill="#727D84" d="M22.42 18.096l.104 20.893c1.843-1.35 1.392-3.37.775-11.54-.06-.69-.57-8.67-.6-8.84-.03-.18-.27-.52-.29-.53z"/><path fill="#737E85" d="M22.42 18.096l.112 20.884c1.867-1.364 1.36-3.394.736-11.654-.056-.707-.546-8.523-.57-8.704-.024-.173-.27-.518-.277-.526z"/><path fill="#747F86" d="M22.69 18.622c-.023-.18-.27-.526-.27-.526l.112 20.876c1.89-1.38 1.337-3.41.704-11.786-.063-.715-.522-8.383-.546-8.564z"/><path fill="#505F68" d="M22.422 39.31v4.01l8.327 3.477 8.33 3.477.99-.37-8.83-5.293"/><path fill="#4F5E67" d="M22.42 39.31v.147c.01.033.08 3.838.144 3.88.063.04 8.233 3.468 8.233 3.468l8.09 3.386.206.09c.008 0 .973-.36.98-.37 0 0-2.728-1.63-2.775-1.67-.048-.03-5.995-3.59-6.05-3.63-.12-.06-8.827-5.29-8.827-5.29z"/><path fill="#4E5D66" d="M22.42 39.31v.155c.017.066.152 3.822.278 3.913.127.09 8.138 3.452 8.138 3.452l8.05 3.36s.2.083.207.083c.008 0 .965-.353.98-.37 0 0-2.688-1.61-2.775-1.668-.087-.057-5.932-3.56-6.05-3.633-.238-.14-8.827-5.293-8.827-5.293z"/><path fill="#4D5C65" d="M22.42 39.31v.155c.025.1.23 3.806.42 3.937.198.132 8.044 3.444 8.044 3.444l8.01 3.345s.2.09.207.08c.02 0 .95-.34.98-.37 0 0-2.64-1.58-2.77-1.67-.13-.08-5.87-3.52-6.05-3.63-.36-.19-8.82-5.28-8.82-5.28z"/><path fill="#4C5C64" d="M22.42 39.31v.164c.033.13.302 3.78.563 3.96.26.182 7.94 3.43 7.94 3.43l7.98 3.327s.19.08.206.08l.97-.36s-2.6-1.56-2.78-1.67c-.18-.1-5.82-3.48-6.05-3.63-.49-.28-8.84-5.29-8.84-5.29z"/><path fill="#4B5B64" d="M22.42 39.31v.164c.04.164.38 3.764.705 3.994.325.23 7.846 3.41 7.846 3.41l7.94 3.32s.19.075.21.075c.03-.008.92-.337.97-.36 0 0-2.55-1.53-2.77-1.67-.22-.13-5.76-3.452-6.05-3.633-.61-.36-8.83-5.3-8.83-5.3z"/><path fill="#4A5A63" d="M22.42 39.31v.172c.05.197.452 3.748.84 4.02.387.27 7.75 3.402 7.75 3.402l7.91 3.295s.18.07.197.06c.03-.01.91-.33.957-.36l-2.776-1.67-6.05-3.64c-.72-.43-8.827-5.3-8.827-5.3z"/><path fill="#495962" d="M22.42 39.31v.172c.057.23.53 3.73.982 4.044.45.312 7.648 3.386 7.648 3.386l7.87 3.28s.18.065.197.065c.03-.008.893-.32.957-.362 0 0-2.46-1.48-2.776-1.668-.317-.19-5.64-3.386-6.058-3.633-.83-.485-8.82-5.285-8.82-5.285z"/><path fill="#485861" d="M22.42 39.31v.18c.065.263.602 3.715 1.124 4.068.522.354 7.553 3.378 7.553 3.378l7.83 3.272s.174.065.198.057c.04-.008.878-.312.95-.36l-2.777-1.67-6.058-3.633c-.95-.567-8.82-5.293-8.82-5.293z"/><path fill="#475760" d="M22.42 39.31v.18c.073.296.682 3.7 1.26 4.1.576.404 7.457 3.363 7.457 3.363l7.79 3.255s.174.065.198.057c.047-.008.87-.312.94-.36 0 0-2.372-1.423-2.775-1.67a3653.53 3653.53 0 0 0-6.05-3.625c-1.068-.65-8.82-5.3-8.82-5.3z"/><path fill="#46565F" d="M22.42 39.31v.18c.08.33.753 3.674 1.4 4.126.65.452 7.356 3.353 7.356 3.353l7.76 3.23s.165.05.197.05c.047-.01.854-.31.94-.36 0 0-2.324-1.4-2.775-1.67l-6.058-3.64c-1.187-.71-8.82-5.3-8.82-5.3z"/><path fill="#45555E" d="M22.42 39.31v.188c.088.362.832 3.658 1.544 4.15.71.494 7.26 3.338 7.26 3.338l7.72 3.222s.165.057.197.05c.06-.01.84-.297.94-.363l-2.77-1.668c-.49-.296-5.4-3.238-6.06-3.633-1.3-.773-8.82-5.285-8.82-5.285z"/><path fill="#44555E" d="M22.42 39.31v.188c.096.403.903 3.64 1.686 4.176.783.534 7.165 3.328 7.165 3.328l7.68 3.206s.16.057.2.05c.07-.017.83-.29.94-.363 0 0-2.24-1.34-2.77-1.668-.54-.32-5.34-3.206-6.06-3.633-1.44-.847-8.82-5.285-8.82-5.285z"/><path fill="#43545D" d="M22.42 39.31v.196c.104.436.982 3.625 1.82 4.21.847.582 7.07 3.31 7.07 3.31l7.65 3.19s.157.057.196.05c.064-.017.815-.288.926-.362 0 0-2.19-1.315-2.776-1.67-.586-.352-5.29-3.163-6.066-3.632-1.55-.928-8.82-5.293-8.82-5.293z"/><path fill="#42535C" d="M22.42 39.31v.196c.12.47 1.053 3.61 1.963 4.233.91.62 6.967 3.3 6.967 3.3l7.61 3.17s.15.05.196.04c.072-.02.8-.28.918-.35-.008 0-2.15-1.29-2.776-1.67-.625-.38-5.22-3.13-6.058-3.63-1.67-1-8.82-5.3-8.82-5.3z"/><path fill="#41525B" d="M22.42 39.31v.205c.128.5 1.132 3.59 2.105 4.257.973.666 6.873 3.288 6.873 3.288l7.57 3.156s.15.05.196.04c.07-.015.783-.27.918-.352-.008 0-2.104-1.266-2.776-1.67-.673-.402-5.165-3.097-6.058-3.632-1.796-1.068-8.827-5.293-8.827-5.293z"/><path fill="#40515A" d="M22.42 39.31v.205c.136.534 1.204 3.567 2.24 4.29 1.036.715 6.777 3.27 6.777 3.27l7.537 3.14s.143.05.198.034c.08-.02.775-.27.91-.36-.008 0-2.057-1.24-2.776-1.67a698.98 698.98 0 0 1-6.066-3.63c-1.906-1.14-8.82-5.3-8.82-5.3z"/><path fill="#3F5059" d="M22.42 39.31v.213c.144.567 1.283 3.55 2.382 4.315 1.107.764 6.675 3.263 6.675 3.263l7.497 3.14s.143.04.198.04c.087-.01.76-.25.91-.35-.008 0-2.017-1.21-2.776-1.67-.76-.46-5.046-3.02-6.058-3.63l-8.827-5.3z"/><path fill="#3E4F58" d="M22.42 39.31v.213c.152.6 1.354 3.534 2.524 4.34 1.17.805 6.58 3.246 6.58 3.246l7.458 3.11s.143.04.19.03c.087-.02.744-.26.902-.36-.008 0-1.97-1.19-2.776-1.67L31.24 44.6c-2.144-1.28-8.82-5.293-8.82-5.293z"/><path fill="#3D4E58" d="M22.42 39.31v.22c.16.634 1.433 3.52 2.667 4.365 1.233.847 6.485 3.24 6.485 3.24l7.418 3.097s.135.04.19.025c.095-.016.736-.247.894-.353-.008 0-1.922-1.16-2.776-1.67-.854-.508-4.927-2.958-6.058-3.632-2.262-1.356-8.82-5.293-8.82-5.293z"/><path fill="#3C4D57" d="M22.42 39.31v.22c.167.667 1.504 3.502 2.8 4.398 1.298.896 6.383 3.222 6.383 3.222l7.387 3.082s.135.04.19.025c.103-.025.72-.238.894-.353-.008 0-1.883-1.126-2.776-1.67-.894-.533-4.872-2.917-6.058-3.632-2.39-1.43-8.82-5.293-8.82-5.293z"/><path fill="#3B4C56" d="M22.42 39.31v.22c.175.7 1.583 3.478 2.943 4.423 1.36.937 6.288 3.214 6.288 3.214L39 50.232s.127.033.19.025c.103-.025.704-.23.886-.353-.008 0-1.835-1.102-2.776-1.67-.94-.566-4.81-2.884-6.058-3.632-2.507-1.496-8.82-5.293-8.82-5.293z"/><path fill="#3A4C55" d="M22.42 39.31v.23c.183.73 1.654 3.46 3.086 4.446 1.43.986 6.192 3.197 6.192 3.197l7.308 3.05s.127.032.19.016c.11-.03.688-.23.878-.36-.008 0-1.796-1.08-2.776-1.67-.98-.59-4.753-2.84-6.058-3.63-2.626-1.57-8.82-5.3-8.82-5.3z"/><path fill="#394B54" d="M22.42 39.31v.23c.19.764 1.733 3.443 3.228 4.47 1.495 1.028 6.09 3.19 6.09 3.19l7.276 3.032s.12.033.19.017c.118-.03.68-.23.878-.36-.008-.01-1.748-1.05-2.776-1.67-1.028-.62-4.69-2.81-6.058-3.64-2.753-1.63-8.828-5.28-8.828-5.28z"/><path fill="#384A53" d="M22.42 39.31v.238c.2.797 1.805 3.427 3.363 4.504 1.558 1.076 5.994 3.172 5.994 3.172l7.237 3.017s.12.03.19.02c.118-.02.664-.21.87-.34-.008-.01-1.7-1.02-2.776-1.67-1.076-.65-4.635-2.77-6.058-3.64l-8.82-5.29z"/><path fill="#374952" d="M22.42 39.31v.238c.207.83 1.884 3.41 3.505 4.528 1.62 1.118 5.9 3.165 5.9 3.165l7.197 3s.11.03.19.01c.126-.02.648-.2.87-.34-.008-.01-1.66-.99-2.776-1.67-1.115-.67-4.572-2.74-6.066-3.64-2.982-1.77-8.82-5.28-8.82-5.28z"/><path fill="#364851" d="M22.42 39.31v.246c.215.863 1.955 3.394 3.647 4.553 1.685 1.16 5.797 3.14 5.797 3.14l7.166 2.98s.11.02.19.01c.126-.03.64-.2.862-.35-.008-.01-1.614-.97-2.776-1.67l-6.066-3.64c-3.1-1.85-8.82-5.29-8.82-5.29z"/><path fill="#354750" d="M22.42 39.31v.246c.223.896 2.034 3.37 3.782 4.586 1.756 1.208 5.702 3.13 5.702 3.13l7.126 2.977s.103.01.19 0c.134-.03.624-.19.854-.35-.008-.01-1.566-.94-2.776-1.67-1.21-.72-4.453-2.67-6.066-3.64l-8.81-5.29z"/><path fill="#34464F" d="M22.42 39.31v.254c.23.93 2.105 3.353 3.924 4.61 1.82 1.258 5.607 3.124 5.607 3.124l7.09 2.96s.11.015.19 0c.14-.034.61-.19.86-.346-.01-.008-1.52-.913-2.77-1.67-1.26-.755-4.4-2.637-6.06-3.64l-8.82-5.293z"/><path fill="#33454E" d="M22.42 39.31v.254c.24.962 2.184 3.337 4.066 4.636 1.883 1.298 5.505 3.106 5.505 3.106l7.05 2.943s.1.01.19 0c.14-.04.6-.19.85-.35-.01-.01-1.48-.89-2.77-1.67-1.29-.78-4.33-2.61-6.06-3.64-3.45-2.07-8.81-5.29-8.81-5.29z"/><path fill="#32444E" d="M22.42 39.31v.262c.247.995 2.255 3.32 4.21 4.66 1.944 1.348 5.408 3.1 5.408 3.1l7.016 2.925s.094.016.18-.008c.152-.04.587-.18.848-.35-.008-.01-1.432-.87-2.776-1.67-1.345-.81-4.28-2.57-6.066-3.64-3.583-2.14-8.82-5.29-8.82-5.29z"/><path fill="#31434D" d="M22.42 39.31v.262c.254 1.028 2.334 3.304 4.343 4.693 2.017 1.39 5.315 3.082 5.315 3.082l6.976 2.91s.087.008.18-.008c.16-.04.57-.17.84-.35-.008-.01-1.392-.83-2.776-1.67-1.392-.83-4.216-2.53-6.066-3.64-3.694-2.21-8.81-5.29-8.81-5.29z"/><path fill="#30424C" d="M22.42 39.31v.262c.262 1.06 2.406 3.288 4.486 4.718 2.08 1.43 5.22 3.074 5.22 3.074l6.935 2.893s.09.008.19-.008c.16-.04.56-.17.83-.35 0-.01-1.34-.81-2.77-1.67l-6.06-3.64c-3.81-2.28-8.81-5.29-8.81-5.29z"/><path fill="#2F414B" d="M22.42 39.31v.27c.27 1.094 2.485 3.263 4.628 4.743 2.143 1.48 5.117 3.057 5.117 3.057l6.904 2.877s.08.008.18-.016c.16-.03.54-.15.83-.34-.01-.01-1.3-.78-2.78-1.67l-6.07-3.64c-3.94-2.34-8.82-5.28-8.82-5.28z"/><path fill="#2E404A" d="M22.42 39.31v.27c.278 1.126 2.556 3.247 4.762 4.767 2.207 1.52 5.023 3.05 5.023 3.05l6.864 2.86s.07 0 .18-.016c.16-.03.53-.14.82-.33-.01-.01-1.26-.75-2.78-1.67-1.52-.91-4.04-2.42-6.07-3.64-4.05-2.42-8.81-5.28-8.81-5.28z"/><path fill="#2D3F49" d="M22.42 39.31v.28c.286 1.158 2.635 3.23 4.905 4.8 2.27 1.568 4.927 3.03 4.927 3.03l6.825 2.845s.08 0 .182-.024c.17-.03.51-.14.81-.33-.01-.01-1.21-.72-2.78-1.67-1.57-.93-3.98-2.39-6.07-3.64l-8.81-5.28z"/><path fill="#2C3E48" d="M22.42 39.31v.28c.294 1.2 2.706 3.212 5.047 4.823 2.34 1.61 4.825 3.017 4.825 3.017l6.793 2.827s.07 0 .182-.025c.182-.04.506-.13.815-.337-.008-.008-1.163-.698-2.776-1.668-1.614-.97-3.93-2.343-6.074-3.625-4.287-2.572-8.81-5.293-8.81-5.293z"/><path fill="#2B3D47" d="M22.42 39.31v.287c.302 1.233 2.785 3.197 5.19 4.85a79.865 79.865 0 0 0 4.73 3.007l6.753 2.82s.475-.025.99-.362c-.01-.008-1.124-.674-2.777-1.67-1.66-.993-3.86-2.316-6.066-3.64-4.42-2.646-8.82-5.293-8.82-5.293z"/><path fill="#000" d="M5.75 50.273s-.483-.024-1.005-.37L22.413 39.3v4.02L5.75 50.274z"/><path fill="#000203" d="M4.745 49.904L22.413 39.3c0 .034-.007 3.987-.15 4.06-.04.018-16.53 6.905-16.53 6.905s-.474-.024-.988-.36z"/><path fill="#010406" d="M4.745 49.904l17.66-10.595c0 .05-.015 3.94-.292 4.1-.07.04-16.387 6.86-16.387 6.86s-.475-.04-.98-.37z"/><path fill="#02070A" d="M4.745 49.904L22.398 39.31c0 .09-.024 3.91-.443 4.142-.11.057-16.253 6.813-16.253 6.813s-.458-.033-.957-.36z"/><path fill="#030A0E" d="M4.745 49.904l17.653-10.587c0 .115-.032 3.88-.586 4.184-.15.09-16.11 6.77-16.11 6.77s-.466-.04-.957-.36z"/><path fill="#040D11" d="M4.745 49.904L22.39 39.317c.008.148-.04 3.847-.736 4.225-.182.1-15.976 6.715-15.976 6.715s-.45-.04-.933-.353z"/><path fill="#050F13" d="M4.745 49.904L22.39 39.317c.008.18-.048 3.814-.878 4.266-.222.115-15.834 6.666-15.834 6.666s-.458-.04-.933-.35z"/><path fill="#061116" d="M4.745 49.904l17.637-10.578c.008.205-.048 3.772-1.028 4.298-.253.14-15.7 6.617-15.7 6.617s-.442-.03-.91-.33z"/><path fill="#071318" d="M4.745 49.904l17.637-10.578c.008.238-.056 3.74-1.17 4.34-.293.155-15.557 6.566-15.557 6.566s-.45-.033-.91-.328z"/><path fill="#08151B" d="M4.745 49.904l17.63-10.57c.007.263-.064 3.707-1.322 4.38-.332.18-15.422 6.518-15.422 6.518s-.43-.033-.88-.328z"/><path fill="#09171D" d="M4.745 49.904c.048-.033 17.62-10.57 17.62-10.57.01.296-.07 3.674-1.47 4.422-.364.197-15.28 6.468-15.28 6.468s-.427-.033-.87-.32z"/><path fill="#0B191F" d="M4.745 49.904c.048-.033 17.62-10.57 17.62-10.57.01.33-.078 3.633-1.612 4.463-.404.222-15.146 6.427-15.146 6.427s-.427-.04-.862-.32z"/><path fill="#0C1B21" d="M4.745 49.904c.048-.033 17.613-10.562 17.613-10.562.008.354-.087 3.6-1.764 4.504-.442.238-15.002 6.378-15.002 6.378s-.42-.04-.847-.32z"/><path fill="#0D1D23" d="M4.745 49.904c.048-.033 17.613-10.562 17.613-10.562.016.386-.095 3.567-1.906 4.545-.474.255-14.868 6.33-14.868 6.33s-.42-.042-.84-.313z"/><path fill="#0E1F25" d="M4.745 49.904c.048-.033 17.605-10.562 17.605-10.562.016.42-.103 3.534-2.056 4.586-.514.28-14.726 6.28-14.726 6.28s-.41-.04-.823-.304z"/><path fill="#0F2027" d="M4.745 49.904c.048-.025 17.597-10.554 17.597-10.554.016.444-.11 3.502-2.198 4.628-.554.296-14.592 6.23-14.592 6.23s-.403-.04-.807-.304z"/><path fill="#102229" d="M4.745 49.904c.048-.025 17.597-10.554 17.597-10.554.016.477-.118 3.46-2.35 4.67-.584.32-14.448 6.18-14.448 6.18s-.403-.042-.8-.296z"/><path fill="#12232B" d="M4.745 49.904c.048-.025 17.59-10.545 17.59-10.545.015.5-.127 3.42-2.492 4.7-.625.33-14.315 6.12-14.315 6.12s-.395-.04-.783-.29z"/><path fill="#13252D" d="M4.745 49.904l17.58-10.545c.017.53-.125 3.39-2.64 4.75-.664.35-14.173 6.08-14.173 6.08s-.387-.04-.767-.29z"/><path fill="#14262E" d="M4.745 49.904l17.58-10.537c.017.567-.133 3.36-2.79 4.79-.696.38-14.03 6.034-14.03 6.034s-.388-.04-.76-.28z"/><path fill="#152830" d="M4.745 49.904L22.32 39.367c.014.592-.144 3.32-2.936 4.833-.735.394-13.895 5.99-13.895 5.99s-.38-.056-.75-.286z"/><path fill="#162932" d="M4.745 49.904L22.32 39.367c.022.624-.152 3.287-3.086 4.865-.767.42-13.753 5.943-13.753 5.943s-.38-.04-.73-.27z"/><path fill="#172B33" d="M4.745 49.904l17.566-10.53c.03.65-.15 3.256-3.22 4.908-.8.435-13.62 5.893-13.62 5.893s-.37-.05-.72-.27z"/><path fill="#182C35" d="M4.745 49.904l17.558-10.53c.023.683-.166 3.223-3.377 4.95-.847.45-13.477 5.843-13.477 5.843s-.37-.05-.71-.263z"/><path fill="#192E37" d="M4.745 49.904l17.558-10.52c.023.714-.174 3.18-3.52 4.988-.878.477-13.342 5.795-13.342 5.795s-.36-.05-.69-.263z"/><path fill="#1A2F38" d="M4.745 49.904l17.55-10.52c.024.74-.182 3.147-3.67 5.03-.917.492-13.2 5.744-13.2 5.744s-.355-.05-.68-.254z"/><path fill="#1B303A" d="M4.745 49.904c.032-.025 17.542-10.52 17.542-10.52.024.772-.19 3.114-3.812 5.07-.957.518-13.065 5.696-13.065 5.696s-.348-.04-.665-.246z"/><path fill="#1C323B" d="M4.745 49.904c.032-.025 17.542-10.513 17.542-10.513.024.8-.198 3.09-3.962 5.12-.99.54-12.923 5.65-12.923 5.65s-.348-.05-.657-.24z"/><path fill="#1D333D" d="M4.745 49.904C4.777 49.88 22.28 39.39 22.28 39.39c.023.832-.207 3.05-4.114 5.155-1.028.55-12.788 5.597-12.788 5.597s-.332-.05-.633-.238z"/><path fill="#1E343E" d="M4.745 49.904C4.777 49.887 22.28 39.4 22.28 39.4c.03.863-.215 3.008-4.256 5.194-1.068.575-12.646 5.548-12.646 5.548s-.34-.05-.633-.238z"/><path fill="#1F3540" d="M4.745 49.904C4.777 49.887 22.27 39.4 22.27 39.4c.033.887-.212 2.975-4.404 5.235-1.1.592-12.512 5.507-12.512 5.507s-.324-.058-.61-.238z"/><path fill="#213741" d="M4.745 49.904C4.777 49.887 22.263 39.4 22.263 39.4c.032.92-.22 2.942-4.547 5.276-1.14.617-12.37 5.458-12.37 5.458s-.332-.058-.6-.23z"/><path fill="#223742" d="M4.745 49.904c.032-.017 17.518-10.496 17.518-10.496.032.953-.23 2.91-4.698 5.318-1.178.632-12.234 5.408-12.234 5.408s-.32-.058-.58-.23z"/><path fill="#233843" d="M4.745 49.904c.032-.017 17.51-10.496 17.51-10.496.032.978-.237 2.868-4.84 5.36-1.21.656-12.092 5.357-12.092 5.357s-.325-.057-.578-.22z"/><path fill="#243943" d="M4.745 49.904c.032-.017 17.51-10.488 17.51-10.488.032 1.01-.245 2.836-4.99 5.4-1.25.674-11.958 5.31-11.958 5.31s-.317-.066-.562-.222z"/><path fill="#253A44" d="M4.745 49.904c.024-.017 17.502-10.488 17.502-10.488.032 1.036-.253 2.803-5.132 5.44-1.29.69-11.816 5.253-11.816 5.253s-.32-.05-.56-.21z"/><path fill="#263B45" d="M4.745 49.904c.024-.017 17.494-10.488 17.494-10.488.03 1.07-.27 2.77-5.29 5.474-1.31.715-11.68 5.22-11.68 5.22s-.31-.058-.54-.206z"/><path fill="#273C46" d="M4.745 49.904c.024-.017 17.494-10.48 17.494-10.48.04 1.102-.27 2.737-5.44 5.515-1.36.73-11.54 5.16-11.54 5.16s-.3-.06-.52-.2z"/><path fill="#283D47" d="M4.745 49.904c.024-.017 17.494-10.48 17.494-10.48.04 1.126-.28 2.696-5.58 5.556-1.39.757-11.41 5.113-11.41 5.113s-.3-.05-.52-.19z"/><path fill="#293D47" d="M4.745 49.904c.024-.017 17.487-10.48 17.487-10.48.04 1.16-.285 2.663-5.726 5.597-1.432.78-11.262 5.08-11.262 5.08s-.293-.05-.5-.19z"/><path fill="#2A3E48" d="M4.745 49.904c.024-.017 17.48-10.472 17.48-10.472.038 1.184-.294 2.63-5.87 5.64-1.47.788-11.127 5.02-11.127 5.02s-.285-.065-.483-.188z"/><path fill="#2B3F49" d="M4.745 49.904c.024-.017 17.48-10.472 17.48-10.472.038 1.217-.294 2.598-6.02 5.68-1.503.814-10.985 4.972-10.985 4.972s-.285-.057-.475-.18z"/><path fill="#2D404A" d="M4.745 49.904c.024-.017 17.47-10.463 17.47-10.463.04 1.25-.3 2.56-6.16 5.72-1.542.83-10.85 4.93-10.85 4.93s-.278-.06-.46-.18z"/><path fill="#2E414B" d="M4.745 49.904L22.208 39.44c.04 1.275-.31 2.524-6.31 5.762-1.583.855-10.71 4.874-10.71 4.874s-.27-.066-.443-.172z"/><path fill="#2F424B" d="M4.745 49.904L22.2 39.45c.04 1.306-.316 2.49-6.454 5.802-1.613.87-10.566 4.824-10.566 4.824s-.27-.066-.435-.172z"/><path fill="#30424C" d="M4.745 49.904L22.2 39.45c.04 1.33-.324 2.456-6.604 5.843-1.653.887-10.432 4.775-10.432 4.775s-.26-.066-.42-.164z"/><path fill="#31434D" d="M4.745 49.904L22.192 39.45c.047 1.363-.332 2.415-6.754 5.884-1.677.912-10.28 4.726-10.28 4.726s-.262-.066-.413-.156z"/><path fill="#32444E" d="M4.745 49.904l17.447-10.447c.047 1.397-.34 2.384-6.896 5.926-1.725.92-10.155 4.677-10.155 4.677s-.25-.066-.39-.156z"/><path fill="#33454E" d="M4.745 49.904l17.44-10.447c.047 1.422-.35 2.35-7.048 5.967-1.763.954-10.012 4.636-10.012 4.636s-.245-.074-.38-.156z"/><path fill="#34464F" d="M4.745 49.904l17.43-10.44c.05 1.456-.355 2.32-7.188 6.01-1.795.97-9.878 4.586-9.878 4.586s-.24-.082-.37-.156z"/><path fill="#354650" d="M4.745 49.904l17.43-10.44c.05 1.48-.363 2.286-7.338 6.05-1.835.987-9.736 4.538-9.736 4.538s-.23-.074-.35-.148z"/><path fill="#364751" d="M4.745 49.904l17.423-10.44c.048 1.514-.37 2.245-7.48 6.083-1.876 1.01-9.603 4.488-9.603 4.488s-.23-.066-.34-.13z"/><path fill="#374851" d="M4.745 49.904c.008-.01 17.423-10.43 17.423-10.43.048 1.545-.38 2.21-7.632 6.123-1.906 1.027-9.46 4.438-9.46 4.438s-.228-.066-.33-.13z"/><path fill="#384952" d="M4.745 49.904c.008-.01 17.415-10.43 17.415-10.43.048 1.57-.38 2.178-7.774 6.164-1.946 1.052-9.324 4.39-9.324 4.39s-.222-.067-.317-.124z"/><path fill="#394A53" d="M4.745 49.904c.008-.01 17.407-10.422 17.407-10.422.056 1.603-.387 2.145-7.924 6.205-1.977 1.07-9.182 4.34-9.182 4.34s-.214-.074-.3-.123z"/><path fill="#3A4B54" d="M4.745 49.904c.008-.01 17.407-10.422 17.407-10.422.056 1.635-.395 2.104-8.074 6.246-2.017 1.093-9.048 4.29-9.048 4.29s-.206-.065-.285-.114z"/><path fill="#3B4B54" d="M4.745 49.904c.008-.01 17.4-10.422 17.4-10.422.055 1.66-.404 2.07-8.218 6.287-2.056 1.11-8.905 4.24-8.905 4.24s-.206-.07-.277-.11z"/><path fill="#3C4C55" d="M4.745 49.904c.008 0 17.4-10.414 17.4-10.414.055 1.693-.412 2.038-8.368 6.33-2.096 1.125-8.77 4.19-8.77 4.19s-.198-.074-.262-.106z"/><path fill="#3D4D56" d="M4.745 49.904c.008 0 17.392-10.414 17.392-10.414.055 1.718-.42 2.005-8.51 6.37-2.128 1.15-8.63 4.15-8.63 4.15s-.196-.074-.252-.106z"/><path fill="#3E4E57" d="M4.745 49.904c.008 0 17.384-10.406 17.384-10.406.05 1.75-.43 1.973-8.66 6.41-2.16 1.16-8.49 4.094-8.49 4.094s-.19-.074-.24-.098z"/><path fill="#3F4F57" d="M4.745 49.904L22.13 39.498c.054 1.784-.436 1.932-8.804 6.452-2.198 1.192-8.35 4.052-8.35 4.052s-.2-.082-.23-.098z"/><path fill="#404F58" d="M4.745 49.904L22.12 39.498c.056 1.808-.442 1.9-8.952 6.493C10.93 47.2 4.95 50 4.95 50s-.18-.074-.2-.09z"/><path fill="#415059" d="M4.745 49.904L22.12 39.506c.064 1.842-.45 1.866-9.094 6.535C10.748 47.27 4.95 50 4.95 50s-.19-.082-.2-.09z"/><path fill="#42515A" d="M4.745 49.904l17.368-10.398c.063 1.866-.46 1.833-9.245 6.576-2.31 1.25-7.94 3.904-7.94 3.904s-.175-.082-.183-.082z"/><path fill="#43525A" d="M4.745 49.904l.174.074s5.44-2.59 7.79-3.855c8.93-4.817 9.45-4.718 9.39-6.617L4.74 49.904z"/><path fill="url(#a)" d="M.08 31.85c.19-.116 17.667-10.604 17.667-10.604l-3.345-2.013L.252 30.83s-.212.394-.173 1.02z" transform="translate(4.666 18.055)"/><path fill="url(#b)" d="M35.423 31.85L17.755 21.245 21.1 19.24l14.157 11.623c0-.01.198.345.166.986z" transform="translate(4.666 18.055)"/><path fill="url(#c)" d="M17.296.362c.27-.23.46-.32.46-.32v21.204L14.4 19.233 16.948.756s.135-.214.348-.394z" transform="translate(4.666 18.055)"/><path fill="url(#d)" d="M22.217 2.112l-.01.017s-.085 20.53-.09 20.65c0 .11-.02.14-.06.16l.11.12.05-20.96z" transform="translate(0 16)"/><path fill="url(#e)" d="M4.745 33.87L22.152 23.3l-.213-.14c.02.083.01.116-.08.174-.95.592-17.12 10.496-17.12 10.496v.04z" transform="translate(0 16)"/><path fill="url(#f)" d="M40.09 33.83s-16.182-9.913-17.14-10.496c-.094-.058-.078-.1-.054-.18l-.214.14L40.09 33.87v-.04z" transform="translate(0 16)"/><path fill="url(#g)" d="M42.146 23.3c0 11.327-8.834 20.5-19.725 20.5-10.89 0-19.73-9.18-19.73-20.5 0-11.317 8.84-20.506 19.73-20.506 10.9 0 19.73 9.18 19.73 20.507zM22.42 0C10.037 0 0 10.43 0 23.3c0 12.864 10.036 23.294 22.42 23.294 12.387 0 22.415-10.43 22.415-23.293C44.835 10.43 34.8 0 22.42 0z" transform="translate(0 16)"/><path fill="url(#h)" d="M44.835 23.3c0 12.872-10.036 23.302-22.422 23.302C10.028 46.602 0 36.164 0 23.302 0 10.43 10.036 0 22.42 0c12.387 0 22.415 10.43 22.415 23.3zM22.42 1.398c-11.64 0-21.076 9.806-21.076 21.904 0 12.1 9.436 21.905 21.077 21.905C34.07 45.205 43.5 35.4 43.5 23.3c-.01-12.096-9.445-21.902-21.08-21.902z" transform="translate(0 16)"/><path fill="url(#i)" d="M19.97 45.37c12.02 0 21.772-10.135 21.772-22.628 0-12.5-9.75-22.627-21.772-22.627V0c12.377 0 22.413 10.43 22.413 23.3 0 12.872-10.036 23.302-22.42 23.302V45.37h.007z" transform="translate(2.452 16)"/><path fill="url(#j)" d="M.57 19.52a21.107 21.107 0 0 0-.334 3.78c0 11.327 8.834 20.5 19.725 20.5v1.224c-10.49 0-20.59-9.51-19.93-20.712.11-1.644.19-3.255.54-4.792z" transform="translate(2.452 16)"/><path fill="url(#k)" d="M22.303 1.225c-10.74 0-19.764 8.317-21.07 19.34-.047.385-.055.583-.094.854-.08.51-.12.78-.46 1.14-.33.33-.59.73-.56 2.01.02 1.55.59 5.14 2.38 8.71 1.68 3.38 6.11 8.7 12.51 10.66C4.07 38.87 1.34 29.81 1.34 23.3c0-12.1 9.437-21.905 21.078-21.905v-.172H22.3z" transform="translate(0 16)"/><path fill="url(#l)" d="M21.243 1.43l1.178-.033c11.65 0 21.08 9.806 21.08 21.903 0 12.1-9.44 21.897-21.07 21.897h-.11v-.173c11.55 0 20.91-9.542 20.91-21.542 0-.93-.29-1.44-.59-1.75-.27-.29-.48-.823-.57-1.398C40.78 9.592 31.92 1.57 21.25 1.57v-.14z" transform="translate(0 16)"/><g stroke-width=".5" transform="translate(1.265 17.315)"><ellipse cx="21.156" cy="21.986" stroke="#747F86" rx="21.077" ry="21.904"/><ellipse cx="21.196" cy="22.027" stroke="#495861" rx="21.077" ry="21.904"/><ellipse cx="21.116" cy="21.945" stroke="#9DA7AD" rx="21.077" ry="21.904"/><ellipse cx="21.156" cy="21.986" stroke="#FFF" rx="21.077" ry="21.904"/></g><path fill="url(#m)" d="M44.835 23.3c0 12.872-10.036 23.302-22.422 23.302C10.036 46.594 0 36.164 0 23.302 0 10.43 10.036 0 22.42 0 34.8 0 44.836 10.43 44.836 23.3zM22.42.14C10.108.14.135 10.504.135 23.3c0 12.79 9.98 23.162 22.287 23.162 12.307 0 22.288-10.372 22.288-23.16C44.708 10.502 34.728.14 22.42.14z" transform="translate(0 16)"/><path fill="url(#n)" d="M42.146 23.3c0 11.327-8.834 20.5-19.725 20.5-10.89 0-19.73-9.18-19.73-20.5 0-11.325 8.84-20.506 19.73-20.506 10.9 0 19.73 9.18 19.73 20.507zM22.42 2.664C11.453 2.664 2.563 11.9 2.563 23.3c0 11.4 8.89 20.64 19.86 20.64 10.97 0 19.858-9.24 19.858-20.64S33.39 2.664 22.42 2.664z" transform="translate(0 16)"/><path fill="url(#o)" d="M39.9 32.835s.095.18.142.41c-.063-.04-13.96-10.528-14.022-10.577-.514-.394-.65-.485-1.14-.32-.545.18-1.502.632-1.976.805-.143.05-.024-.074-.024-.074l2.35-1.51.49-.29L39.9 32.83zm-34.957 0s-.095.164-.142.41c.04-.024 14.32-10.807 14.8-11.152.26-.19.39-.165.67-.05l-.27-.238-.91-.493L4.95 32.835zm15.47-10.882c-.404-.32-.388-.674-.348-1.027.047-.42.22-1.472 1.834-18.452 0 0-.08.074-.16.164-.07.074-.14.18-.14.18l-2.53 18.47 1.33.665z" transform="translate(0 16)"/><path fill="url(#p)" d="M16.885.033L8.502 3.625l-4.184 1.8-4.19 1.8.086.008L8.55 3.756 16.884.28" transform="translate(5.536 43.04)"/><path fill="url(#q)" d="M16.885.033L8.51 3.625l-4.192 1.8-3.954 1.7s-.23.1-.237.1l.087.008L8.55 3.748 16.876.27l.008-.188v-.05z" transform="translate(5.536 43.04)"/><path fill="url(#r)" d="M16.885.033L8.518 3.625l-4.192 1.8-3.962 1.7s-.23.1-.237.1l.087.008L8.55 3.748 16.87.263l.015-.19v-.04z" transform="translate(5.536 43.04)"/><path fill="url(#s)" d="M16.885.033L8.518 3.616l-4.2 1.81-3.962 1.7s-.222.1-.237.1l.08.007L8.54 3.74 16.863.255l.015-.18V.032h.008z" transform="translate(5.536 43.04)"/><path fill="url(#t)" d="M16.885.025l-8.367 3.59-4.2 1.81-3.962 1.7s-.222.09-.237.1l.08.008L8.54 3.74 16.855.255l.023-.18v-.05h.008z" transform="translate(5.536 43.04)"/><path fill="url(#u)" d="M16.885.025l-8.367 3.59-4.2 1.81-3.97 1.7-.237.1.09.008L8.54 3.73 16.847.248l.03-.173v-.05h.01z" transform="translate(5.536 43.04)"/><path fill="url(#v)" d="M16.885.025l-8.36 3.59-4.207 1.81-3.97 1.7-.237.1.09.008L8.54 3.73 16.847.248l.04-.165V.025z" transform="translate(5.536 43.04)"/><path fill="url(#w)" d="M16.885.025l-8.35 3.583-4.21 1.808-3.97 1.71s-.205.09-.236.09l.08.01 8.34-3.504 8.3-3.484.04-.164v-.05z" transform="translate(5.536 43.04)"/><path fill="url(#x)" d="M16.885.025l-8.35 3.583-4.217 1.808L.34 7.126s-.206.082-.237.09l.087.01 8.35-3.51L16.83.23l.055-.156v-.05z" transform="translate(5.536 43.04)"/><path fill="url(#y)" d="M16.885.025l-8.35 3.583-4.217 1.808L.34 7.126s-.198.082-.237.09l.095.01 8.343-3.52 8.29-3.49.06-.157V.02z" transform="translate(5.536 43.04)"/><path fill="url(#z)" d="M16.885.025L8.54 3.608 4.327 5.416.34 7.126s-.198.082-.237.09c.008 0 .095.017.095.017L8.54 3.715 16.823.222l.063-.148v-.05z" transform="translate(5.536 43.04)"/><path fill="url(#A)" d="M16.885.025L8.54 3.6 4.32 5.408.332 7.118s-.19.082-.237.09c.016 0 .095.017.095.017L8.54 3.7 16.815.204l.07-.147V.025z" transform="translate(5.536 43.04)"/><path fill="url(#B)" d="M16.885.016L8.54 3.6 4.32 5.416.332 7.126s-.19.082-.237.09c.016 0 .095.017.095.017L8.534 3.7 16.806.204l.08-.14v-.05z" transform="translate(5.536 43.04)"/><path fill="url(#C)" d="M16.885.016L8.55 3.592 4.317 5.408.324 7.118s-.182.074-.245.09c.01 0 .09.017.09.017L8.52 3.69 16.79.197l.087-.13v-.05h.008z" transform="translate(5.536 43.04)"/><path fill="url(#D)" d="M16.885.016L8.55 3.592 4.317 5.408.324 7.126s-.182.074-.245.09c.01 0 .09.017.09.017L8.52 3.7 16.79.204l.095-.13v-.06z" transform="translate(5.536 43.04)"/><path fill="url(#E)" d="M16.885.016L8.557 3.592l-4.23 1.816L.33 7.126s-.174.074-.245.09c.016 0 .095.017.095.017L8.534 3.69 16.79.19l.095-.124v-.05z" transform="translate(5.536 43.04)"/><path fill="url(#F)" d="M16.885.016L8.557 3.592l-4.24 1.816-4 1.718S.14 7.2.07 7.216c.017 0 .096.017.096.017L8.518 3.69l8.25-3.5.1-.124v-.05h.017z" transform="translate(5.536 43.04)"/><path fill="url(#G)" d="M16.885.016l-8.32 3.576-4.24 1.816-4.01 1.718s-.165.066-.244.082c.02.008.1.017.1.017l8.36-3.55L16.78.173l.11-.115V.016z" transform="translate(5.536 43.04)"/><path fill="url(#H)" d="M16.885.016l-8.32 3.576-4.24 1.824-4.01 1.71s-.165.066-.244.082c.03.008.1.017.1.017l8.36-3.55L16.77.173l.12-.115V.016z" transform="translate(5.536 43.04)"/><path fill="url(#I)" d="M16.885.016L8.573 3.584 4.326 5.408.316 7.126s-.158.066-.245.082c.03.008.1.017.1.017l8.36-3.56 8.24-3.5.13-.107V.016z" transform="translate(5.536 43.04)"/><path fill="url(#J)" d="M16.885.016L8.573 3.584 4.326 5.408.316 7.134S.158 7.2.07 7.216c.025.01.096.017.096.017l8.36-3.56L16.75.163l.135-.096v-.05z" transform="translate(5.536 43.04)"/><path fill="url(#K)" d="M16.885.008L8.573 3.575 4.318 5.4.308 7.126s-.158.066-.245.082a.82.82 0 0 0 .095.017l8.36-3.568 8.225-3.51.134-.098V0h.008z" transform="translate(5.536 43.04)"/><path fill="url(#L)" d="M16.885.008L8.58 3.575 4.327 5.4.307 7.126s-.15.057-.244.082a.82.82 0 0 0 .095.017l8.368-3.568 8.217-3.51.142-.09v-.05z" transform="translate(5.536 43.04)"/><path fill="url(#M)" d="M16.885.008L8.58 3.575 4.327 5.4.307 7.126s-.15.057-.244.082a.82.82 0 0 0 .095.017L8.526 3.65 16.743.14l.15-.09V.007h-.008z" transform="translate(5.536 43.04)"/><path fill="url(#N)" d="M16.885.008L8.59 3.575 4.325 5.408.3 7.134s-.142.058-.245.082c.024.01.095.017.095.017l8.368-3.576 8.21-3.51.157-.08v-.06z" transform="translate(5.536 43.04)"/><path fill="url(#O)" d="M16.885.008L8.59 3.568 4.325 5.4.3 7.126s-.142.057-.245.082c.032.008.095.017.095.017L8.518 3.64l8.2-3.508.167-.074v-.05z" transform="translate(5.536 43.04)"/><path fill="url(#P)" d="M16.885.008L8.59 3.568.292 7.133s-.135.05-.246.082a.69.69 0 0 0 .095.017L8.51 3.65 16.877.065V.008h.008z" transform="translate(5.536 43.04)"/><path fill="url(#Q)" d="M.04.28l16.663 6.953.103-.017L.04.026" transform="translate(22.382 43.04)"/><path fill="url(#R)" d="M.04.27l16.663 6.963.103-.017L.04.026" transform="translate(22.382 43.04)"/><path fill="url(#S)" d="M.04.263l16.67 6.97.096-.017L.04.026" transform="translate(22.382 43.04)"/><path fill="url(#T)" d="M.04.255l16.67 6.978.104-.017L.04.026" transform="translate(22.382 43.04)"/><path fill="url(#U)" d="M.04.247l16.67 6.986.104-.017L.04.026" transform="translate(22.382 43.04)"/><path fill="url(#V)" d="M.04.238l16.68 6.995.094-.017L.04.026" transform="translate(22.382 43.04)"/><path fill="url(#W)" d="M.04.23l16.68 7.003.102-.017L.04.026" transform="translate(22.382 43.04)"/><path fill="url(#X)" d="M.04.222l16.68 7.01.102-.016L.04.026" transform="translate(22.382 43.04)"/><path fill="url(#Y)" d="M.04.214l16.68 7.02.102-.018L.04.026" transform="translate(22.382 43.04)"/><path fill="url(#Z)" d="M.04.205l16.687 7.028.103-.017L.04.026" transform="translate(22.382 43.04)"/><path fill="url(#aa)" d="M.04.197l16.687 7.036.103-.017L.04.016" transform="translate(22.382 43.04)"/><path fill="url(#ab)" d="M.04.19l16.687 7.043.103-.017L.04.016" transform="translate(22.382 43.04)"/><path fill="url(#ac)" d="M.04.18l16.695 7.053.103-.017L.04.016" transform="translate(22.382 43.04)"/><path fill="url(#ad)" d="M.04.173l16.695 7.06.103-.017L.04.016" transform="translate(22.382 43.04)"/><path fill="url(#ae)" d="M.04.164l16.695 7.07.103-.018L.04.016" transform="translate(22.382 43.04)"/><path fill="url(#af)" d="M.04.156l16.703 7.077.103-.025L.04.016" transform="translate(22.382 43.04)"/><path fill="url(#ag)" d="M.04.148l16.703 7.085.103-.025L.04.016" transform="translate(22.382 43.04)"/><path fill="url(#ah)" d="M.04.14l16.703 7.085.103-.017L.04.016" transform="translate(22.382 43.04)"/><path fill="url(#ai)" d="M.04.132l16.71 7.093.104-.017L.04.016" transform="translate(22.382 43.04)"/><path fill="url(#aj)" d="M.04.123l16.71 7.102.104-.017L.04.016" transform="translate(22.382 43.04)"/><path fill="url(#ak)" d="M.04.115l16.71 7.11.104-.017L.04.008" transform="translate(22.382 43.04)"/><path fill="url(#al)" d="M.04.107l16.71 7.118.112-.017L.04.008" transform="translate(22.382 43.04)"/><path fill="url(#am)" d="M.04.1l16.72 7.125.102-.017L.04.008" transform="translate(22.382 43.04)"/><path fill="url(#an)" d="M.04.09l16.72 7.135.102-.017L.04.008" transform="translate(22.382 43.04)"/><path fill="url(#ao)" d="M.04.082l16.72 7.143.11-.017L.04.008" transform="translate(22.382 43.04)"/><path fill="url(#ap)" d="M.04.074l16.727 7.15.102-.016L.04.008" transform="translate(22.382 43.04)"/><path fill="url(#aq)" d="M.04.066l16.727 7.16.102-.018L.04.008" transform="translate(22.382 43.04)"/><path fill="url(#ar)" d="M.3 0l14.134 11.523.063.164s-.008.01-.024 0C13.825 11.17.6.6.04.164L.3 0z" transform="translate(25.466 37.287)"/><path fill="url(#as)" d="M.293.008L14.426 11.53l.063.166s-.01.008-.03 0C13.81 11.178.59.608.03.173L.29.008z" transform="translate(25.466 37.287)"/><path fill="url(#at)" d="M.293.008l14.14 11.523s.016.05.064.16c0 0-.008.01-.024 0C13.825 11.17.6.6.04.17L.293.01z" transform="translate(25.466 37.287)"/><path fill="url(#au)" d="M.285.016l14.15 11.524s.014.04.062.156c0 0-.008.008-.024 0C13.825 11.178.6.608.04.173L.285.016z" transform="translate(25.466 37.287)"/><path fill="url(#av)" d="M.277.016L14.434 11.54s.015.04.063.156c0 0-.008.008-.024 0C13.825 11.178.6.608.04.173L.277.016z" transform="translate(25.466 37.287)"/><path fill="url(#aw)" d="M.27.016L14.433 11.53s.015.034.055.15c0 0-.01.007-.025 0C13.817 11.16.593.59.033.155L.27.015z" transform="translate(25.466 37.287)"/><path fill="url(#ax)" d="M.27.025L14.44 11.54s.017.032.057.147c0 0-.008.01-.024 0C13.825 11.17.593.607.04.164l.23-.14z" transform="translate(25.466 37.287)"/><path fill="url(#ay)" d="M.26.025L14.44 11.54s.017.032.057.147c0 0-.008.01-.024 0C13.825 11.17.593.607.033.164L.26.024z" transform="translate(25.466 37.287)"/><path fill="url(#az)" d="M.253.033L14.44 11.548s.017.033.057.148c0 0-.008.008-.024 0C13.825 11.178.593.616.033.173l.22-.14z" transform="translate(25.466 37.287)"/><path fill="url(#aA)" d="M.245.033L14.44 11.548s.017.033.057.14c0 0-.008.008-.024 0C13.825 11.17.593.608.033.163l.212-.13z" transform="translate(25.466 37.287)"/><path fill="url(#aB)" d="M.245.04L14.44 11.557s.017.033.057.14c0 0-.008.008-.024 0C13.825 11.177.593.617.033.18l.21-.14z" transform="translate(25.466 37.287)"/><path fill="url(#aC)" d="M.237.04L14.44 11.55s.017.033.057.14c0 0-.008.008-.024 0C13.817 11.17.593.607.033.172L.236.04z" transform="translate(25.466 37.287)"/><path fill="url(#aD)" d="M.23.05l14.21 11.506s.017.033.057.13c0 0-.008.01-.024 0C13.817 11.17.593.61.033.174L.228.05z" transform="translate(25.466 37.287)"/><path fill="url(#aE)" d="M.22.05l14.22 11.506s.017.033.05.13c0 0-.01.01-.025 0C13.81 11.17.585.61.025.174L.22.05z" transform="translate(25.466 37.287)"/><path fill="url(#aF)" d="M.22.058l14.23 11.506s.015.033.047.132c0 0-.008.008-.024 0C13.817 11.178.593.616.033.18L.22.06z" transform="translate(25.466 37.287)"/><path fill="url(#aG)" d="M.214.058L14.45 11.564s.015.033.047.132c0 0-.008.008-.024 0C13.817 11.178.585.616.033.18l.18-.12z" transform="translate(25.466 37.287)"/><path fill="url(#aH)" d="M.206.066L14.45 11.564s.015.033.047.123c0 0-.008.01-.024 0C13.817 11.17.585.607.023.173L.207.066z" transform="translate(25.466 37.287)"/><path fill="url(#aI)" d="M.198.066l14.25 11.498s.01.033.05.123c0 0-.01.01-.025 0C13.817 11.17.585.607.023.173L.2.066z" transform="translate(25.466 37.287)"/><path fill="url(#aJ)" d="M.198.074l14.25 11.498.05.124s-.01.008-.025 0C13.817 11.178.585.616.023.18L.2.075z" transform="translate(25.466 37.287)"/><path fill="url(#aK)" d="M.19.074l14.26 11.498s.007.025.047.115c0 0-.008.01-.024 0C13.817 11.17.585.617.023.173l.167-.1z" transform="translate(25.466 37.287)"/><path fill="url(#aL)" d="M.182.074L14.45 11.572s.007.025.047.115c0 0-.008.01-.024 0C13.817 11.17.585.617.023.173l.16-.1z" transform="translate(25.466 37.287)"/><path fill="url(#aM)" d="M.174.082l14.275 11.5s0 .023.04.114c0 0-.01.008-.03 0L.01.18.17.082z" transform="translate(25.466 37.287)"/><path fill="url(#aN)" d="M.166.082l14.283 11.49s0 .025.04.115c0 0-.01.01-.03 0C13.81 11.17.57.617.01.173l.15-.09z" transform="translate(25.466 37.287)"/><path fill="url(#aO)" d="M.166.09l14.29 11.49.04.107s-.007.01-.023 0C13.817 11.17.585.617.023.18L.167.09z" transform="translate(25.466 37.287)"/><path fill="url(#aP)" d="M.158.09l14.3 11.49s.007.025.04.107c0 0-.01.01-.025 0C13.817 11.17.577.617.023.18L.16.09z" transform="translate(25.466 37.287)"/><path fill="url(#aQ)" d="M.15.1l14.307 11.49.04.106s-.008.008-.024 0C13.817 11.178.577.626.016.19L.15.1z" transform="translate(25.466 37.287)"/><path fill="#68737A" d="M25.608 37.386l14.315 11.49s.008.025.04.098c0 0-.008.01-.024 0-.66-.517-13.9-11.07-14.46-11.506l.12-.082z"/><path fill="#505F68" d="M25.458 37.485s-.553.36-1.004.657l-.055-.1c.72-.4 1.08-.6 1.02-1.042-.04-.354-2.27-18.288-2.27-18.288l.07.1 2.54 18.475-.31.198z"/><path fill="url(#aR)" d="M2.428 18.813S.688 4.963.11.345C.104.28.07.082.07.082l.072.1 2.53 18.475-.244.156z" transform="translate(23.094 18.63)"/><path fill="url(#aS)" d="M2.42 18.813S.68 4.963.103.345C.095.28.063.082.063.082l.07.1 2.532 18.483-.245.148z" transform="translate(23.094 18.63)"/><path fill="url(#aT)" d="M2.42 18.813S.68 4.956.103.345a6.688 6.688 0 0 0-.04-.263l.07.1 2.524 18.492-.237.14z" transform="translate(23.094 18.63)"/><path fill="url(#aU)" d="M2.42 18.822S.68 4.964.103.345a5.05 5.05 0 0 0-.04-.263l.07.1 2.524 18.492-.237.148z" transform="translate(23.094 18.63)"/><path fill="url(#aV)" d="M2.42 18.822S.68 4.964.103.345a5.743 5.743 0 0 0-.04-.27l.07.098 2.516 18.5-.23.15z" transform="translate(23.094 18.63)"/><path fill="url(#aW)" d="M2.42 18.822S.688 4.964.103.345C.095.255.063.075.063.075l.07.098 2.51 18.51-.223.14z" transform="translate(23.094 18.63)"/><path fill="url(#aX)" d="M2.42 18.822S.688 4.964.103.345C.095.255.063.075.063.075l.07.098 2.5 18.517-.213.132z" transform="translate(23.094 18.63)"/><path fill="url(#aY)" d="M2.412 18.822S.68 4.964.095.345a2.51 2.51 0 0 0-.048-.27L.12.172l2.49 18.525-.198.124z" transform="translate(23.094 18.63)"/><path fill="url(#aZ)" d="M2.412 18.822S.68 4.964.095.345a9.74 9.74 0 0 0-.048-.27L.12.172l2.49 18.525-.198.124z" transform="translate(23.094 18.63)"/><path fill="url(#ba)" d="M2.412 18.822S.68 4.964.095.345a5.779 5.779 0 0 0-.048-.27L.12.172 2.6 18.707l-.19.115z" transform="translate(23.094 18.63)"/><path fill="url(#bb)" d="M2.412 18.822S.68 4.964.095.345C.08.238.047.065.047.065l.072.1 2.47 18.542-.19.115z" transform="translate(23.094 18.63)"/><path fill="url(#bc)" d="M2.412 18.822S.68 4.964.095.345C.08.23.047.065.047.065l.072.1 2.46 18.55-.18.107z" transform="translate(23.094 18.63)"/><path fill="url(#bd)" d="M2.412 18.822S.68 4.964.095.337a5.249 5.249 0 0 0-.048-.28l.072.1 2.45 18.558-.17.107z" transform="translate(23.094 18.63)"/><path fill="url(#be)" d="M2.412 18.83S.68 4.973.095.345a4.007 4.007 0 0 0-.048-.28l.072.1L2.57 18.73l-.158.1z" transform="translate(23.094 18.63)"/><path fill="url(#bf)" d="M2.404 18.83S.672 4.964.087.345A6.67 6.67 0 0 0 .04.065l.07.1L2.555 18.74l-.15.09z" transform="translate(23.094 18.63)"/><path fill="url(#bg)" d="M2.404 18.83S.672 4.964.087.345C.07.215.04.058.04.058l.07.098L2.548 18.73l-.143.1z" transform="translate(23.094 18.63)"/><path fill="url(#bh)" d="M2.404 18.83S.672 4.964.087.345A4.185 4.185 0 0 0 .04.058l.07.098L2.548 18.74l-.143.09z" transform="translate(23.094 18.63)"/><path fill="url(#bi)" d="M2.404 18.83S.672 4.964.087.345A4.185 4.185 0 0 0 .04.058l.07.098 2.43 18.592-.136.082z" transform="translate(23.094 18.63)"/><path fill="url(#bj)" d="M2.404 18.83S.672 4.964.087.345A3.368 3.368 0 0 0 .04.058l.07.098 2.42 18.592-.126.082z" transform="translate(23.094 18.63)"/><path fill="url(#bk)" d="M2.404 18.83L.094.345C.08.197.048.058.048.058L.12.156l2.41 18.608-.126.066z" transform="translate(23.094 18.63)"/><path fill="url(#bl)" d="M2.396 18.83L.086.337A2.137 2.137 0 0 0 .04.05l.07.098 2.405 18.616-.12.066z" transform="translate(23.094 18.63)"/><path fill="url(#bm)" d="M2.396 18.83L.086.337C.072.18.04.04.04.04l.07.1 2.397 18.616-.11.074z" transform="translate(23.094 18.63)"/><path fill="url(#bn)" d="M2.396 18.838L.086.345C.072.18.04.05.04.05l.07.098 2.397 18.624-.11.066z" transform="translate(23.094 18.63)"/><path fill="url(#bo)" d="M2.396 18.838L.086.345C.072.18.033.05.033.05l.07.098 2.39 18.633-.096.06z" transform="translate(23.094 18.63)"/><path fill="url(#bp)" d="M2.396 18.838L.086.345C.064.173.033.05.033.05l.07.098 2.38 18.64-.086.05z" transform="translate(23.094 18.63)"/><path fill="url(#bq)" d="M2.396 18.838S.664 4.964.086.345C.064.173.033.05.033.05l.07.098 2.373 18.65-.08.04z" transform="translate(23.094 18.63)"/><path fill="url(#br)" d="M2.396 18.838S.664 4.964.086.345C.064.165.033.04.033.04l.07.1L2.47 18.797l-.072.04z" transform="translate(23.094 18.63)"/><path fill="url(#bs)" d="M22.32 26.975s.004.362.023.362c.02 0 .02-.362.02-.362l.048-3.427h-.14l.05 3.427z" transform="translate(0 16)"/><path fill="url(#bt)" d="M19.898 21.5l-.11.198 1.906 1.085s.205.115.23.074c.015-.04-1.25-.83-2.026-1.356z" transform="translate(0 16)"/><path fill="#68737A" d="M19.432 36.663c.055-.502 1.945-15.47 2.222-17.688a1.77 1.77 0 0 1 .056-.304l-.103.14-2.53 18.35a.354.354 0 0 1-.112.2L4.943 48.81s-.04.066-.063.165c0 0 .008.016.023 0 .712-.567 14.418-11.54 14.418-11.54l.48.27.11-.196c-.19-.14-.34-.23-.38-.28-.15-.15-.14-.18-.09-.58z"/><path fill="#FFF" d="M24.4 38.043l-1.86 1.003h-.253l-1.85-1.01s-1.092-.634-1.124-.593c-.024.033.427.32.427.32l2.405 1.554.134.214h.26l.14-.21 1.77-1.17s1.07-.64 1.03-.67c-.03-.03-1.09.58-1.09.58z"/><path fill="#FFF" d="M40.066 49.92L22.54 39.548h-.253L4.777 49.92l-.032-.016v-.033l17.4-10.58.126-.2.12-20.97.03-.01.03.02.12 20.98.14.2 17.38 10.57v.04"/><path fill="#FFF" d="M22.27 38.865h.294c0 .115.047.14.142.09l.142.256c-.094.06-.094.12 0 .18l-.142.27c-.095-.05-.142-.02-.142.08h-.285c0-.11-.06-.14-.15-.08l-.15-.26c.09-.05.09-.11 0-.17l.14-.25c.08.05.13.02.13-.09z"/><path fill="url(#bu)" d="M4.882 32.72l-.01.123.1-.11c-.048.023-.063.015-.09-.013z" transform="translate(0 16)"/><path fill="#889299" d="M22.405 43.37l-.05-.05-.052.06c.04-.04.064-.05.102-.01z"/><path fill="#56646C" d="M39.844 48.77l.08.08.02-.09c-.03.05-.05.04-.1.01zm-.814 1.562l.068-.066-.1-.034c.075.034.083.047.033.1z"/><path fill="url(#bv)" d="M21.565 2.782l.063-.11-.1.067c.033 0 .04 0 .037.04z" transform="translate(0 16)"/><path fill="url(#bw)" d="M23.225 2.743l-.1-.072.058.12c-.004-.04.004-.04.042-.04z" transform="translate(0 16)"/><path fill="url(#bx)" d="M5.705 35.697l-.12.008.1.092c-.014-.042-.01-.075.02-.1z" transform="translate(0 16)"/><path fill="#8B969D" d="M25.75 37.164l.015.063.086.037c-.05-.03-.08-.054-.1-.1z"/></g></svg>