<svg xmlns="http://www.w3.org/2000/svg" width="50" height="72"><g fill="none" fill-rule="evenodd"><path d="M0 0h50v72H0z"/><path fill="#2B6BB1" d="M20.683 37.836c-3.112 1.512-7.06 4.215-7.06 7.185 0 1.103.551 1.796 1.583 1.796 3.04 0 4.908-4.837 5.477-8.98zm.818-12.947c0-.337-.196-.48-.48-.48-1.458 0-3.521 3.806-3.521 6.083 2.276-1.245 4-4.073 4-5.602zm12.253.285c0-.338-.07-.765-.498-.765-1.03 0-2.685 2.223-2.685 5.05 2.063-1.797 3.183-3.326 3.183-4.286zm5.104 17.428c0 3.112-2.685 6.366-6.633 6.366-4.766 0-7.185-4.02-7.185-7.612 0-5.051 3.451-7.185 4.91-7.95-.285-.214-.499-.48-.694-.836-1.67 1.173-3.183 2.222-6.366 4.019-.142 2.205-.338 4.624-.907 6.295-1.174 3.52-3.592 6.082-6.776 6.082-2.685 0-4-1.938-4-4.02 0-1.511.89-3.45 2.49-4.908 2.01-1.796 4.214-2.9 7.255-4.5.071-.408.142-.817.214-1.315-.764.693-1.867.978-2.774.978-1.44 0-2.632-1.245-2.899-2.561-1.938-.143-3.396-1.53-3.468-3.735 0-1.583.622-2.97 1.672-2.97.41 0 .552.338.552.622 0 .266-.356 1.173-.356 2.062 0 .907.427 2.08 1.53 2.08 0-3.592 2.632-8.233 5.744-8.233 2.063 0 2.348 1.529 2.348 2.223 0 3.255-3.254 6.847-5.886 7.736.071.284.356 1.049 1.191 1.049 1.032 0 2.277-.978 2.9-1.743.266-1.44 1.316-3.521 2.703-3.521.551 0 .818.409.818.907 0 1.03-1.103 2.347-1.939 3.237a12.463 12.463 0 0 0-.195 2.08c2.42-1.458 3.664-2.205 5.46-3.522-.142-.48-.142-1.049-.142-1.6 0-3.236 2.152-6.847 4.98-6.847 1.6 0 2.419 1.121 2.419 2.366 0 2.348-2.01 4.41-4.838 6.563.214.551.552 1.032 1.103 1.316.071-.142.978-.284 1.725-.284.836 0 2.01.213 2.01 1.049 0 .96-1.316 1.174-2.348 1.174-.551.07-1.458-.142-1.458-.142-1.512.409-4.429 2.152-4.429 6.562 0 2.988 1.868 5.744 4.784 5.744 2.206 0 4.002-1.654 4.073-4.215 0-1.654-.693-3.397-2.347-3.397-.836 0-1.583.623-1.583 1.53-.071 1.387.96 1.53.96 2.419 0 .622-.48.907-.96.907-1.387 0-2.437-1.387-2.437-3.112 0-2.081 1.814-3.806 4.162-3.806 3.041 0 4.624 2.632 4.624 5.46zm8.377-6.634c0-7.897-4.02-16.06-12.662-18.674-1.797-.552-3.308-.907-5.051-.907-4.002 0-4.144 2.276-6.011 2.276-1.032 0-1.725-.747-1.725-1.654 0-1.583 1.867-2.828 4.837-2.828 2.774 0 4.908.693 5.317.889l.07-.196c-.746-.285-3.378-1.192-7.042-1.192-7.968 0-16.06 4.09-18.674 12.662-.551 1.796-.907 3.326-.907 5.05 0 4.02 2.276 4.216 2.276 6.083 0 .978-.747 1.672-1.654 1.672-1.583 0-2.828-1.814-2.828-4.855 0-2.757.693-4.91.818-5.318l-.196-.071c-.214.836-1.121 3.396-1.121 7.06 0 8.02 4.09 16.112 12.662 18.744 1.796.551 3.326.89 5.05.89 4.02 0 4.144-2.348 6.012-2.348a1.72 1.72 0 0 1 1.743 1.725c0 1.53-1.814 2.774-4.856 2.774-2.757 0-4.98-.693-5.318-.836l-.071.214c.764.338 3.396 1.103 7.06 1.103 7.949-.001 16.112-4.02 18.673-12.663.551-1.725.889-3.308.889-4.98 0-4.072-2.276-4.214-2.276-6.082 0-1.031.693-1.725 1.654-1.725 1.6 0 2.845 1.868 2.845 4.909 0 2.703-.694 4.837-.836 5.317l.213.071c.267-.818 1.103-3.379 1.103-7.113zm1.512 0c0 13.142-10.635 23.777-23.778 23.777S1.174 49.11 1.174 35.969s10.652-23.795 23.795-23.795c13.143 0 23.777 10.724 23.777 23.795zm1.191 0C49.938 22.204 38.734 11 24.97 11S0 22.204 0 35.969c0 13.818 11.204 24.969 24.969 24.969s24.969-11.15 24.969-24.969z"/></g></svg>