<svg xmlns="http://www.w3.org/2000/svg" width="240" height="130" xmlns:xlink="http://www.w3.org/1999/xlink"><defs><linearGradient id="a" x1="49.999%" x2="49.999%" y1="0%" y2="100%"><stop stop-color="#F7E830" offset="0%"/><stop stop-color="#FDCB06" offset="100%"/></linearGradient><radialGradient id="b" cx="49.578%" cy="353.571%" r="67.236%" fx="49.578%" fy="353.571%"><stop stop-color="#F29405" offset="59.62%"/><stop stop-color="#F7D01E" offset="73.62%"/><stop stop-color="#FDCB06" offset="100%"/></radialGradient><linearGradient id="c" x1="49.785%" x2="50.593%" y1="-.021%" y2="98.032%"><stop stop-color="#FADA1C" offset="0%"/><stop stop-color="#FDCB06" offset="100%"/></linearGradient><linearGradient id="d" x1="50.204%" x2="49.4%" y1="-.031%" y2="98.021%"><stop stop-color="#FADA1C" offset="0%"/><stop stop-color="#FDCB06" offset="100%"/></linearGradient><path id="e" d="M29.264 1.493c-.072-.138-.08-.302-.08-.458l-.072.01c-.107-.404-.438-.79-.867-.807-.32-.027-.724-.018-.91.293-.358.5-.19 1.13-.207 1.69 0 .04.01.1.01.14 0 .38-.045.74-.108 1.11a.819.819 0 0 0-.08.36 8.632 8.632 0 0 1-.866 2.49.932.932 0 0 0-.17.36c-.268.48-.59.92-.92 1.36-.054.05-.1.1-.144.16-.232.3-.482.54-.74.8-.064.04-.11.08-.162.12-.304.3-.643.59-1.01.82-.045.03-.09.07-.143.1-2.287 1.55-5.066 2.19-7.774 2.22-2.29.08-4.61-.43-6.68-1.44a.774.774 0 0 0-.16-.07c-.35-.19-.7-.35-1.03-.59-.07-.04-.14-.08-.22-.12-.33-.2-.64-.42-.94-.68-.1-.09-.2-.16-.31-.24-.32-.26-.65-.55-.93-.87-.07-.08-.14-.15-.21-.23C3.56 6.93 2.8 5.67 2.4 4.3c-.386-1.09-.33-2.28-.377-3.428C1.7.37 1.02.09.485.4c-.225.16-.25.46-.42.672-.278 3.022.982 6.034 2.992 8.214 0 .073.036.12.1.146.356.34.704.687 1.062 1.017.06.06.13.12.21.18.36.3.74.57 1.11.86.07.05.14.1.22.14.49.29.95.64 1.48.84l.13.09c1.7.83 3.53 1.4 5.4 1.58.2 0 .41.02.61.06.89.05 1.78.02 2.68.01 2.76-.25 5.61-.94 7.91-2.61l.03.03c.07-.07.13-.12.2-.18.37-.28.72-.57 1.08-.87.08-.07.17-.14.25-.22.4-.44.85-.84 1.18-1.35l.06.03c.02-.05.07-.14.1-.19.3-.42.58-.86.84-1.3.02-.03.06-.08.08-.1l-.03-.04c.02-.04.09-.11.11-.15.49-1.03.93-2.1 1.08-3.24.06-.02.1-.08.1-.14.01-.37.13-.72.1-1.08.08-.45.09-.91.07-1.37z"/></defs><g fill="none" fill-rule="evenodd"><path fill="url(#a)" stroke="#FCD109" stroke-width=".5" d="M239.872 11.37c-.027-.09-.054-.183-.09-.274-21.168.01-42.328 0-63.487.01a.366.366 0 0 0-.098.21c0 16.822 0 33.635-.01 50.458.135.898.617 1.713 1.26 2.326.028.01.09.018.117.028.33.357.804.53 1.25.696.33-.02.653.128.984.09h26.27c.25-.008.51.038.75-.063.01-.03.02-.1.028-.13.01-.04.018-.14.027-.2.563-3.22 1.108-6.46 1.706-9.68l.05-.41c-2.43-.01-4.87 0-7.3-.01-.59-.01-1.2 0-1.79-.07-1.01-.04-2.03-.01-3.04-.11-1.25 0-2.5-.12-3.75-.12-.98-.1-1.98-.06-2.97-.11-.65-.08-1.31-.04-1.96-.07-1.07-.12-2.15-.04-3.21-.15-1.13.01-2.25-.09-3.38-.12.01-.01.01-.04.01-.05.37.01.74-.02 1.11-.02.83-.11 1.67-.03 2.5-.15.87 0 1.73-.12 2.59-.12.77-.11 1.54-.04 2.31-.15.9 0 1.78-.12 2.69-.13.74-.1 1.49-.04 2.23-.14.86.01 1.72-.13 2.59-.12.85-.1 1.71-.07 2.56-.16-.08-.34-.15-.68-.22-1.02-.07-.21-.32-.16-.48-.19-1.94-.28-3.87-.57-5.8-.84.12-.1.29-.06.44-.08 1.5-.12 2.99-.25 4.49-.36.34-.02.67-.08 1.01-.09-.15-.48-.24-1-.45-1.44-3.21-.5-6.42-.95-9.61-1.49.83-.13 1.67-.2 2.5-.29l.07-.03c2.65-.28 5.31-.6 7.97-.87 3.37-.01 6.73-.01 10.09 0 .11-.01.3.04.31-.12.28-1.48.55-2.96.82-4.45.383-2.06.99-4.09 1.93-5.97 1.473-3.02 3.806-5.58 6.647-7.29 2.65-1.59 5.73-2.36 8.78-2.51.99-.09 1.99-.06 2.98.07.64.16 1.3.34 1.81.79.42.35.67.86.86 1.37.415 1.22.647 2.48.84 3.76.01.51.1 1.09-.17 1.56-.25.46-.75.68-1.22.81-1.724.46-3.53.03-5.254.46-1.42.317-2.744 1.12-3.646 2.28-1.06 1.36-1.626 3.04-1.94 4.73-.24 1.5-.544 3-.785 4.518 1.7.01 3.407-.01 5.11.01.68 0 1.38.383 1.656 1.04.36.84.28 1.796.16 2.684-.14 1-.374 1.99-.81 2.9-.366.78-.97 1.5-1.804 1.77-.43.178-.89.14-1.35.14-1.5 0-3 .02-4.5 0-.24 1.13-.407 2.28-.62 3.43-.4 2.226-.78 4.46-1.17 6.695-.01.07-.02.23-.02.31.7.037 1.41 0 2.112.02 5.24 0 10.48-.01 15.73 0 .56.017 1.132-.12 1.623-.404.297-.11.476-.376.735-.52.25-.15.32-.45.54-.64.235-.42.477-.86.495-1.36.02 0 .1-.01.13-.02-.03-16.85 0-33.7-.02-50.55z" transform="translate(0 27)"/><path fill="#F8F3B5" stroke="#F8F3B5" stroke-width=".5" d="M184.525 27.29c.76-.248 1.555-.083 2.332-.138 14.592.01 29.184 0 43.775 0 .867-.037 1.626.467 2.43.723.644.266 1.314.476 1.958.76.134.055.232.174.33.275-.01 1.21 0 2.427 0 3.645.01.32-.045.65.063.96.187.03.285.175.41.294.59.27 1.09.72 1.627 1.09.804.58 1.662 1.09 2.448 1.7.036.24.01.48-.062.7-.08.25-.027.53-.054.79-21.168.01-42.328 0-63.487.01-.045-.31.036-.61-.09-.89-.017-.24-.098-.55.126-.72.9-.64 1.84-1.22 2.72-1.9.55-.36 1.07-.73 1.6-1.09.11-.19.07-.41.07-.62 0-1.33 0-2.66.01-3.99.31-.41.83-.45 1.25-.65.85-.33 1.71-.65 2.55-.98zm.053.155c-1.144.45-2.296.88-3.44 1.328-.152.028-.233.165-.313.284.01.073.018.2.018.275-.01 1.098 0 2.198-.01 3.296.01.275-.026.55.072.797-.116.12-.24.238-.384.33-1.29.86-2.54 1.795-3.84 2.646-.22.14-.47.33-.4.63-.04.17.04.3.21.26 2.81-.01 5.61.02 8.41-.02 4.17 0 8.34.01 12.51 0l.07-.03c.19.05.38.03.57.03 7.56 0 15.12.01 22.69 0 2.38.01 4.77 0 7.15 0 3.93 0 7.87.04 11.81.02.12-.02.15-.11.11-.25-.01-.14.05-.35-.11-.44-.62-.3-1.16-.77-1.76-1.13-.21-.18-.49-.28-.65-.53-.61-.36-1.19-.79-1.79-1.19-.11-.07-.2-.19-.3-.29.06-.19.07-.4.07-.6v-3.49c.03-.18.02-.39-.14-.51-1.07-.39-2.13-.81-3.2-1.22-.33-.16-.69-.25-1.05-.31H185.2c-.2.01-.39.11-.58.16z"/><path fill="#F39F00" d="M180.843 29.332c.787.338 1.626.53 2.422.86.43.174.563.65.75 1.035-.187.193-.41.348-.634.495-.82.568-1.66 1.117-2.47 1.703-.1-.247-.06-.522-.07-.797.01-1.1 0-2.198.01-3.296zm51.96.86c.796-.32 1.627-.54 2.42-.86.01 1.163 0 2.326.01 3.49 0 .2-.016.41-.07.603-.697-.494-1.403-.96-2.1-1.447-.34-.256-.715-.45-1.02-.76.19-.384.33-.852.76-1.026z"/><path fill="#AF8C0F" d="M194.48 30.568c.982-.238 2.08.66 2 1.712.01 1.035-1.054 1.878-2.028 1.64-.393-.138-.768-.348-1.01-.706-.312-.485-.384-1.135-.134-1.666.18-.513.66-.86 1.17-.98zm25.492.577c.41-.467 1.063-.733 1.67-.568.457.137.904.44 1.1.897.393.788.09 1.85-.68 2.262-.678.385-1.536.202-2.054-.357-.527-.62-.563-1.63-.036-2.24z"/><path fill="#F7E62D" stroke="#F7E62D" stroke-width=".5" d="M183.38 31.722c.224-.147.448-.302.636-.495l.062.064c.063.48.018.97.036 1.44-.027 1.43.027 2.87-.036 4.3-2.6 0-5.2-.02-7.8 0-.072-.3.178-.48.4-.62 1.297-.85 2.548-1.78 3.844-2.64.143-.09.268-.21.384-.33.813-.58 1.653-1.13 2.475-1.7zm48.575-.182c0-.12.027-.22.09-.322.303.312.678.504 1.018.76.697.485 1.403.953 2.1 1.447.098.1.187.22.303.293.608.394 1.18.834 1.796 1.19.16.248.438.348.652.532.6.366 1.135.833 1.76 1.135.153.092.1.293.108.44-2.6.01-5.192-.01-7.792.01-.045-.368-.018-.734-.027-1.09 0-1.466-.017-2.93-.008-4.396z"/><path fill="url(#b)" stroke="#FCD109" stroke-width=".5" d="M239.783 10.015c-2.6.01-5.192-.01-7.792.01-.04-.367-.01-.734-.02-1.09 0-1.466-.02-2.93-.01-4.396 0-.12.03-.22.09-.33.19-.39.33-.85.76-1.03.8-.32 1.63-.54 2.42-.86.03-.19.02-.4-.14-.52-1.07-.4-2.13-.82-3.2-1.22-.33-.17-.69-.26-1.05-.31h-45.67c-.19.01-.38.11-.58.15-1.14.45-2.29.88-3.44 1.32-.15.03-.23.16-.31.28.01.07.02.2.02.27.79.34 1.63.53 2.42.86.43.17.57.65.76 1.03l.06.06c.06.48.02.96.04 1.44-.02 1.43.03 2.86-.03 4.29-2.6 0-5.2-.02-7.8 0-.04.16.04.3.21.25 2.81-.02 5.6.02 8.41-.03 4.17 0 8.34.01 12.51 0l.06-.03c.19.04.38.03.57.03 7.56 0 15.12.01 22.69 0 2.38.01 4.76 0 7.15 0 3.93 0 7.87.03 11.8.02.12-.03.16-.11.11-.26zm-46.475-5.467c.18-.513.66-.86 1.17-.98.984-.238 2.083.66 2.002 1.712.01 1.035-1.054 1.878-2.028 1.64-.393-.138-.768-.348-1.01-.706-.312-.485-.384-1.135-.134-1.666zm26.664-.403c.41-.467 1.063-.733 1.67-.568.457.137.904.44 1.1.897.393.788.09 1.85-.68 2.262-.678.385-1.536.202-2.054-.357-.527-.62-.563-1.63-.036-2.24z" transform="translate(0 27)"/><path fill="url(#c)" stroke="#FCD109" stroke-width=".5" d="M222.25 14.04c.125.027-.65-.765-.5-.802.144.02.686-.413 1.34-.06.656.35.494 1.174.42 1.48-.09.363-.315.595-.494.778-.098.083-.318.21-.452.202.08-.45-.18-.522-.197-.98l-.117-.62z" transform="translate(0 27)"/><path fill="url(#d)" stroke="#FCD109" stroke-width=".5" d="M193.685 14.536c-.018.458-.277.53-.196.98-.14.01-.36-.12-.46-.202-.18-.183-.41-.415-.5-.778-.08-.305-.24-1.13.42-1.48.65-.352 1.2.08 1.34.06.15.037-.63.83-.5.8l-.12.62z" transform="translate(0 27)"/><path fill="#BDA727" stroke="#BDA727" stroke-width=".5" d="M221.08 46.906c.134-.12.224-.12.402-.12-1.072 2.38-2.323 4.762-4.204 6.616a6.2 6.2 0 0 1-.636.51c-.215.162-.427.314-.636.468-.206.146-.41.293-.61.447-.51.284-.955.677-1.518.85-1.028.505-2.136.844-3.253 1.082-.438.07-.884.18-1.33.19-.555.16-1.145.04-1.708.08-.313.05-.59-.13-.893-.09a20.59 20.59 0 0 1-.788-.14c-.264-.06-.527-.12-.79-.2-4.096-1.31-8.117-4.52-9.29-8.85a5.17 5.17 0 0 1-.078-.89c.125.25.254.51.388.76 1.667 3.72 4.973 6.66 8.88 7.54.316.15.66.09.963.22.27 0 .54-.01.81.08.92.01 1.84.01 2.76.01.12 0 .24-.06.37-.09 1.53-.06 3.03-.48 4.43-1.13.28-.13.55-.27.82-.42.24-.13.47-.27.69-.42.22-.15.44-.31.64-.47 1.65-1.34 3.08-3.08 4.05-5.09l.5-1z"/><path fill="#0D69B3" stroke="#0D69B3" stroke-width=".5" d="M219.624 55.047c2.653-1.594 5.727-2.363 8.783-2.51a13.58 13.58 0 0 1 2.976.064c.643.16 1.305.34 1.814.79-.26.02-.51-.1-.768-.13-.74-.14-1.5-.09-2.24-.11-2.16 0-4.33.18-6.41.78-1.09.34-2.18.74-3.18 1.32a15.96 15.96 0 0 0-4.51 3.79c-2.24 2.63-3.55 5.97-4.18 9.36-.31 1.83-.65 3.64-.93 5.47-.45.05-.91.02-1.35.02l-5.9-.03c-.42.02-.83-.08-1.25-.05-3.58.02-7.15-.01-10.73-.01l.07-.02c2.65-.28 5.32-.6 7.97-.87 3.36-.02 6.72-.01 10.09 0 .11-.02.3.04.32-.12.27-1.48.54-2.96.82-4.45.38-2.06.99-4.09 1.93-5.97 1.47-3.02 3.8-5.59 6.65-7.29z"/><path fill="#107BD4" stroke="#107BD4" stroke-width=".5" d="M223.788 53.92c2.082-.604 4.253-.778 6.407-.778.74.018 1.5-.037 2.234.11.25.036.5.155.76.137.42.34.67.86.86 1.37.41 1.22.64 2.48.84 3.75.01.51.1 1.09-.17 1.55-.25.46-.75.67-1.23.81-1.73.45-3.53.02-5.26.45-1.42.31-2.75 1.11-3.65 2.28-1.06 1.35-1.63 3.04-1.94 4.72-.24 1.5-.55 3-.79 4.51-.11.34-.17.7-.24 1.06 1.69.02 3.38 0 5.06.02.64-.02 1.28.02 1.93-.03.36.84.28 1.79.16 2.68-.14 1-.38 1.99-.81 2.9-.37.78-.98 1.49-1.81 1.77-.43.17-.89.14-1.35.14-1.5 0-3 .02-4.5 0-.24 1.12-.4 2.28-.62 3.42l-1.17 6.7c-.01.07-.02.23-.02.31v.01c-3.91 0-7.8.01-11.71 0 .01-.04.02-.1.03-.14.01-.05.02-.15.02-.2.01.07.01.21.02.27.24.03.68.15.74-.2.61-3.37 1.17-6.76 1.8-10.13-.24-.06-.49-.06-.74-.01-.04.13-.07.25-.12.38l.05-.41c-2.43-.01-4.87 0-7.3-.01-.59-.02-1.2 0-1.79-.08-1.01-.05-2.03-.01-3.04-.11-1.25 0-2.496-.12-3.747-.12-.98-.1-1.975-.06-2.967-.11-.64-.08-1.3-.04-1.953-.07-1.06-.12-2.14-.04-3.203-.16-1.124.01-2.25-.09-3.376-.12.01-.01.02-.04.02-.05.374.01.74-.02 1.12-.03.83-.11 1.67-.04 2.51-.16.86 0 1.72-.12 2.59-.12.77-.11 1.54-.043 2.31-.153.9 0 1.79-.12 2.69-.13.74-.1 1.49-.05 2.232-.15.86.01 1.72-.13 2.59-.12.84-.1 1.71-.075 2.56-.167-.08-.34-.147-.67-.218-1.01-.06-.21-.31-.165-.48-.19-1.94-.285-3.87-.57-5.8-.84.13-.1.3-.057.44-.075 1.5-.12 2.994-.26 4.496-.37.34-.01.67-.08 1.01-.09-.15-.47-.24-1-.44-1.44-3.21-.5-6.416-.95-9.615-1.49.83-.13 1.67-.2 2.502-.29 3.575 0 7.15.03 10.72.01.42-.03.83.07 1.25.06 1.97.02 3.93.03 5.9.033.45 0 .91.03 1.35-.02.28-1.83.63-3.643.93-5.465.64-3.4 1.95-6.73 4.18-9.36 1.25-1.54 2.8-2.82 4.52-3.79.99-.586 2.08-.98 3.17-1.32z"/><path fill="#0D69B3" stroke="#0D69B3" stroke-width=".5" d="M221.876 72.867c1.697.01 3.404-.01 5.11.01.68 0 1.377.384 1.654 1.043-.644.046-1.287.01-1.93.028-1.69-.018-3.378.01-5.067-.018.063-.358.125-.724.233-1.063zm-13.18 8.58c.25-.044.5-.044.74.01-.624 3.37-1.187 6.76-1.795 10.13-.06.356-.5.23-.74.2-.01-.063-.01-.2-.02-.274.56-3.224 1.11-6.456 1.71-9.68.05-.128.08-.256.12-.385z"/><path fill="#FFF" stroke="#FFF" stroke-width=".5" d="M222.657 41.296c-.072-.138-.08-.302-.08-.458l-.072.01c-.107-.404-.437-.79-.866-.807-.33-.02-.73-.01-.92.3-.36.5-.19 1.13-.21 1.69 0 .04.01.1.01.14 0 .38-.05.74-.11 1.11-.06.11-.08.23-.08.36-.16.86-.46 1.71-.87 2.49-.08.11-.15.23-.17.36-.27.48-.59.92-.92 1.36-.06.05-.1.1-.15.16-.24.3-.49.54-.75.8-.06.04-.11.08-.16.12-.3.3-.64.59-1.01.82-.05.03-.09.06-.14.1-2.29 1.55-5.07 2.19-7.78 2.22-2.3.07-4.61-.43-6.69-1.45a.774.774 0 0 1-.16-.07c-.35-.19-.71-.36-1.03-.59-.07-.03-.14-.08-.22-.12-.34-.2-.65-.42-.94-.67-.1-.09-.21-.16-.32-.24-.32-.27-.65-.55-.93-.87-.07-.08-.14-.16-.22-.23-.98-1.03-1.74-2.3-2.14-3.67-.39-1.09-.33-2.28-.38-3.42-.32-.5-1-.784-1.53-.473-.22.165-.25.47-.42.68-.28 3.02.98 6.03 2.99 8.21 0 .07.03.117.1.14.35.34.7.69 1.06 1.02.06.06.13.13.21.18.353.3.74.58 1.113.86.07.06.146.1.226.15.49.29.953.64 1.48.84.035.03.1.07.133.09 1.7.834 3.53 1.4 5.41 1.585.2 0 .41.02.61.065.89.06 1.79.03 2.68.01 2.76-.246 5.61-.93 7.92-2.6l.025.04c.07-.06.133-.12.205-.17.37-.278.73-.57 1.08-.87.08-.067.17-.14.25-.22.4-.44.85-.84 1.18-1.35l.06.03c.03-.05.07-.14.1-.185.307-.42.58-.86.85-1.3.02-.03.06-.07.08-.1l-.033-.04.118-.14c.49-1.03.93-2.1 1.08-3.24.066-.03.1-.09.1-.15.01-.37.136-.72.1-1.08.08-.45.088-.91.07-1.37z"/><g transform="translate(193.393 39.803)"><mask id="f" fill="#fff"><use xlink:href="#e"/></mask><path stroke="#D1D1D1" stroke-width="1.201" d="M-.624 1.183c.724.233 2.388-.353 2.86.183M-.207 3.442c.694-.247 2.182-.833 2.8-.488M.508 5.7c.335.113.997-.49 1.325-.668.49-.264.99-.466 1.534-.552M1.58 8.082c.346-.504.76-.922 1.26-1.28.496-.355 1.852-1.303 2.434-.98m-2.68 3.97c.39-.32.55-.887.964-1.223.5-.41 1.263-.48 1.775-.74m-1.057 3.22c.117-.89.994-1.95 1.83-1.88m-.536 3.12c.443-.05.818-1.06 1.117-1.41.448-.51.912-.67 1.505-.85m-.06 3.35c-.03-.64.618-2.48 1.37-2.38m.538 3c-.033-.76.35-3.04 1.25-3.12m.715 4.33c-.17-1.06-.16-2.59.655-3.36m1.787 3.6c-.09-.88-.946-2.67 0-3.36m2.62 2.75c-.407-.48-.645-2.4-.475-2.93m2.978 2.5c-.315-.58-.705-1.13-.825-1.81-.07-.41.054-.99-.01-1.3m2.92 2.19c-.683-.46-.873-2.14-.655-2.87m2.68 1.95c-.485-1.07-1.004-1.9-1.012-3.12m2.978 1.16c-.755-.52-1.72-1.47-1.608-2.51m3.692.9c-1.146-.26-2.524-1.317-3.215-2.26m4.17.24c-.828-.18-3.564-1.275-3.396-2.38m4.28.244c-1.15-.433-2.83-.823-3.75-1.648m4.35-.306c-.73.065-1.77-.296-2.51-.427-.82-.145-1.58-.428-2.38-.61M29.46 1c-1.403.086-2.718-.405-3.992-.854" mask="url(#f)"/></g><path fill="#107BD4" d="M43.518 45.206c1.295-.2 2.786-.325 3.885.5.684.527.928 1.478.88 2.33.048 1.402-.587 2.904-1.808 3.63-1.075.6-2.37.65-3.567.526-.806-.1-1.612-.55-2.028-1.302-.93-2.178.22-5.258 2.638-5.684zM4.77 46.784c.074-.75.734-1.427 1.49-1.402 5.645 0 11.264.025 16.883 0 .61-.05 1.27.225 1.564.776.415.75.048 1.577 0 2.354-.17 1.05-.122 2.454-1.32 2.854-4.104.125-8.21 0-12.313.05-.39 2.654-.757 5.283-1.148 7.912 0 .1.024.326.024.425 3.005-.025 6.01 0 9.015-.025.83-.05 1.71.677 1.637 1.578-.074.926-.27 1.828-.39 2.754-.1.626-.588 1.202-1.223 1.327-3.35.075-6.75-.075-10.09.075-.54 3.78-1.18 7.562-1.74 11.343-.08.75-.66 1.402-1.39 1.427-1.4.025-2.79.025-4.18 0-.9.025-1.64-1.002-1.39-1.878 1.49-9.865 3.03-19.705 4.57-29.57zm24.823-1.352c1.27-.1 2.565-.025 3.835-.05.782-.05 1.564.576 1.637 1.402 0 .65-.17 1.302-.244 1.953-1.02 6.71-2.07 13.42-3.1 20.13-.14 1.078-.41 2.23-.1 3.33.37 1.102 2.01.627 2.4 1.778.25.927-.02 1.903-.1 2.855-.07 1.252-1.46 1.527-2.42 1.803-2.07.4-4.59.1-6.08-1.653-1.07-1.277-1.15-3.08-.93-4.682 1.3-8.513 2.59-17.026 3.91-25.564.08-.626.56-1.202 1.2-1.302zm48.495 1.352c.073-.75.733-1.402 1.466-1.402h3.714c.928-.025 1.685 1.002 1.465 1.903-.855 5.558-1.734 11.117-2.59 16.675 1.296-.2 2.762-.45 3.666-1.527a23.209 23.209 0 0 0 3.68-5.91c.32-.825.49-2.027 1.54-2.177 1.39-.05 2.81-.026 4.2 0 .95-.026 1.66 1.076 1.34 1.977-.37 1.328-.98 2.554-1.62 3.73-1.42 2.355-2.98 4.683-5.03 6.536.9 2.77 2.05 5.48 3.05 8.21.29.9 1 1.95.34 2.83-.76 1.05-2.18.52-3.23.65-1.1-.13-2.69.45-3.3-.83-1.15-2.73-2.1-5.54-3.27-8.27-.69.02-1.4.05-2.08-.03l-.2.4c-.37 2.5-.76 5.01-1.15 7.51-.15.6-.61 1.12-1.25 1.17-1.29.05-2.61.02-3.93.02-.56 0-1.08-.38-1.32-.88-.25-.5-.1-1.08-.03-1.63 1.52-9.66 3.01-19.33 4.5-28.99zm67.894 2.73c.17-.7.83-1.178 1.515-1.153.977.03 1.98-.02 2.98.03.806.03 1.442.85 1.344 1.66-.14 1.43-.48 2.86-.58 4.28.95 0 1.93-.02 2.88 0 .86 0 1.57.9 1.42 1.76-.12.78-.29 1.53-.41 2.31-.12.65-.66 1.18-1.27 1.28-1.17.08-2.32-.05-3.47.08-.49 3.36-1.02 6.71-1.54 10.07-.07.78-.12 1.65.32 2.33.66.83 1.81.53 2.74.63.74.23 1.2 1.05 1.08 1.81-.12.86-.14 1.71-.34 2.53-.29.93-1.34 1.11-2.15 1.33-2.22.6-4.78.6-6.76-.72-1.83-1.28-2.13-3.75-1.93-5.86.51-4.05 1.32-8.08 1.76-12.17-.68.03-1.52.13-2.03-.5-.58-.62-.29-1.55-.19-2.33.15-.82.12-1.9 1-2.35.71-.28 1.52-.08 2.27-.18.47-1.6.91-3.2 1.39-4.78zm-13.804 8.11c1.54-1.576 3.396-2.88 5.522-3.53.928-.425 2.125.377 2.1 1.428-.17 1.377-.488 2.73-.708 4.08-.098.677-.66 1.253-1.32 1.328-2.393.426-4.47 1.903-6.13 3.656-.417.526-1.027 1.026-1.1 1.753-.513 3.5-1.05 7.01-1.588 10.51-.074.75-.71 1.47-1.466 1.42h-3.714c-.855.05-1.612-.83-1.515-1.71 1.07-6.94 2.15-13.85 3.2-20.79.05-.7.53-1.38 1.24-1.45.9-.05 1.8-.03 2.73-.03.73 0 1.41.68 1.41 1.45 0 1.08-.1 2.18-.13 3.28.58-.38.95-.98 1.44-1.43zm-91.323-3.178c1.32-.276 2.688-.05 4.007-.126.757-.1 1.564.4 1.686 1.177.098.7-.098 1.377-.17 2.053a4950.014 4950.014 0 0 0-2.982 19.305c-.073.726-.66 1.452-1.417 1.427-1.32 0-2.64.025-3.99-.025-.83-.1-1.44-1.077-1.22-1.903 1.05-6.685 2.05-13.345 3.1-20.03.05-.727.24-1.578.97-1.878zm79.06.324c-3.64-.7-7.355-1.2-11.044-.825-3.29.425-6.62 1.953-8.64 4.732-2.81 3.656-3.76 8.563-3.12 13.12.34 2.18 1.27 4.382 3.01 5.734 1.62 1.28 3.79 1.46 5.74 1.13 2.74-.55 5.06-2.35 6.97-4.35.1.85-.1 1.71-.05 2.53.05.78.73 1.5 1.49 1.45h2.49c.74 0 1.35-.7 1.39-1.42 1.05-6.78 2.1-13.54 3.13-20.3.15-.85-.51-1.68-1.34-1.78zm-6.866 11.794c-.98 1.878-2.35 3.58-3.89 5.033-.88.75-2.01 1.527-3.2 1.277-1.18-.25-1.74-1.502-2.01-2.58-.61-2.803-.05-5.858 1.49-8.287a5.217 5.217 0 0 1 3.05-2.328c1.78-.46 3.66-.23 5.4.27l.09.1c-.22 2.18-.64 4.33-.96 6.51zm-41.1-3.756c-.03-2.504-.69-5.132-2.4-7.01-1.18-1.327-2.93-2.003-4.64-1.98-2.84-.1-5.5 1.33-7.58 3.23-.47.377-.79.928-1.3 1.228 0-.826.07-1.652.05-2.503.02-.777-.69-1.453-1.42-1.453h-2.49c-.78 0-1.42.7-1.47 1.477-1.54 10.016-3.11 20.03-4.64 30.046-.22.927.56 1.878 1.49 1.853 1.36-.025 2.76.1 4.1-.1 1.07-.3 1.05-1.578 1.22-2.504.39-2.203.66-4.407.9-6.635 4.81.95 10.41.3 14-3.43 2.93-3.28 4.3-7.812 4.15-12.22zm-6.84 2.53c-.15 2.303-.96 4.63-2.52 6.31-2.03 1.977-5.11 1.7-7.6 1.026a2.209 2.209 0 0 1-.15-.3c.39-2.18.58-4.383 1.07-6.536 1.36-2.303 3.03-4.632 5.4-5.91.87-.424 2.07-.324 2.71.502 1.07 1.377 1.17 3.23 1.07 4.907z"/></g></svg>