<svg xmlns="http://www.w3.org/2000/svg" width="162" height="130"><path fill="#FFF" fill-rule="evenodd" d="M145.86 77.1l-4.57-4.723a.38.38 0 0 1-.066-.51l3.487-5.87a.769.769 0 0 0 .09-.336c0-.37-.3-.67-.67-.67h-2.55c-.26 0-.48.14-.61.35l-2.21 3.82c-.1.16-.32.19-.48.08l-3.57-3.66a.35.35 0 0 1-.08-.22c0-.09.04-.18.12-.25l.05-.04c2.02-1.17 4.32-2.9 4.32-5.93 0-3.49-2.5-5.83-6.23-5.83-3.65 0-6.43 2.45-6.43 6.1 0 1.61.67 3.21 2.06 4.9l.03.04c.06.07.08.16.07.25a.366.366 0 0 1-.13.238c-3.04 1.723-4.57 4.01-4.57 6.81 0 4.744 3.977 7.23 7.9 7.23 2.698 0 4.8-1.037 6.826-3.36l.04-.053c.12-.12.34-.12.48.02l2.45 2.54.06.065c.13.13.3.2.48.2h3.24c.376 0 .676-.3.676-.673a.66.66 0 0 0-.19-.46zm-12.94-20.306c1.535 0 2.358 1.06 2.358 2.35 0 1.51-1.348 2.385-2.973 3.294l-.082.035a.327.327 0 0 1-.392-.064c0-.01-.04-.04-.04-.04-.7-.78-1.53-2-1.53-2.9 0-1.51 1.08-2.69 2.67-2.69zm3.277 16.12l-.015.02c-1.176 1.402-2.474 2.34-4.357 2.34-2.238 0-3.986-1.61-3.986-3.66 0-1.817.77-2.893 3.07-4.28a.362.362 0 0 1 .45.034l4.79 5.023c.08.09.13.17.13.26v.01c0 .09-.03.17-.1.26zm-15.337 2.314l-.144.004c-3.67 0-5.53-1.95-5.53-5.778V58.16c0-.195.162-.354.36-.354h5.75a.69.69 0 0 0 .685-.685v-2.51c0-.37-.31-.68-.68-.68h-5.73c-.2 0-.38-.16-.38-.37v-5.19a.666.666 0 0 0-.65-.7h-.08l-2.94.23c-.36 0-.67.3-.67.69v5c0 .2-.16.36-.36.36h-3.61c-.37 0-.68.3-.68.68v2.53c.01.19.08.36.22.48.14.13.31.2.49.2h3.6c.2 0 .36.16.36.36v12.05c0 6.47 4.87 8.78 9.14 8.78 0 0 .51.01.9-.03s.68-.31.68-.68v-2.37c0-.375-.31-.68-.68-.68zm-16.463 2.04c-.233-.656-.297-1.382-.317-1.697-.012-.23-.022-1.18-.022-1.18V62.46c0-6.304-4.457-8.544-8.628-8.544-3.302 0-6.318.86-8.256 2.155a.725.725 0 0 0-.304.44c-.036.18 0 .35.1.5.01.02 1.536 2.08 1.536 2.08.215.3.637.37.937.15l.208-.14c1.52-.94 3.31-1.48 5.13-1.48 5.15 0 5 4.03 5 4.56 0 .27-.16.34-.35.33l-.79-.02c-4-.14-14.13 1.22-14.13 9.25 0 4.72 3.94 7.13 7.61 7.13 3.56 0 6.42-1.41 7.85-3.13l.02-.02c.02-.02.04-.03.08-.03.05 0 .09.04.09.09 0 .23 0 .73.05 1.16.04.39.09.68.15.9.06.19.18.38.36.47.09.046.19.075.29.077l2.86.004c.37 0 .67-.297.67-.657 0-.11-.09-.41-.09-.41zM99.96 67.92c-.58 4.118-2.608 6.5-6.355 7.113-2.637.433-5.024-.65-5.152-3.475-.142-3.102 3.46-5.707 10.113-5.42 0 0 .49.03.817.067.292.033.472.122.585.298.105.164.124.49-.007 1.417zm59.616 7.308l-.146.004c-3.67 0-5.53-1.95-5.53-5.778V58.16c0-.195.163-.354.358-.354h5.748c.38 0 .692-.31.692-.685v-2.51a.69.69 0 0 0-.692-.68h-5.728c-.21 0-.38-.16-.38-.37v-5.19a.67.67 0 0 0-.655-.7h-.078l-2.94.23a.68.68 0 0 0-.672.69v5c0 .2-.16.36-.362.36h-3.6c-.38 0-.68.3-.68.68v2.53c.01.19.08.36.22.48.13.13.31.2.49.2h3.6c.2 0 .36.16.36.36v12.05c0 6.47 4.87 8.78 9.14 8.78 0 0 .51.01.9-.03s.67-.31.67-.68l.01-2.37c0-.37-.3-.68-.68-.68zM0 64.28v.222c0 1.836.136 3.64.397 5.404 1.966 4.115 7.34 8.092 12.76 10.307 7.992 3.264 20.685 5.746 27.894 5.49 21.21-.76 28.95-9.62 31.42-14.945.35-2.033.54-4.123.54-6.256 0-1.387-.07-2.757-.22-4.104-.38 3.242-3.3 12.36-25.64 17.34-15.54 3.46-22.11 3.35-32.8-.013C6.14 75.143 1.21 69.572 0 64.28zm.79-7.363a36.126 36.126 0 0 1 2.038-6.527c-.14.658-.214 1.403-.214 2.3 0 9.005 19.476 17.884 43.345 11.37 9.3-2.542 23.2-7.417 23.2-14.885 0-.208.05-.57-.13-1.224 1.4 2.75 2.46 5.7 3.13 8.79v.13c0 1.84-2.28 13.05-24.68 15.08-1.94.18-16.17.4-28.54-2.73C10.72 67.14 2.46 63.12.9 57.53a3.978 3.978 0 0 1-.115-.604zM6 84.56a36.453 36.453 0 0 1-3.187-5.984c8.095 13.677 28.928 12.696 32.968 12.25 24.63-2.732 33-11.083 35.91-16.59a36.34 36.34 0 0 1-5.14 11c-7.73 7.675-25.51 16.064-51.41 5.37-3.84-1.587-6.93-3.834-9.13-6.046zm8.884 9.354A36.336 36.336 0 0 0 36.5 101c10.438 0 19.852-4.38 26.504-11.404-5.18 4.277-13.917 8.67-28.03 8.67-4.388 0-12.814-.553-20.09-4.352zm42.716-59.2A36.316 36.316 0 0 0 36.5 28c-13.126 0-24.634 6.928-31.066 17.328a2.656 2.656 0 0 0-.112.774c0 3.44 8.42 7.905 19.915 9.367 3.894.49 14.204 1.9 22.186 1.24 16.11-1.33 19.695-6.96 19.695-10.61 0-.69-.254-1.59-.59-2.36a36.594 36.594 0 0 0-5.1-5.91c.292.44.398.92.417 1.24.147 2.48-3.927 5.83-12.154 8.56-5.13 1.71-11.93 3.34-20.35 3.34-14.2 0-19.11-5.39-19.11-8.75 0-.36-.07-3.24 3.23-5.98a36.29 36.29 0 0 1 3.67-2.6c-1.67 1.07-2.56 2.27-2.47 3.5.27 3.7 10.08 6.61 21.91 6.31 11.84-.31 20.91-3.71 20.91-7.42 0-1.06-.79-2.01-2.19-2.83.8.46 1.57.96 2.33 1.49z"/></svg>