<svg xmlns="http://www.w3.org/2000/svg" width="110" height="72" xmlns:xlink="http://www.w3.org/1999/xlink"><defs><path id="a" d="M49.344 25.313c0 13.898-11.047 25.164-24.672 25.164S.002 39.21.002 25.313C.002 11.41 11.048.143 24.672.143c13.626 0 24.673 11.267 24.673 25.17z"/></defs><g fill="none" fill-rule="evenodd"><g transform="translate(0 13)"><mask id="b" fill="#fff"><use xlink:href="#a"/></mask><g mask="url(#b)"><path fill="#B2B4B6" d="M49.99 25.265c0 14.08-11.19 25.498-24.995 25.498C11.19 50.763 0 39.346 0 25.265 0 11.18 11.19-.235 24.995-.235c13.804 0 24.994 11.415 24.994 25.5z"/><path fill="#B2B4B7" d="M49.942 25.25c0 14.04-11.157 25.422-24.92 25.422C11.256 50.672.1 39.29.1 25.25.1 11.206 11.257-.175 25.02-.175c13.765 0 24.922 11.38 24.922 25.425z"/><path fill="#B2B4B7" d="M49.895 25.234c0 14-11.124 25.348-24.848 25.348C11.324 50.582.2 39.232.2 25.234c0-14 11.124-25.35 24.847-25.35 13.724 0 24.848 11.35 24.848 25.35z"/><path fill="#B3B5B8" d="M49.847 25.22c0 13.956-11.09 25.27-24.773 25.27S.3 39.177.3 25.22C.3 11.26 11.39-.057 25.074-.057c13.682 0 24.773 11.315 24.773 25.275z"/><path fill="#B4B6B8" d="M49.8 25.204C49.8 39.12 38.742 50.4 25.1 50.4S.4 39.12.4 25.204c0-13.92 11.058-25.2 24.7-25.2s24.7 11.28 24.7 25.2z"/><path fill="#B5B7B9" d="M49.753 25.19c0 13.873-11.026 25.12-24.627 25.12C11.526 50.31.5 39.063.5 25.19.5 11.31 11.525.064 25.126.064c13.6 0 24.627 11.247 24.627 25.124z"/><path fill="#B6B8BA" d="M49.705 25.174c0 13.832-10.992 25.045-24.553 25.045C11.592 50.22.6 39 .6 25.17S11.592.122 25.152.122c13.56 0 24.553 11.216 24.553 25.05z"/><path fill="#B7B9BB" d="M49.658 25.158c0 13.79-10.96 24.97-24.48 24.97S.7 38.948.7 25.158C.7 11.364 11.658.184 25.18.184c13.518 0 24.478 11.18 24.478 24.974z"/><path fill="#B7B9BC" d="M49.61 25.143c0 13.75-10.926 24.895-24.405 24.895C11.725 50.038.8 38.892.8 25.143.8 11.39 11.724.243 25.204.243S49.61 11.39 49.61 25.143z"/><path fill="#B7B9BC" d="M49.563 25.128c0 13.708-10.894 24.82-24.332 24.82S.9 38.835.9 25.128C.9 11.418 11.79.303 25.23.303c13.44 0 24.333 11.113 24.333 24.824z"/><path fill="#B8BABC" d="M49.547 25.115c0 13.678-10.87 24.766-24.28 24.766-13.41 0-24.28-11.08-24.28-24.76C.987 11.44 11.857.35 25.267.35c13.41 0 24.28 11.087 24.28 24.77z"/><path fill="#B9BBBD" d="M49.53 25.1c0 13.65-10.847 24.714-24.228 24.714-13.38 0-24.228-11.064-24.228-24.713C1.074 11.45 11.92.39 25.302.39 38.682.388 49.53 11.45 49.53 25.1z"/><path fill="#BABCBE" d="M49.513 25.088c0 13.62-10.823 24.66-24.176 24.66-13.352 0-24.175-11.04-24.175-24.66C1.162 11.465 11.985.424 25.337.424c13.353 0 24.176 11.04 24.176 24.664z"/><path fill="#BBBDBF" d="M49.496 25.075c0 13.59-10.8 24.607-24.123 24.607-13.324 0-24.124-11.017-24.124-24.607C1.25 11.48 12.05.465 25.37.465s24.123 11.016 24.123 24.61z"/><path fill="#BCBDC0" d="M49.48 25.062c0 13.56-10.777 24.554-24.072 24.554S1.338 38.623 1.338 25.062C1.338 11.497 12.112.504 25.408.504S49.48 11.497 49.48 25.062z"/><path fill="#BCBEC0" d="M49.463 25.048c0 13.532-10.754 24.5-24.02 24.5-13.265 0-24.02-10.968-24.02-24.5C1.423 11.513 12.18.544 25.443.544c13.267 0 24.02 10.97 24.02 24.504z"/><path fill="#BDBFC1" d="M49.446 25.035c0 13.502-10.73 24.447-23.967 24.447-13.24 0-23.97-10.945-23.97-24.447C1.51 11.53 12.24.583 25.48.583c13.236 0 23.966 10.946 23.966 24.452z"/><path fill="#BEC0C2" d="M49.43 25.02c0 13.476-10.708 24.397-23.915 24.397-13.21 0-23.915-10.92-23.915-24.394 0-13.476 10.706-24.4 23.915-24.4 13.207 0 23.915 10.924 23.915 24.4z"/><path fill="#BFC1C3" d="M49.413 25.01c0 13.442-10.684 24.34-23.863 24.34-13.18 0-23.863-10.898-23.863-24.34C1.687 11.56 12.37.663 25.55.663s23.863 10.9 23.863 24.347z"/><path fill="#C0C2C4" d="M49.396 24.995c0 13.414-10.66 24.288-23.81 24.288-13.15 0-23.812-10.874-23.812-24.288C1.774 11.578 12.434.703 25.586.703c13.15 0 23.81 10.875 23.81 24.292z"/><path fill="#C1C2C4" d="M49.38 24.982c0 13.384-10.638 24.235-23.76 24.235-13.122 0-23.758-10.85-23.758-24.235 0-13.388 10.636-24.24 23.76-24.24 13.12 0 23.757 10.852 23.757 24.24z"/><path fill="#C1C3C5" d="M49.363 24.97c0 13.354-10.614 24.18-23.706 24.18-13.094 0-23.707-10.826-23.707-24.18C1.95 11.61 12.563.782 25.657.782 38.75.782 49.363 11.61 49.363 24.97z"/><path fill="#C2C4C6" d="M49.346 24.956c0 13.326-10.59 24.128-23.654 24.128-13.065 0-23.655-10.802-23.655-24.128 0-13.33 10.59-24.133 23.655-24.133 13.064 0 23.654 10.803 23.654 24.133z"/><path fill="#C3C5C7" d="M49.33 24.942c0 13.297-10.568 24.076-23.602 24.076-13.037 0-23.603-10.78-23.603-24.076 0-13.3 10.566-24.08 23.603-24.08 13.034 0 23.6 10.78 23.6 24.08z"/><path fill="#C4C6C8" d="M49.312 24.93c0 13.266-10.543 24.02-23.55 24.02-13.007 0-23.55-10.754-23.55-24.02C2.212 11.657 12.755.902 25.762.902c13.007 0 23.55 10.755 23.55 24.026z"/><path fill="#C5C6C8" d="M49.296 24.915c0 13.24-10.52 23.97-23.497 23.97-12.98 0-23.5-10.73-23.5-23.97C2.3 11.675 12.82.942 25.8.942c12.975 0 23.496 10.732 23.496 23.973z"/><path fill="#C5C7C9" d="M49.28 24.902c0 13.21-10.498 23.916-23.447 23.916-12.95 0-23.446-10.707-23.446-23.916C2.387 11.69 12.884.982 25.833.982c12.95 0 23.447 10.708 23.447 23.92z"/><path fill="#C6C8CA" d="M49.263 24.89c0 13.178-10.474 23.862-23.393 23.862-12.922 0-23.395-10.684-23.395-23.863 0-13.19 10.473-23.87 23.395-23.87 12.92 0 23.393 10.68 23.393 23.86z"/><path fill="#C7C9CB" d="M49.246 24.876c0 13.15-10.45 23.81-23.342 23.81S2.562 38.026 2.562 24.876c0-13.154 10.45-23.814 23.342-23.814 12.89 0 23.342 10.66 23.342 23.814z"/><path fill="#C8CACC" d="M49.23 24.862c0 13.12-10.43 23.757-23.29 23.757-12.863 0-23.29-10.64-23.29-23.76C2.65 11.73 13.077 1.1 25.94 1.1c12.86 0 23.29 10.637 23.29 23.76z"/><path fill="#C9CBCC" d="M49.213 24.85c0 13.09-10.405 23.703-23.238 23.703-12.834 0-23.237-10.613-23.237-23.704 0-13.1 10.402-23.71 23.237-23.71 12.833 0 23.238 10.61 23.238 23.7z"/><path fill="#CACBCD" d="M49.196 24.836c0 13.062-10.38 23.65-23.185 23.65-12.8 0-23.18-10.588-23.18-23.65 0-13.066 10.38-23.654 23.19-23.654s23.19 10.59 23.19 23.654z"/><path fill="#CBCCCE" d="M49.18 24.822c0 13.033-10.36 23.598-23.134 23.598-12.777 0-23.133-10.565-23.133-23.598 0-13.035 10.356-23.6 23.133-23.6 12.775 0 23.133 10.565 23.133 23.6z"/><path fill="#CBCDCF" d="M49.163 24.81c0 13.002-10.335 23.543-23.08 23.543C13.333 48.353 3 37.813 3 24.81 3 11.802 13.334 1.26 26.082 1.26c12.746 0 23.08 10.54 23.08 23.547z"/><path fill="#CCCED0" d="M49.146 24.796c0 12.974-10.31 23.49-23.03 23.49C13.4 48.286 3.09 37.77 3.09 24.796 3.09 11.82 13.4 1.304 26.12 1.304c12.717 0 23.028 10.517 23.028 23.494z"/><path fill="#CDCFD0" d="M49.13 24.783c0 12.944-10.29 23.437-22.977 23.437-12.69 0-22.978-10.493-22.978-23.437 0-12.948 10.287-23.44 22.978-23.44 12.688 0 22.976 10.492 22.976 23.44z"/><path fill="#CECFD1" d="M49.112 24.77c0 12.915-10.265 23.384-22.924 23.384-12.662 0-22.925-10.47-22.925-23.384 0-12.92 10.263-23.39 22.925-23.39 12.66 0 22.924 10.47 22.924 23.39z"/><path fill="#CFD0D2" d="M49.096 24.756c0 12.886-10.242 23.332-22.872 23.332-12.634 0-22.874-10.446-22.874-23.332 0-12.89 10.24-23.335 22.874-23.335 12.63 0 22.872 10.45 22.872 23.34z"/><path fill="#D0D1D3" d="M49.08 24.743c0 12.856-10.22 23.28-22.82 23.28-12.605 0-22.822-10.424-22.822-23.28 0-12.86 10.217-23.282 22.82-23.282s22.82 10.43 22.82 23.29z"/><path fill="#D0D2D3" d="M49.062 24.73c0 12.827-10.194 23.225-22.767 23.225-12.576 0-22.77-10.398-22.77-23.225C3.525 11.9 13.72 1.5 26.295 1.5c12.573 0 22.767 10.4 22.767 23.23z"/><path fill="#D1D3D4" d="M49.045 24.716c0 12.798-10.17 23.172-22.715 23.172-12.547 0-22.717-10.374-22.717-23.172 0-12.8 10.17-23.175 22.717-23.175 12.544 0 22.715 10.38 22.715 23.18z"/><path fill="#D2D3D5" d="M49.01 24.698c0 12.756-10.138 23.097-22.642 23.097-12.506 0-22.644-10.34-22.644-23.097 0-12.76 10.138-23.1 22.644-23.1 12.504 0 22.643 10.34 22.643 23.1z"/><path fill="#D3D4D6" d="M48.976 24.68c0 12.715-10.106 23.022-22.57 23.022-12.465 0-22.57-10.307-22.57-23.023 0-12.72 10.105-23.03 22.57-23.03 12.464 0 22.57 10.31 22.57 23.02z"/><path fill="#D4D5D7" d="M48.94 24.66c0 12.675-10.07 22.95-22.494 22.95-12.426 0-22.498-10.275-22.498-22.95 0-12.676 10.072-22.95 22.498-22.95 12.423 0 22.495 10.274 22.495 22.95z"/><path fill="#D5D6D7" d="M48.906 24.642c0 12.633-10.04 22.874-22.422 22.874-12.385 0-22.424-10.24-22.424-22.874 0-12.636 10.04-22.876 22.424-22.876 12.382 0 22.422 10.24 22.422 22.876z"/><path fill="#D5D7D8" d="M48.87 24.623c0 12.592-10.006 22.8-22.348 22.8-12.344 0-22.35-10.208-22.35-22.8 0-12.594 10.006-22.8 22.35-22.8 12.342 0 22.35 10.206 22.35 22.8z"/><path fill="#D6D7D9" d="M48.837 24.605c0 12.55-9.974 22.724-22.276 22.724S4.29 37.15 4.29 24.6c0-12.553 9.974-22.727 22.278-22.727 12.303 0 22.277 10.174 22.277 22.727z"/><path fill="#D7D8DA" d="M48.802 24.587c0 12.508-9.94 22.65-22.203 22.65-12.27 0-22.21-10.142-22.21-22.65 0-12.513 9.94-22.653 22.2-22.653s22.2 10.14 22.2 22.653z"/><path fill="#D8D9DB" d="M48.768 24.568c0 12.468-9.91 22.574-22.13 22.574-12.223 0-22.13-10.106-22.13-22.574 0-12.47 9.907-22.577 22.13-22.577 12.22 0 22.13 10.11 22.13 22.58z"/><path fill="#D8D9DB" d="M48.732 24.55c0 12.426-9.875 22.5-22.056 22.5-12.183 0-22.057-10.074-22.057-22.5 0-12.43 9.87-22.504 22.05-22.504 12.18 0 22.05 10.074 22.05 22.503z"/><path fill="#D9DADB" d="M48.698 24.53c0 12.386-9.842 22.426-21.983 22.426-12.142 0-21.984-10.04-21.984-22.425 0-12.38 9.85-22.42 21.99-22.42 12.14 0 21.99 10.04 21.99 22.43z"/><path fill="#D9DBDC" d="M48.663 24.513c0 12.343-9.81 22.35-21.91 22.35s-21.91-10.007-21.91-22.35c0-12.348 9.81-22.354 21.91-22.354s21.91 10 21.91 22.35z"/><path fill="#DADCDD" d="M48.628 24.494c0 12.302-9.776 22.275-21.836 22.275-12.06 0-21.838-9.98-21.838-22.28 0-12.31 9.777-22.28 21.838-22.28 12.06 0 21.836 9.97 21.836 22.28z"/><path fill="#DBDCDE" d="M48.594 24.475c0 12.262-9.745 22.2-21.764 22.2-12.02 0-21.764-9.938-21.764-22.2C5.066 12.21 14.81 2.27 26.83 2.27s21.764 9.94 21.764 22.205z"/><path fill="#DCDDDE" d="M48.56 24.457c0 12.22-9.713 22.125-21.69 22.125-11.98 0-21.692-9.905-21.692-22.125 0-12.223 9.71-22.13 21.69-22.13s21.69 9.907 21.69 22.13z"/><path fill="#DDDEDF" d="M48.525 24.438c0 12.18-9.68 22.052-21.618 22.052-11.94 0-21.617-9.873-21.617-22.052 0-12.182 9.678-22.054 21.617-22.054 11.938 0 21.618 9.872 21.618 22.054z"/><path fill="#DEDFE0" d="M48.49 24.42c0 12.137-9.646 21.976-21.544 21.976-11.9 0-21.544-9.84-21.544-21.976 0-12.14 9.645-21.98 21.544-21.98 11.898 0 21.544 9.84 21.544 21.98z"/><path fill="#DEE0E1" d="M48.455 24.4c0 12.097-9.613 21.903-21.47 21.903-11.86 0-21.47-9.806-21.47-21.902 0-12.09 9.61-21.9 21.47-21.9 11.857 0 21.47 9.81 21.47 21.91z"/><path fill="#DFE0E2" d="M48.42 24.383c0 12.055-9.58 21.827-21.397 21.827-11.818 0-21.397-9.772-21.397-21.827 0-12.058 9.58-21.83 21.397-21.83 11.817 0 21.397 9.772 21.397 21.83z"/><path fill="#E0E1E2" d="M48.386 24.364c0 12.014-9.548 21.752-21.325 21.752S5.74 36.378 5.74 24.364c0-12.017 9.546-21.756 21.324-21.756 11.778 0 21.326 9.74 21.326 21.756z"/><path fill="#E1E2E3" d="M48.34 24.336c0 11.947-9.494 21.63-21.206 21.63-11.71 0-21.204-9.683-21.204-21.63 0-11.95 9.493-21.634 21.204-21.634 11.712 0 21.206 9.684 21.206 21.634z"/><path fill="#E2E3E4" d="M48.295 24.308c0 11.88-9.44 21.51-21.087 21.51-11.646 0-21.086-9.63-21.086-21.51 0-11.882 9.44-21.513 21.086-21.513 11.646 0 21.087 9.63 21.087 21.513z"/><path fill="#E3E4E5" d="M48.25 24.28c0 11.814-9.388 21.39-20.97 21.39-11.58 0-20.966-9.576-20.966-21.39S15.7 2.89 27.28 2.89c11.582 0 20.97 9.577 20.97 21.393z"/><path fill="#E3E4E5" d="M48.205 24.253c0 11.746-9.335 21.268-20.85 21.268S6.505 36 6.505 24.26c0-11.75 9.335-21.27 20.85-21.27s20.85 9.52 20.85 21.27z"/><path fill="#E4E5E6" d="M48.16 24.225c0 11.68-9.282 21.147-20.732 21.147s-20.73-9.467-20.73-21.147c0-11.682 9.28-21.15 20.73-21.15 11.45 0 20.73 9.468 20.73 21.15z"/><path fill="#E5E6E7" d="M48.114 24.197c0 11.613-9.228 21.027-20.613 21.027-11.38 0-20.61-9.414-20.61-21.027 0-11.614 9.23-21.03 20.61-21.03 11.39 0 20.62 9.416 20.62 21.03z"/><path fill="#E6E7E8" d="M48.07 24.17c0 11.545-9.176 20.905-20.495 20.905-11.318 0-20.493-9.36-20.493-20.905 0-11.548 9.175-20.908 20.493-20.908 11.32 0 20.494 9.36 20.494 20.908z"/><path fill="#E7E8E9" d="M48.023 24.142c0 11.48-9.12 20.784-20.375 20.784-11.252 0-20.373-9.305-20.373-20.784 0-11.48 9.12-20.787 20.373-20.787 11.254 0 20.375 9.306 20.375 20.787z"/><path fill="#E7E8E9" d="M47.978 24.115c0 11.41-9.068 20.662-20.256 20.662-11.186 0-20.255-9.25-20.255-20.662 0-11.415 9.07-20.666 20.255-20.666 11.188 0 20.256 9.25 20.256 20.66z"/><path fill="#E8E8E9" d="M47.933 24.087c0 11.344-9.015 20.542-20.137 20.542S7.66 35.43 7.66 24.08c0-11.348 9.014-20.545 20.136-20.545s20.137 9.197 20.137 20.545z"/><path fill="#E9E9EA" d="M47.888 24.06c0 11.277-8.962 20.42-20.02 20.42-11.054 0-20.017-9.143-20.017-20.42 0-11.282 8.97-20.424 20.02-20.424s20.02 9.142 20.02 20.423z"/><path fill="#E9EAEB" d="M47.843 24.03c0 11.212-8.91 20.302-19.9 20.302-10.99 0-19.9-9.09-19.9-20.3 0-11.215 8.91-20.303 19.9-20.303 10.99 0 19.9 9.08 19.9 20.3z"/><path fill="#EAEBEC" d="M47.797 24.004c0 11.144-8.856 20.18-19.78 20.18-10.925 0-19.782-9.036-19.782-20.18 0-11.147 8.857-20.182 19.78-20.182 10.926 0 19.782 9.035 19.782 20.182z"/><path fill="#EBECED" d="M47.752 23.976c0 11.077-8.803 20.058-19.663 20.058S8.42 35.054 8.42 23.976c0-11.08 8.803-20.06 19.66-20.06 10.86 0 19.664 8.98 19.664 20.06z"/><path fill="#ECEDED" d="M47.707 23.948c0 11.01-8.75 19.937-19.545 19.937-10.792 0-19.542-8.927-19.542-19.937 0-11.013 8.75-19.94 19.542-19.94 10.795 0 19.545 8.927 19.545 19.94z"/><path fill="#EDEDEE" d="M47.66 23.92c0 10.944-8.695 19.816-19.424 19.816-10.727 0-19.424-8.872-19.424-19.816 0-10.946 8.697-19.817 19.424-19.817 10.73 0 19.425 8.87 19.425 19.817z"/><path fill="#EEEEEF" d="M47.532 23.874c0 10.814-8.593 19.582-19.196 19.582-10.6 0-19.194-8.768-19.194-19.582 0-10.817 8.595-19.584 19.194-19.584 10.603 0 19.196 8.767 19.196 19.584z"/><path fill="#EEEFF0" d="M47.402 23.83c0 10.683-8.49 19.346-18.965 19.346-10.474 0-18.965-8.663-18.965-19.347 0-10.69 8.49-19.35 18.965-19.35s18.965 8.66 18.965 19.35z"/><path fill="#EFF0F0" d="M47.273 23.782c0 10.555-8.387 19.113-18.736 19.113C18.19 42.895 9.8 34.337 9.8 23.782c0-10.558 8.39-19.115 18.737-19.115 10.35 0 18.736 8.557 18.736 19.115z"/><path fill="#F0F1F1" d="M47.144 23.736c0 10.426-8.285 18.88-18.506 18.88-10.22 0-18.507-8.454-18.507-18.88 0-10.428 8.29-18.88 18.51-18.88 10.22 0 18.51 8.452 18.51 18.88z"/><path fill="#F1F1F2" d="M47.015 23.69c0 10.297-8.182 18.645-18.277 18.645-10.093 0-18.276-8.348-18.276-18.644 0-10.3 8.183-18.64 18.276-18.64 10.095 0 18.277 8.35 18.277 18.65z"/><path fill="#F2F2F3" d="M46.885 23.644c0 10.167-8.08 18.41-18.047 18.41-9.966 0-18.047-8.243-18.047-18.41 0-10.17 8.09-18.413 18.05-18.413s18.05 8.25 18.05 18.42z"/><path fill="#F3F3F3" d="M46.756 23.598c0 10.038-7.976 18.176-17.817 18.176-9.84 0-17.82-8.138-17.82-18.176 0-10.04 7.98-18.178 17.82-18.178s17.81 8.137 17.81 18.178z"/><path fill="#F3F4F4" d="M46.627 23.552c0 9.91-7.874 17.942-17.588 17.942-9.72 0-17.59-8.033-17.59-17.942 0-9.91 7.87-17.944 17.59-17.944 9.71 0 17.58 8.033 17.58 17.944z"/><path fill="#F3F4F4" d="M46.498 23.506c0 9.78-7.772 17.708-17.36 17.708-9.584 0-17.357-7.93-17.357-17.708 0-9.782 7.78-17.71 17.36-17.71 9.59 0 17.36 7.928 17.36 17.71z"/><path fill="#F4F5F5" d="M46.368 23.46c0 9.65-7.668 17.474-17.128 17.474S12.11 33.11 12.11 23.46c0-9.652 7.67-17.476 17.13-17.476 9.46 0 17.128 7.824 17.128 17.477z"/><path fill="#F5F6F6" d="M46.24 23.414c0 9.52-7.567 17.24-16.9 17.24-9.332 0-16.9-7.72-16.9-17.24 0-9.523 7.568-17.242 16.9-17.242 9.333 0 16.9 7.72 16.9 17.242z"/><path fill="#F6F6F7" d="M46.078 23.35c0 9.336-7.42 16.906-16.574 16.906-9.153 0-16.575-7.57-16.575-16.907 0-9.35 7.42-16.92 16.57-16.92S46.07 14 46.07 23.34z"/><path fill="#F7F7F8" d="M45.917 23.283c0 9.154-7.275 16.576-16.25 16.576-8.973 0-16.25-7.43-16.25-16.58 0-9.16 7.277-16.58 16.25-16.58 8.975 0 16.25 7.42 16.25 16.58z"/><path fill="#F8F8F9" d="M45.756 23.217c0 8.97-7.13 16.244-15.925 16.244-8.79 0-15.92-7.27-15.92-16.24 0-8.97 7.13-16.25 15.93-16.25s15.93 7.28 15.93 16.25z"/><path fill="#F9F9FA" d="M45.595 23.15c0 8.79-6.984 15.914-15.6 15.914-8.615 0-15.6-7.124-15.6-15.913 0-8.79 6.985-15.91 15.6-15.91 8.616 0 15.6 7.13 15.6 15.92z"/><path fill="#FAFBFB" d="M45.434 23.085c0 8.606-6.84 15.58-15.275 15.58-8.44 0-15.28-6.974-15.28-15.58 0-8.61 6.84-15.585 15.27-15.585s15.28 6.976 15.28 15.585z"/><path fill="#FAFBFB" d="M45.274 23.02c0 8.422-6.694 15.25-14.95 15.25-8.258 0-14.95-6.828-14.95-15.25 0-8.427 6.692-15.254 14.95-15.254 8.256 0 14.95 6.827 14.95 15.253z"/><path fill="#FCFCFC" d="M45.054 22.97c0 8.25-6.557 14.94-14.646 14.94-8.088 0-14.645-6.69-14.645-14.94 0-8.255 6.557-14.943 14.645-14.943 8.09 0 14.646 6.688 14.646 14.942z"/><path fill="#FDFDFD" d="M44.835 22.92c0 8.078-6.42 14.628-14.342 14.628-7.92 0-14.34-6.55-14.34-14.63 0-8.08 6.42-14.63 14.34-14.63s14.342 6.55 14.342 14.63z"/><path fill="#FDFDFD" d="M44.615 22.87c0 7.907-6.284 14.318-14.036 14.318-7.76 0-14.04-6.41-14.04-14.32S22.82 8.55 30.58 8.55c7.75 0 14.035 6.41 14.035 14.32z"/><path fill="#FFF" d="M44.396 22.82c0 7.735-6.148 14.007-13.732 14.007-7.583 0-13.732-6.272-13.732-14.008 0-7.74 6.15-14.01 13.732-14.01 7.584 0 13.732 6.27 13.732 14.01z"/></g></g><path fill="#000" d="M99.04 47.006l-3.102-3.27a.27.27 0 0 1-.045-.355c.005 0 2.368-4.06 2.368-4.06.06-.11.06-.19.06-.23 0-.25-.2-.46-.46-.46h-1.73c-.17 0-.33.1-.41.24l-1.5 2.64a.23.23 0 0 1-.33.06l-2.42-2.54c-.04-.04-.05-.1-.05-.15 0-.06.03-.12.08-.17l.03-.03c1.37-.81 2.93-2.01 2.93-4.11 0-2.42-1.7-4.04-4.23-4.04-2.48 0-4.36 1.698-4.36 4.22 0 1.11.45 2.22 1.39 3.39l.02.03c.04.04.06.11.05.17a.25.25 0 0 1-.09.16c-2.06 1.2-3.1 2.78-3.1 4.72 0 3.29 2.7 5.01 5.36 5.01 1.83 0 3.26-.714 4.64-2.324l.03-.034c.08-.08.23-.08.327.016l1.666 1.76.043.046c.09.09.207.14.33.14h2.2c.258 0 .46-.21.46-.47a.47.47 0 0 0-.125-.32zm-8.786-14.064c1.042 0 1.6.734 1.6 1.628 0 1.046-.914 1.652-2.017 2.28l-.056.026a.21.21 0 0 1-.26-.045l-.03-.02c-.48-.53-1.04-1.38-1.04-2 0-1.04.74-1.86 1.81-1.86zm2.225 11.166l-.01.013c-.8.98-1.68 1.62-2.96 1.62-1.52 0-2.71-1.11-2.71-2.53 0-1.26.53-2 2.09-2.96a.24.24 0 0 1 .31.03l3.25 3.48c.06.06.08.12.08.18v.01c0 .06-.02.12-.06.18zM82.06 45.71l-.097.003c-2.493 0-3.756-1.35-3.756-4.003v-7.822c0-.135.11-.245.245-.245h3.904a.474.474 0 0 0 .467-.474v-1.74a.47.47 0 0 0-.466-.48h-3.89a.262.262 0 0 1-.257-.26V27.1a.471.471 0 0 0-.444-.49h-.054l-1.997.16c-.25 0-.458.21-.458.474v3.463a.243.243 0 0 1-.242.245h-2.45a.468.468 0 0 0-.463.472l-.003 1.748c0 .13.05.25.14.33.09.09.21.137.33.137h2.44c.13 0 .24.1.24.24l-.01 8.34c0 4.48 3.3 6.08 6.2 6.08 0 0 .34 0 .602-.02.26-.03.46-.22.46-.48v-1.64a.47.47 0 0 0-.47-.47zm-11.178 1.413a4.658 4.658 0 0 1-.215-1.175c-.01-.162-.015-.82-.015-.82v-8.265c0-4.366-3.026-5.918-5.86-5.918-2.24 0-4.29.597-5.605 1.493a.486.486 0 0 0-.204.3.458.458 0 0 0 .067.346c.008.017 1.043 1.44 1.043 1.44a.452.452 0 0 0 .637.105l.14-.1c1.03-.65 2.246-1.03 3.482-1.03 3.497 0 3.394 2.79 3.394 3.16 0 .18-.11.23-.24.22l-.54-.01c-2.718-.11-9.597.84-9.597 6.4 0 3.27 2.67 4.93 5.16 4.93 2.41 0 4.35-.98 5.32-2.17l.01-.02c.01-.02.03-.03.05-.03.03 0 .06.03.06.06 0 .15 0 .5.03.8.02.27.05.47.1.62.04.13.12.26.24.32.06.03.13.05.19.05l1.94.003c.25 0 .46-.207.46-.456 0-.08-.07-.29-.07-.29zM67.87 40.65c-.395 2.85-1.772 4.5-4.316 4.92-1.79.3-3.413-.45-3.5-2.407-.097-2.148 2.35-3.952 6.866-3.755 0 0 .333.022.555.05.2.022.32.083.397.205.07.113.083.34-.005.982zm40.48 5.06h-.1c-2.49 0-3.756-1.35-3.756-4.004v-7.823c0-.135.11-.245.242-.245h3.902c.26 0 .47-.216.47-.475v-1.74a.472.472 0 0 0-.47-.475h-3.89a.256.256 0 0 1-.257-.257V27.1a.458.458 0 0 0-.44-.49H104l-1.996.16a.467.467 0 0 0-.455.473v3.463c0 .137-.11.246-.25.246h-2.45a.47.47 0 0 0-.47.472l-.01 1.748c0 .13.05.25.14.33.09.09.21.137.33.137h2.44c.13 0 .24.11.24.24v8.34c0 4.48 3.3 6.08 6.2 6.08 0 0 .34 0 .603-.02.26-.03.455-.22.455-.48l.003-1.64a.47.47 0 0 0-.47-.47z"/><path fill="#32A5DD" d="M2.02 29.86c0-1.077.15-1.834.437-2.508a25.61 25.61 0 0 1 1.615-2.895 1.785 1.785 0 0 0-.245.917c0 2.342 5.62 5.384 13.29 6.38 2.6.338 9.48 1.295 14.807.848 10.752-.906 13.143-4.736 13.143-7.228 0-.68-.362-1.675-.724-2.253.488.66.948 1.35 1.374 2.06.82 1.46.718 2.04.718 2.3 0 5.09-9.28 8.41-15.49 10.14C15.018 42.04 2.02 36 2.02 29.86zm5.082-7.128c0 2.293 3.273 5.96 12.752 5.96 5.62 0 10.158-1.11 13.583-2.272 5.49-1.86 8.21-4.136 8.112-5.83-.02-.264-.12-.692-.43-1.03a24.905 24.905 0 0 0-3.97-2.957c.93.558 1.46 1.205 1.46 1.926 0 2.52-6.05 4.84-13.95 5.04-7.9.21-14.45-1.78-14.63-4.3-.06-.84.53-1.66 1.65-2.39-.86.54-1.68 1.13-2.46 1.76-2.2 1.86-2.15 3.82-2.15 4.06zm20.57 29.612c-4.812.175-13.283-1.516-18.616-3.74-4.294-1.79-8.543-5.27-8.998-8.592.05.8.14 1.59.264 2.364 2.633 14.646 20.716 13.81 23.832 13.456C46.9 53.26 48.86 43.352 49.158 41.395c.048-.41.088-.818.118-1.232-.402 2.608-4.247 11.547-21.605 12.18zm-17.297 3.34C6.292 53.962 3.468 51.1 2.333 49.01a25.324 25.324 0 0 0 4.034 6.175c5.32 5.097 13.495 5.714 17.25 5.714 15.898 0 21.576-8.53 22.86-10.81.238-.46.462-.93.673-1.4-2.516 5.28-15.566 15.92-36.775 6.98zm38.503-21.3c0-.407-.048-1.214-.234-2.042a26.098 26.098 0 0 0-.455-1.657c.29 1.024.25 1.74.25 2.016 0 1.25-1.52 8.89-16.47 10.28-1.3.12-10.79.27-19.05-1.86-5.49-1.42-11-4.16-12.04-7.96-.17-.59-.1-1.14.03-1.65-.42 1.52-.7 3.11-.83 4.73.1 4 3.51 8.67 9.75 10.68 7.13 2.29 11.51 2.37 21.89.01 17.31-3.94 17.15-11.67 17.15-12.53z"/><path fill="#0096D7" d="M30.946 37.604c.42-.118.854-.243 1.3-.374a28.246 28.246 0 0 0-6.053-.646c-3.998 0-7.728.813-10.874 2.216 4.51.64 9.87.405 15.62-1.196zm-2.04-9.907c1.68-.375 3.19-.822 4.53-1.277.735-.25 1.416-.505 2.05-.765a54.047 54.047 0 0 0-4.688-.68c-4.3-.4-10.7.847-12.36 1.197-.51.107-2.848.602-5.695 1.614.67.203 1.408.378 2.22.52 2.577-.74 5.245-1.157 7.78-1.157 1.676 0 3.82.18 6.162.54zm.492 15.332c-1.57-.01-3.702-.08-6.107-.27-4.26.51-7.88 2.45-9.94 5.14.69.16 1.36.29 2.02.4 2.18-2.44 5.85-4.04 10.02-4.04 3.05 0 5.83.85 7.95 2.26.83-.22 1.62-.44 2.36-.67-1.69-1.33-3.85-2.32-6.28-2.84zM43.39 32.29c1.242-.937 2.197-1.975 2.685-3.116a15.447 15.447 0 0 0-2.003-1.05c-.726.946-1.912 1.886-3.766 2.672 1.09.454 2.127.952 3.084 1.494zm-5.462 2.96c1.306-.54 2.57-1.143 3.708-1.805-1.18-.643-2.554-1.226-4.15-1.722-1.543.39-3.38.693-5.562.877-.65.054-1.32.088-2.006.105a34.02 34.02 0 0 1 4.37 1.163 48.56 48.56 0 0 1 3.64 1.383zm2.912 5.71a24.67 24.67 0 0 1-3.79 1.2c1.043.643 1.98 1.37 2.79 2.165a25.76 25.76 0 0 0 3.072-1.593 17.078 17.078 0 0 0-2.072-1.772zM8.602 29.534c-1.93.964-3.818 2.162-5.333 3.626.23.3.49.596.78.884 1.65-1.495 3.74-2.83 6.06-3.92a23.84 23.84 0 0 1-1.51-.59zm6.144 12.007c-.61-.13-1.22-.27-1.82-.43-.382-.1-.765-.2-1.147-.31-2.01 1.41-3.59 3.12-4.62 5.02.63.33 1.3.62 2.01.88.59-1.08 1.39-2.08 2.37-2.96.92-.83 2-1.56 3.2-2.18zm-6.91 10.32c0-1.2.206-2.39.603-3.52-.67-.3-1.33-.64-1.97-1.01a10.36 10.36 0 0 0-.66 3.62c0 .25.01.49.03.73.65.5 1.34.95 2.05 1.34-.05-.38-.08-.76-.08-1.14zm13.41-19.6c-1.742-.18-3.205-.38-4.13-.5-.598-.08-1.185-.17-1.758-.27-3.32 1.08-6.23 2.69-8.507 4.63.47.26.96.51 1.48.75 3.31-2.45 7.84-4.13 12.92-4.59zm-6.924 24.9c-.68-.22-1.37-.46-2.07-.72.56 1.22 1.417 2.34 2.505 3.31.907.26 1.806.46 2.674.62-1.32-.87-2.38-1.96-3.1-3.19zm33.973-26.12l-.078-.25c.02.07.036.14.05.2l.028.06zM3.355 43.07c.61-1.608 1.612-3.108 2.93-4.45a19.261 19.261 0 0 1-1.27-.73c-1.157 1.293-2.048 2.68-2.62 4.114.293.364.613.72.96 1.066zm41.003-4.048c.585.495 1.08.988 1.5 1.474a12 12 0 0 0 1.48-1.7c-.29-.507-.63-1.02-1.036-1.532a12.333 12.333 0 0 1-1.944 1.758zM6.086 53.175c.213.914.55 1.8.99 2.65.878.743 1.818 1.38 2.793 1.927-.71-.972-1.26-2.016-1.6-3.113-.8-.46-1.53-.95-2.19-1.47zm28.727 6.003c1.16-.4 2.215-.852 3.177-1.337.37-.53.678-1.08.92-1.66-.803.41-1.66.79-2.57 1.14a9.17 9.17 0 0 1-1.527 1.87zm2.206-8.228c.22.603.36 1.234.42 1.88.72-.274 1.39-.562 2.03-.855a7.689 7.689 0 0 0-.44-1.7c-.64.242-1.31.467-2.02.675zm4.39-29.587c-1.14-.4-2.48-.7-3.99-.9-1.76 1.375-5.31 2.488-9.74 2.927 2.78.283 6.17.773 9.4 1.542 2.44-1.203 3.88-2.464 4.32-3.57zm-31.14-1.388a29.32 29.32 0 0 0-2.96 1.447c-.15.465-.2.843-.21 1.077 1.09-.58 2.39-1.16 3.84-1.73-.3-.26-.53-.52-.68-.8zM1.73 34.933a9.333 9.333 0 0 0-1.424 2.953c.074.327.17.655.29.983.37-1.07.984-2.11 1.797-3.11-.248-.27-.47-.55-.667-.83zm.93 11.852c0-.72.076-1.427.22-2.12-.356-.338-.69-.687-.992-1.04a9.2 9.2 0 0 0-.164 3.07c.324.65.687 1.253 1.084 1.82a10.342 10.342 0 0 1-.147-1.73zm6.214-20.95c2.602-1.207 5.795-2.168 9.56-2.567a27 27 0 0 1-3.528-.692c-2.47.697-4.79 1.532-6.814 2.494.22.258.478.514.78.764zm37.1 21.667a11.148 11.148 0 0 0-.46-1.113c-.79.73-1.737 1.46-2.864 2.14.172.46.312.94.412 1.42 1.19-.81 2.143-1.64 2.91-2.46zm2.66-5.335a12.408 12.408 0 0 1-.925 1.658c.1.367.17.72.21 1.062.4-.71.67-1.362.85-1.92-.04-.25-.09-.517-.15-.8zm.018-9.774c-.057-.24-.116-.477-.18-.714a2.045 2.045 0 0 0-.115-.25c.103.62.08 1.06.08 1.27 0 .41-.165 1.5-.91 2.83.34.4.64.82.89 1.25.472-1.24.457-2.15.457-2.41 0-.4-.047-1.18-.223-1.99zm-35.367 21.05c0-1.108.26-2.17.734-3.154-.61-.18-1.21-.35-1.8-.54a7.98 7.98 0 0 0-.57 4.84c.61.19 1.22.36 1.83.51-.13-.54-.2-1.1-.2-1.67zm29.84 0c-.064.36-.15.717-.252 1.068 2.015-1.82 3.112-3.54 3.594-4.4.02-.03.034-.06.05-.09-.005-.06-.01-.12-.02-.18-.75 1.13-1.88 2.39-3.374 3.62zm-4.53-35.223c.985.41 1.884.918 2.677 1.536a1.29 1.29 0 0 0-.137-.184 24.463 24.463 0 0 0-2.516-2.022 8.992 8.992 0 0 0-.71-.4c.36.334.6.69.68 1.07zm-34.54 6.266c-.07.108-.14.216-.208.324.036-.046.076-.093.117-.14a2.24 2.24 0 0 1 .09-.184zm40.418 3.032c.66.35 1.26.728 1.79 1.132.114-.383.17-.777.17-1.183 0-.25.102-.82-.688-2.242-.424-.71-.88-1.398-1.37-2.06l-.02-.02c.358.58.71 1.557.71 2.23 0 .648-.162 1.388-.592 2.143zm-39.018.244a6.657 6.657 0 0 1-.803-.72c-1.065.75-1.955 1.553-2.625 2.403a9.319 9.319 0 0 0-.008.416c0 .27.02.54.07.81.82-.93 1.94-1.94 3.36-2.9zM2.345 49.03a25.343 25.343 0 0 0 2 3.546c-.41-.67-.75-1.366-1.014-2.084-.4-.51-.73-1.005-.98-1.462zM.905 31.547c-.155.564-.29 1.136-.407 1.717.063-.223.16-.466.29-.727-.012-.344.04-.673.116-.99zm-.687 9.198a4.85 4.85 0 0 1-.16-.73c.04.615.1 1.225.184 1.827a6.39 6.39 0 0 1-.023-1.097z"/></g></svg>