<svg xmlns="http://www.w3.org/2000/svg" width="156" height="72"><g fill="none" fill-rule="evenodd"><path d="M0-1h156v72H0z"/><path fill="#000" fill-rule="nonzero" d="M72.286 47.62h-4.36l-3.38-13.58h-.056l-3.326 13.58h-4.442l-5.281-19.95h4.386l3.157 13.58h.056l3.464-13.58h4.109l3.41 13.748h.056l3.268-13.748h4.303l-5.364 19.95zm5.311-10.003c.224-3.688 3.55-4.833 6.789-4.833 2.879 0 6.343.642 6.343 4.109v7.514c0 1.314.14 2.628.503 3.215h-4.024a5.868 5.868 0 0 1-.277-1.396c-1.26 1.314-3.075 1.787-4.863 1.787-2.765 0-4.917-1.368-4.917-4.33.056-6.567 9.78-3.046 9.61-6.287 0-1.676-1.172-1.956-2.569-1.956-1.537 0-2.486.614-2.625 2.18h-3.97v-.003zm9.163 2.934c-.67.587-2.066.615-3.296.839-1.229.223-2.348.668-2.348 2.122 0 1.455 1.145 1.843 2.43 1.843 3.101 0 3.214-2.43 3.214-3.326v-1.478zm11.627-7.376h2.905v2.654h-2.905v7.152c0 1.34.334 1.676 1.676 1.676.446 0 .867-.028 1.229-.11v3.1c-.67.11-1.535.139-2.318.139-2.46 0-4.555-.53-4.555-3.437v-8.52h-2.402v-2.654h2.402v-4.332h3.968v4.332zm8.017 9.752c0 1.704 1.51 2.43 3.046 2.43 1.119 0 2.6-.447 2.6-1.843 0-1.201-1.676-1.65-4.5-2.233-2.319-.533-4.58-1.288-4.58-3.857 0-3.69 3.185-4.64 6.285-4.64 3.129 0 6.062 1.063 6.372 4.612h-3.773c-.11-1.537-1.285-1.956-2.71-1.956-.895 0-2.207.139-2.207 1.34 0 1.425 2.264 1.62 4.499 2.153 2.32.529 4.581 1.368 4.581 4.05 0 3.798-3.324 5.028-6.593 5.028-3.352 0-6.65-1.258-6.788-5.084h3.768zm18.415-10.143c4.553 0 7.487 3.018 7.487 7.628 0 4.583-2.934 7.599-7.487 7.599-4.527 0-7.46-3.016-7.46-7.6 0-4.61 2.933-7.627 7.46-7.627zm0 12.239c2.71 0 3.521-2.292 3.521-4.611 0-2.32-.81-4.64-3.52-4.64-2.685 0-3.494 2.32-3.494 4.64s.81 4.61 3.493 4.61zm9.388-11.848h3.772v2.012h.085c1.004-1.65 2.736-2.403 4.414-2.403 4.219 0 5.281 2.375 5.281 5.952v8.884h-3.967v-8.158c0-2.374-.67-3.549-2.544-3.549-2.152 0-3.072 1.201-3.072 4.136v7.571h-3.97V33.175zM0 27.67h1.9v19.95H0V27.67zm17.101 9.416v-.058c2.068-.447 3.465-2.374 3.465-4.47 0-3.717-3.046-4.89-6.398-4.89H5.73v19.95h8.438c6.482 0 7.152-3.772 7.152-5.671 0-2.598-1.65-4.523-4.219-4.86zm-9.474-7.794h6.539c2.99 0 4.499 1.257 4.499 3.744 0 1.871-1.481 3.382-4.499 3.382H7.627v-7.126zM14.166 46H7.627v-7.965h6.539c3.352 0 5.253 1.285 5.253 3.857.002 3.24-2.43 4.108-5.253 4.108zm10.09-18.33h2.794l6.901 17.49 6.875-17.49h2.794v19.95h-1.9V30.381h-.056l-6.82 17.239h-1.788l-6.847-17.238h-.056V47.62h-1.901V27.67h.004zm128.285 0A3.44 3.44 0 0 1 156 31.12a3.45 3.45 0 0 1-3.459 3.49 3.458 3.458 0 0 1-3.478-3.49c0-1.957 1.588-3.45 3.478-3.45zm0 6.43c1.595 0 2.832-1.28 2.832-2.98 0-1.66-1.237-2.94-2.832-2.94-1.623 0-2.85 1.282-2.85 2.94.001 1.7 1.227 2.98 2.85 2.98zm-1.346-4.993h1.56c.96 0 1.411.38 1.411 1.16 0 .732-.461 1.04-1.06 1.103l1.152 1.79h-.673l-1.098-1.745h-.665v1.746h-.627v-4.054zm.627 1.8h.655c.554 0 1.06-.028 1.06-.668 0-.54-.461-.622-.885-.622h-.83v1.29z"/></g></svg>