<svg xmlns="http://www.w3.org/2000/svg" width="50" height="72"><g fill="none" fill-rule="evenodd"><path d="M0 0h50v72H0z"/><path fill="#FFF" d="M20.709 37.87c-3.116 1.513-7.07 4.22-7.07 7.194 0 1.103.553 1.798 1.585 1.798 3.045 0 4.915-4.843 5.485-8.992zm.819-12.963c0-.339-.196-.481-.481-.481-1.46 0-3.526 3.81-3.526 6.09 2.28-1.247 4.007-4.078 4.007-5.61zm12.268.285c0-.339-.07-.766-.498-.766-1.033 0-2.69 2.226-2.69 5.057 2.066-1.799 3.188-3.33 3.188-4.291zm5.11 17.45c0 3.116-2.688 6.374-6.641 6.374-4.772 0-7.194-4.024-7.194-7.62 0-5.058 3.455-7.194 4.915-7.96-.285-.214-.498-.48-.694-.837-1.673 1.175-3.187 2.226-6.374 4.024-.142 2.208-.338 4.63-.908 6.304-1.175 3.525-3.596 6.09-6.784 6.09-2.689 0-4.006-1.941-4.006-4.025 0-1.513.891-3.454 2.493-4.914 2.012-1.798 4.22-2.902 7.265-4.505.071-.409.143-.819.214-1.317-.765.694-1.869.98-2.777.98-1.442 0-2.635-1.246-2.902-2.564-1.94-.142-3.4-1.53-3.472-3.739 0-1.585.623-2.973 1.674-2.973.41 0 .552.34.552.624 0 .267-.356 1.175-.356 2.066 0 .908.428 2.084 1.532 2.084 0-3.597 2.635-8.245 5.751-8.245 2.066 0 2.35 1.531 2.35 2.226 0 3.259-3.257 6.855-5.893 7.746.072.285.357 1.05 1.193 1.05 1.033 0 2.28-.978 2.903-1.744.267-1.442 1.317-3.525 2.706-3.525.552 0 .82.41.82.908 0 1.032-1.105 2.35-1.942 3.24a12.51 12.51 0 0 0-.195 2.084c2.421-1.46 3.668-2.208 5.466-3.526-.142-.48-.142-1.05-.142-1.603 0-3.24 2.154-6.855 4.986-6.855 1.603 0 2.422 1.122 2.422 2.368 0 2.35-2.013 4.416-4.844 6.57.213.553.552 1.034 1.104 1.319.07-.143.979-.285 1.727-.285.837 0 2.012.214 2.012 1.05 0 .962-1.318 1.176-2.351 1.176-.552.07-1.46-.143-1.46-.143-1.514.41-4.434 2.155-4.434 6.57 0 2.992 1.87 5.752 4.79 5.752 2.208 0 4.006-1.656 4.077-4.22 0-1.656-.694-3.401-2.35-3.401-.837 0-1.585.623-1.585 1.531-.07 1.389.962 1.531.962 2.422 0 .623-.48.908-.962.908-1.388 0-2.439-1.39-2.439-3.116 0-2.084 1.816-3.811 4.167-3.811 3.045 0 4.63 2.635 4.63 5.466zM47.294 36c0-7.906-4.025-16.08-12.679-18.697-1.798-.552-3.312-.908-5.057-.908-4.006 0-4.148 2.28-6.018 2.28-1.033 0-1.728-.748-1.728-1.657 0-1.584 1.869-2.83 4.843-2.83 2.777 0 4.914.694 5.324.89l.07-.196c-.747-.285-3.383-1.193-7.051-1.193-7.977 0-16.08 4.095-18.697 12.678-.552 1.798-.908 3.33-.908 5.057 0 4.024 2.279 4.22 2.279 6.09 0 .979-.748 1.673-1.656 1.673-1.585 0-2.831-1.816-2.831-4.86 0-2.76.694-4.915.819-5.325l-.196-.07c-.214.836-1.122 3.4-1.122 7.068 0 8.031 4.095 16.133 12.678 18.768 1.798.552 3.33.89 5.057.89 4.024 0 4.148-2.35 6.018-2.35.979 0 1.745.766 1.745 1.727 0 1.532-1.817 2.778-4.862 2.778-2.76 0-4.986-.694-5.324-.837l-.072.214c.766.338 3.401 1.104 7.07 1.104 7.959 0 16.132-4.024 18.696-12.678.552-1.727.89-3.312.89-4.986 0-4.077-2.278-4.22-2.278-6.089 0-1.033.694-1.727 1.656-1.727 1.602 0 2.848 1.87 2.848 4.915 0 2.707-.695 4.844-.837 5.324l.214.071c.267-.819 1.104-3.383 1.104-7.122zm1.513 0c0 13.159-10.648 23.807-23.807 23.807C11.841 59.807 1.176 49.159 1.176 36S11.841 12.175 25 12.175c13.159 0 23.807 10.737 23.807 23.825zM50 36c0-13.782-11.218-25-25-25S0 22.218 0 36c0 13.835 11.218 25 25 25s25-11.165 25-25z"/></g></svg>