<svg xmlns="http://www.w3.org/2000/svg" width="286" height="130"><path fill="#FFF" fill-rule="evenodd" d="M52.544 80.195l-18.758-16.15-4.117-23.693c14.49.146 26.2 12.095 26.2 26.815 0 4.73-1.21 9.17-3.33 13.028zm-.278.488l.138-.24h.003c-.046.08-.092.162-.14.242v-.002zM29.4 93.985c-9.636 0-18.07-5.216-22.7-13.013l22.09-8.766 23.325 8.742c-4.628 7.81-13.068 13.037-22.715 13.037zM6.358 80.38l.004-.004.148.26-.004.003-.148-.26zM28.79 40.356l-3.586 23.688-18.992 16.07a26.986 26.986 0 0 1-3.285-12.948c0-14.604 11.525-26.482 25.863-26.81zm.61-.008h.06v.003h-.233.173zm0-2.966C13.163 37.384 0 50.718 0 67.167 0 83.615 13.163 96.95 29.4 96.95c16.238 0 29.4-13.335 29.4-29.783 0-16.45-13.162-29.783-29.4-29.783zm122.007 23.893c3.048 0 3.483 3.97 3.483 6.394h-7.183c0-1.62-.145-6.4 3.7-6.4zm7.14 7.864c0-5.23-2.278-9.46-7.285-9.46-4.643 0-7.285 4.23-7.285 9.46 0 5.22 2.207 9.45 7.285 9.45 4.934 0 6.385-2.48 7.142-6.44l-1.7-.01c-.145 1.47-1.09 4.77-4.716 4.85-4.135.08-4.426-5.3-4.354-7.87h10.914zm-61.374 6.3l-.363-19.7c0-.66.725-1.4 1.45-1.4h1.38v-1.17h-6.603l-6.82 18.08-6.82-18.08H72.72l-.07 1.17h1.087c.8 0 1.814.07 1.814 1.1l-.36 19.92c0 .73-.36 1.54-1.81 1.54h-1.09l-.07 1.17h7.33V76.9h-1.24c-.94 0-1.59-.294-1.59-1.543l.37-19.11 7.84 20.58h.8l7.91-20.8.37 19.33c0 .66-.65 1.542-1.67 1.542H90.8v1.17h9.217V76.9h-1.09c-.8 0-1.74-.445-1.74-1.47M125 59.722c-1.6 0-2.904 1.03-3.267 1.545-.42.6-.942.37-1.015-.29-.072-.66-.363-1.32-1.088-1.1-1.597.514-3.05.734-4.28.81v.732c3.045-.15 2.755 1.39 2.755 2.13v12.06c0 1.32-1.16 1.54-1.814 1.54h-1.01v.95h8.49v-.96h-.72c-.65 0-1.81-.22-1.81-1.54v-9.63c0-3.02 1.53-4.12 3.05-4.12.58 0 .94.29.79 1.39-.14 1.1.8 1.84 1.6 1.76.8-.08 1.82-.22 1.67-2.28-.14-2.06-1.3-3.02-3.34-3.02m11.61 17.2c-4.13.09-4.43-5.3-4.35-7.87 0-1.62.22-8.08 3.7-8.08 2.98 0 4.79 2.13 4.79 4.55h.94v-6.18h-.8l-.95 1.49c-1.07-.8-2.41-1.25-4.05-1.25-4.64 0-7.28 4.23-7.28 9.46 0 5.22 2.21 9.43 7.29 9.46 4.5.02 5.58-2.55 6.34-6.52l-1.7-.01c-.15 1.47-.65 4.85-3.92 4.922m107.7-15.65c3.05 0 3.48 3.97 3.48 6.393h-7.18c0-1.62-.14-6.4 3.7-6.4zm7.14 7.863c0-5.23-2.28-9.46-7.28-9.46-4.64 0-7.29 4.23-7.29 9.46 0 5.22 2.21 9.455 7.29 9.455 4.94 0 6.39-2.48 7.14-6.44l-1.7-.01c-.14 1.47-1.09 4.77-4.71 4.85-4.13.08-4.42-5.3-4.35-7.87h10.92zm-66.78-7.87c3.05 0 3.48 3.97 3.48 6.4h-7.18c0-1.62-.15-6.395 3.7-6.395zm7.14 7.87c0-5.225-2.28-9.46-7.28-9.46-4.64 0-7.28 4.235-7.28 9.46 0 5.224 2.2 9.46 7.28 9.46 4.94 0 6.39-2.48 7.15-6.44l-1.7-.003c-.14 1.47-1.09 4.78-4.71 4.85-4.13.09-4.42-5.29-4.35-7.86h10.91zm-84.14-7.86c3.05 0 3.49 3.97 3.49 6.397H104c0-1.62-.145-6.39 3.7-6.39zm7.14 7.867c0-5.22-2.28-9.46-7.28-9.46-4.65 0-7.29 4.24-7.29 9.46 0 5.23 2.2 9.46 7.28 9.46 4.93 0 6.38-2.47 7.14-6.43h-1.7c-.15 1.47-1.09 4.78-4.72 4.85-4.14.09-4.43-5.29-4.35-7.86h10.91zm56.44 2.92c-.08 4.05-2.18 5.3-3.92 5.3-3.92-.07-3.63-6.1-3.63-8.67 0-2.57.14-7.64 3.7-7.2 3.55.44 3.84 4.27 3.84 6.55v4.04zm3.12 2.21v-20.5c0-.85-.44-1.55-1.17-1.33-1.6.51-3.05.73-4.28.81v.73c2.1-.15 2.32.51 2.32 1.25v6.32c-.95-.88-2.04-1.766-3.99-1.766-2.47 0-7.04 1.98-7.04 8.97 0 9.18 5.29 9.77 6.89 9.77s3.7-1.325 4.13-2.02c.04-.15.258-.33.33 0 .07.66.544 1.65 1.27 1.43a17.215 17.215 0 0 1 4.28-.81v-.73c-3.05.15-2.76-1.4-2.76-2.13zm33.01-6.68h9.57v-1.69h-9.58m-3.54 2.72c-2.16-.9-4.06-1.98-5.52-2.72a2.39 2.39 0 0 1-1.31-2.5c.22-1.18 1.23-2.43 3.558-2.5 2.32-.076 3.48 1.91 3.77 4.19h.797V59.2h-.726l-.8 1.396c-1.527-1.027-2.18-1.174-3.56-1.174s-3.7.735-5.007 2.793c-1.31 2.057-.944 5.29 2.176 6.614 3.12 1.32 4.57 2.13 5.44 2.57.87.44 1.374 2.2.793 3.23-.58 1.03-1.67 2.2-3.41 2.2-1.74 0-4.5-1.25-5.15-5h-.73v6.26h.796l.73-1.62c.73.66 2.25 1.76 4.21 1.76s4.72-1.1 5.805-3.16c1.09-2.06.58-5.44-1.89-6.47m23.273 8.29h-3.7V65.66h4.136c2.397 0 4.5 1.69 4.5 5.366 0 3.68-2.18 5.88-4.933 5.88zm-3.7-22.57H227c2.687 0 3.776 1.98 3.776 4.55 0 3.16-.944 5.59-3.774 5.59h-3.628V54.35zm7.18 10.29c1.74-.44 3.485-3.6 3.485-5.74 0-2.13-.79-5.73-5.87-5.73H217.3v.95c1.088 0 2.975.22 2.975 2.06v18.16c0 1.03-.073 2.72-2.975 2.72v1.03h8.924c2.685 0 8.852-.22 8.997-7.43 0-2.43-1.16-5.3-4.64-6.03zm37.41 10.99V64.8c-.07-4.923-4.425-5.07-5.95-5.07-1.595 0-3.34 1.03-3.7 1.544-.42.598-.942.367-1.014-.295-.074-.67-.364-1.33-1.09-1.11-1.596.51-3.05.73-4.28.81v.73c3.047-.15 2.756 1.39 2.756 2.13V75.6c0 1.324-1.16 1.545-1.81 1.545h-1.01v.954h8.49v-.96h-.72c-.65 0-1.81-.22-1.81-1.55v-9.62c0-1.62.58-4.19 3.56-4.41 2.98-.22 3.48 1.76 3.48 3.16V75.6c0 1.324-1.16 1.545-1.81 1.545h-.43v.954h7.91v-.96h-.72c-.65 0-1.81-.22-1.81-1.55m12.93 1.47h-5.66l10.59-16.98H273.5l-1.306 5h.728c1.814-3.97 3.12-3.97 4.28-3.97h4.717L271.39 78.1h12.626l1.16-4.925h-.58c-1.38 3.38-2.395 3.896-3.7 3.896"/></svg>